<svg width="25" height="24" viewBox="0 0 25 24" fill="none" xmlns="http://www.w3.org/2000/svg">
<path d="M8.14546 16.7385C8.22113 16.7962 8.30727 16.8382 8.39895 16.8621C8.49064 16.886 8.58606 16.8913 8.67977 16.8777C8.77348 16.8641 8.86363 16.832 8.94506 16.783C9.0265 16.734 9.09762 16.6692 9.15436 16.5923C9.59029 16.0024 10.1556 15.5236 10.8054 15.1938C11.4552 14.864 12.1718 14.6923 12.8984 14.6923C13.6249 14.6923 14.3415 14.864 14.9913 15.1938C15.6412 15.5236 16.2064 16.0024 16.6424 16.5923C16.6991 16.6691 16.7702 16.7338 16.8515 16.7827C16.9329 16.8315 17.0229 16.8637 17.1165 16.8773C17.2101 16.8908 17.3055 16.8856 17.397 16.8618C17.4886 16.8379 17.5747 16.796 17.6504 16.7385C17.726 16.6809 17.7897 16.6087 17.8379 16.5262C17.8861 16.4436 17.9178 16.3522 17.9311 16.2572C17.9445 16.1622 17.9393 16.0654 17.9158 15.9725C17.8924 15.8795 17.8511 15.7922 17.7944 15.7154C17.1568 14.8478 16.3066 14.1648 15.3284 13.7341C15.8645 13.2373 16.2401 12.5876 16.4059 11.8703C16.5717 11.1529 16.52 10.4015 16.2575 9.71451C15.995 9.02755 15.534 8.43719 14.935 8.02091C14.336 7.60462 13.627 7.38186 12.9011 7.38186C12.1751 7.38186 11.4661 7.60462 10.8671 8.02091C10.2681 8.43719 9.80715 9.02755 9.54465 9.71451C9.28215 10.4015 9.23041 11.1529 9.39622 11.8703C9.56203 12.5876 9.93764 13.2373 10.4738 13.7341C9.49351 14.1639 8.6414 14.8471 8.00236 15.7154C7.88769 15.8703 7.83835 16.0651 7.86518 16.257C7.89202 16.4489 7.99283 16.622 8.14546 16.7385ZM10.7384 11.0385C10.7384 10.6049 10.865 10.181 11.1024 9.82048C11.3397 9.45996 11.6771 9.17896 12.0718 9.01303C12.4665 8.8471 12.9008 8.80369 13.3198 8.88828C13.7388 8.97287 14.1236 9.18167 14.4257 9.48827C14.7278 9.79487 14.9335 10.1855 15.0169 10.6108C15.1002 11.036 15.0574 11.4768 14.8939 11.8774C14.7305 12.278 14.4536 12.6204 14.0984 12.8613C13.7432 13.1022 13.3256 13.2308 12.8984 13.2308C12.3255 13.2308 11.7761 12.9998 11.371 12.5887C10.9659 12.1775 10.7384 11.6199 10.7384 11.0385ZM19.3784 3H6.41836C6.03645 3 5.67018 3.15398 5.40013 3.42807C5.13007 3.70217 4.97836 4.07391 4.97836 4.46154V6.65385H3.53836C3.3474 6.65385 3.16427 6.73084 3.02924 6.86788C2.89422 7.00493 2.81836 7.1908 2.81836 7.38462C2.81836 7.57843 2.89422 7.7643 3.02924 7.90135C3.16427 8.03839 3.3474 8.11538 3.53836 8.11538H4.97836V11.7692H3.53836C3.3474 11.7692 3.16427 11.8462 3.02924 11.9833C2.89422 12.1203 2.81836 12.3062 2.81836 12.5C2.81836 12.6938 2.89422 12.8797 3.02924 13.0167C3.16427 13.1538 3.3474 13.2308 3.53836 13.2308H4.97836V16.8846H3.53836C3.3474 16.8846 3.16427 16.9616 3.02924 17.0987C2.89422 17.2357 2.81836 17.4216 2.81836 17.6154C2.81836 17.8092 2.89422 17.9951 3.02924 18.1321C3.16427 18.2692 3.3474 18.3462 3.53836 18.3462H4.97836V20.5385C4.97836 20.9261 5.13007 21.2978 5.40013 21.5719C5.67018 21.846 6.03645 22 6.41836 22H19.3784C19.7603 22 20.1265 21.846 20.3966 21.5719C20.6666 21.2978 20.8184 20.9261 20.8184 20.5385V4.46154C20.8184 4.07391 20.6666 3.70217 20.3966 3.42807C20.1265 3.15398 19.7603 3 19.3784 3ZM19.3784 20.5385H6.41836V4.46154H19.3784V20.5385Z" fill="#041427"/>
</svg>
