<svg width="25" height="24" viewBox="0 0 25 24" fill="none" xmlns="http://www.w3.org/2000/svg">
<g clip-path="url(#clip0_4672_6089)">
<path d="M20.3867 19.5H5.38672C4.98889 19.5 4.60736 19.342 4.32606 19.0607C4.04475 18.7794 3.88672 18.3978 3.88672 18V7.5C3.88672 7.10218 4.04475 6.72064 4.32606 6.43934C4.60736 6.15804 4.98889 6 5.38672 6H8.38672L9.88672 3.75H15.8867L17.3867 6H20.3867C20.7845 6 21.1661 6.15804 21.4474 6.43934C21.7287 6.72064 21.8867 7.10218 21.8867 7.5V18C21.8867 18.3978 21.7287 18.7794 21.4474 19.0607C21.1661 19.342 20.7845 19.5 20.3867 19.5Z" stroke="#005AAA" stroke-width="1.5" stroke-linecap="round" stroke-linejoin="round"/>
<path d="M12.8867 15.75C14.7507 15.75 16.2617 14.239 16.2617 12.375C16.2617 10.511 14.7507 9 12.8867 9C11.0228 9 9.51172 10.511 9.51172 12.375C9.51172 14.239 11.0228 15.75 12.8867 15.75Z" stroke="#005AAA" stroke-width="1.5" stroke-linecap="round" stroke-linejoin="round"/>
</g>
<defs>
<clipPath id="clip0_4672_6089">
<rect width="24" height="24" fill="white" transform="translate(0.886719)"/>
</clipPath>
</defs>
</svg>
