<svg width="250" height="250" viewBox="0 0 250 250" fill="none" xmlns="http://www.w3.org/2000/svg">
<path d="M48.2234 117.369L42.6384 131.594C42.4728 131.997 42.4433 132.444 42.5545 132.865C42.6657 133.286 42.9115 133.66 43.2545 133.929C43.5975 134.198 44.0189 134.347 44.4546 134.354C44.8904 134.362 45.3166 134.227 45.6684 133.969L67.0909 118.839" fill="#C9DCEE"/>
<path d="M219.105 51.6938C219.138 51.6938 219.17 51.6807 219.193 51.6574C219.216 51.634 219.229 51.6023 219.229 51.5693C219.229 51.5363 219.216 51.5046 219.193 51.4813C219.17 51.4579 219.138 51.4448 219.105 51.4448C219.072 51.4448 219.04 51.4579 219.017 51.4813C218.994 51.5046 218.98 51.5363 218.98 51.5693C218.98 51.6023 218.994 51.634 219.017 51.6574C219.04 51.6807 219.072 51.6938 219.105 51.6938Z" fill="#3A3144"/>
<path d="M113.309 47.2124H61.8545C44.7558 47.2124 30.8945 61.0737 30.8945 78.1724V93.9699C30.8945 111.069 44.7558 124.93 61.8545 124.93H113.309C130.408 124.93 144.269 111.069 144.269 93.9699V78.1724C144.269 61.0737 130.408 47.2124 113.309 47.2124Z" fill="#FFD8C5"/>
<path d="M113.309 47.2124H61.8545C44.7558 47.2124 30.8945 61.0737 30.8945 78.1724V93.9699C30.8945 111.069 44.7558 124.93 61.8545 124.93H113.309C130.408 124.93 144.269 111.069 144.269 93.9699V78.1724C144.269 61.0737 130.408 47.2124 113.309 47.2124Z" fill="#C9DCEE"/>
<path d="M107.753 88.2228C105.863 88.7503 104.37 90.4578 103.253 91.9953C102.102 93.5977 101.298 95.4224 100.893 97.3528C100.625 98.6028 102.553 99.1453 102.82 97.8828C103.159 96.2548 103.814 94.7091 104.748 93.3328C105.568 92.1253 106.813 90.5603 108.278 90.1503C109.515 89.8053 108.99 87.8753 107.745 88.2228H107.753Z" fill="#D6AD6A"/>
<path d="M103.703 91.7298L104.023 100.775C104.023 100.775 114.923 99.7198 112.831 93.6948C111.286 89.2498 103.703 91.7298 103.703 91.7298Z" fill="#D6AD6A"/>
<path d="M112.35 88.5008C111.565 89.7908 110.238 90.5508 108.918 91.1983C107.473 91.9083 106.023 92.5433 104.78 93.5883C104.043 94.2133 105.108 95.2683 105.843 94.6508C108.305 92.5733 111.86 92.1858 113.645 89.2583C114.145 88.4333 112.853 87.6783 112.35 88.5083V88.5008Z" fill="#D6AD6A"/>
<path d="M114.119 90.22C112.764 91.585 111.002 92.3525 109.204 92.97C108.294 93.2775 108.687 94.72 109.604 94.415C111.644 93.7225 113.639 92.84 115.179 91.2875C115.859 90.6 114.799 89.5375 114.119 90.2275V90.22Z" fill="#D6AD6A"/>
<path d="M114.57 92.7263C113.3 93.6362 111.883 94.3204 110.38 94.7488C109.453 94.9988 109.848 96.4588 110.778 96.1938C112.408 95.7329 113.948 94.9946 115.328 94.0113C116.105 93.4538 115.358 92.1538 114.578 92.7163L114.57 92.7263Z" fill="#D6AD6A"/>
<path d="M114.063 95.6203C112.848 96.1353 111.493 96.2703 110.313 96.8403C109.446 97.2603 110.203 98.5553 111.063 98.1353C111.621 97.8653 112.278 97.7953 112.871 97.6353C113.532 97.4375 114.181 97.2004 114.813 96.9253C115.188 96.7653 115.263 96.2178 115.083 95.8978C114.979 95.7304 114.814 95.6093 114.623 95.5596C114.432 95.5098 114.229 95.5352 114.056 95.6303L114.063 95.6203Z" fill="#D6AD6A"/>
<path d="M75.7617 88.0239L89.5117 104.886C90.0569 105.559 90.8457 105.989 91.7063 106.082C92.5669 106.176 93.4297 105.926 94.1067 105.386L106.267 95.6589" stroke="#005AAA" stroke-width="10" stroke-miterlimit="10"/>
<path d="M86.3609 106.154L89.4984 124.929H58.6609C58.6609 124.929 56.9259 108.117 61.4734 101.429" fill="#2791E0"/>
<path d="M93.5231 67.6135C93.5231 67.6135 96.4006 69.651 94.9356 71.2235C93.7031 72.5485 90.2656 70.736 90.2656 70.736L91.2656 67.9385" fill="#041427"/>
<path d="M121.143 103.52C119.278 104.232 117.913 106.02 116.933 107.7C115.917 109.466 115.278 111.424 115.056 113.45C114.993 113.987 115.556 114.45 116.056 114.45C116.651 114.45 116.993 113.99 117.056 113.45C117.252 111.846 117.762 110.297 118.556 108.89C118.949 108.184 119.413 107.52 119.941 106.907C120.421 106.355 120.968 105.72 121.673 105.452C121.924 105.375 122.137 105.204 122.266 104.976C122.396 104.747 122.433 104.477 122.371 104.222C122.238 103.737 121.648 103.33 121.141 103.522L121.143 103.52Z" fill="#D6AD6A"/>
<path d="M117.34 107.414L118.5 116.394C118.5 116.394 129.25 114.337 126.617 108.529C124.66 104.249 117.34 107.414 117.34 107.414Z" fill="#D6AD6A"/>
<path d="M125.691 103.329C124.298 106.169 120.756 106.951 118.636 109.101C117.958 109.791 119.018 110.851 119.696 110.164C121.946 107.884 125.493 107.134 126.986 104.084C127.408 103.221 126.116 102.461 125.691 103.334V103.329Z" fill="#D6AD6A"/>
<path d="M127.62 104.899C126.353 106.441 124.62 107.386 122.82 108.189C121.94 108.579 122.703 109.874 123.57 109.484C125.473 108.636 127.32 107.591 128.673 105.959C129.283 105.209 128.228 104.151 127.613 104.899H127.62Z" fill="#D6AD6A"/>
<path d="M128.156 107.5C127.023 108.482 125.729 109.263 124.331 109.807C123.441 110.152 123.831 111.605 124.731 111.255C126.371 110.622 127.889 109.71 129.219 108.56C129.949 107.927 128.884 106.87 128.156 107.5Z" fill="#D6AD6A"/>
<path d="M128.074 110.295C127.445 110.64 126.791 110.935 126.116 111.178C125.54 111.348 124.982 111.576 124.451 111.858C123.626 112.358 124.379 113.653 125.201 113.153C125.739 112.828 126.364 112.688 126.951 112.46C127.593 112.207 128.22 111.918 128.829 111.593C129.679 111.135 128.921 109.843 128.079 110.295H128.074Z" fill="#D6AD6A"/>
<path d="M73.2994 119.221C80.515 119.221 86.3644 113.371 86.3644 106.156C86.3644 98.9402 80.515 93.0908 73.2994 93.0908C66.0838 93.0908 60.2344 98.9402 60.2344 106.156C60.2344 113.371 66.0838 119.221 73.2994 119.221Z" fill="#2791E0"/>
<path d="M85.7961 72.9846C84.4361 75.4846 83.2961 77.9146 81.2461 80.9446L85.7961 72.9846Z" fill="#D6AD6A"/>
<path d="M85.7961 72.9846C84.4361 75.4846 83.2961 77.9146 81.2461 80.9446" stroke="#D6AD6A" stroke-width="6" stroke-miterlimit="10"/>
<path d="M86.751 78.4259L86.4777 78.3368C84.7881 77.7865 83.3863 76.5876 82.5807 75.0038C81.775 73.4199 81.6316 71.5809 82.1819 69.8913L82.8578 67.8161C83.3144 66.414 84.3094 65.2507 85.6237 64.5822C86.9381 63.9137 88.4642 63.7946 89.8663 64.2513C90.5611 64.4769 91.2047 64.8372 91.7602 65.3117C92.3158 65.7862 92.7723 66.3655 93.1038 67.0165C93.4353 67.6676 93.6353 68.3775 93.6923 69.1059C93.7492 69.8342 93.6621 70.5667 93.4359 71.2613L91.9649 75.7778C91.6251 76.8212 90.8847 77.6869 89.9066 78.1844C88.9285 78.6819 87.7929 78.7704 86.7495 78.4306L86.751 78.4259Z" fill="#D6AD6A"/>
<path d="M90.3461 74.8825C90.0285 74.5593 89.8196 74.145 89.7486 73.6975C89.6936 73.3825 89.2111 73.515 89.2661 73.83C89.3579 74.3616 89.611 74.8521 89.9911 75.235C90.2161 75.465 90.5711 75.1125 90.3461 74.8825Z" fill="#041427"/>
<path d="M91.2228 72.9063C91.4451 72.9063 91.6253 72.7261 91.6253 72.5038C91.6253 72.2815 91.4451 72.1013 91.2228 72.1013C91.0005 72.1013 90.8203 72.2815 90.8203 72.5038C90.8203 72.7261 91.0005 72.9063 91.2228 72.9063Z" fill="#041427"/>
<path d="M91.9453 71.0009C91.7012 70.9324 91.4488 70.8979 91.1953 70.8984C91.129 70.8984 91.0654 70.9248 91.0185 70.9717C90.9717 71.0186 90.9453 71.0821 90.9453 71.1484C90.9453 71.2147 90.9717 71.2783 91.0185 71.3252C91.0654 71.3721 91.129 71.3984 91.1953 71.3984C91.4008 71.3979 91.6054 71.4266 91.8028 71.4834C91.8345 71.4921 91.8676 71.4945 91.9002 71.4904C91.9328 71.4863 91.9643 71.4759 91.9928 71.4596C92.0214 71.4434 92.0464 71.4217 92.0666 71.3957C92.0868 71.3698 92.1016 71.3401 92.1103 71.3084C92.119 71.2768 92.1214 71.2437 92.1173 71.2111C92.1132 71.1785 92.1028 71.147 92.0865 71.1185C92.0703 71.0899 92.0485 71.0648 92.0226 71.0447C91.9967 71.0245 91.967 71.0096 91.9353 71.0009H91.9453Z" fill="#041427"/>
<path d="M92.7472 74.8933C92.4972 75.4208 91.6222 75.8933 91.0547 75.4758L91.8472 74.0708C91.8997 73.9758 92.4347 74.1058 92.5097 74.1508C92.5764 74.1814 92.636 74.2255 92.6846 74.2804C92.7333 74.3353 92.77 74.3997 92.7923 74.4696C92.8147 74.5395 92.8222 74.6133 92.8144 74.6862C92.8067 74.7592 92.7838 74.8297 92.7472 74.8933Z" fill="#D6AD6A"/>
<path d="M60.7249 99.5337L60.7248 99.5341C60.6611 99.838 60.7174 100.155 60.882 100.418C61.0466 100.681 61.3066 100.871 61.6077 100.947L61.6111 100.948L87.6108 107.698L60.7249 99.5337ZM60.7249 99.5337L63.3447 86.9793C63.3448 86.9792 63.3448 86.9791 63.3448 86.979C63.6497 85.5272 64.2518 84.1543 65.1131 82.9466C65.9745 81.7387 67.0766 80.7222 68.35 79.9611C69.6234 79.2 71.0406 78.7107 72.5124 78.524C73.9841 78.3372 75.4786 78.4572 76.9017 78.8762L76.9022 78.8764L87.2522 81.9114L87.2524 81.9114C88.876 82.3871 90.3717 83.2223 91.6285 84.3551C92.8852 85.4879 93.8707 86.8892 94.5118 88.4549C95.1529 90.0207 95.4332 91.7107 95.3318 93.3996C95.2304 95.0885 94.75 96.7328 93.9262 98.2106L93.9261 98.2108M60.7249 99.5337L93.9261 98.2108M93.9261 98.2108L88.9642 107.12C88.964 107.12 88.9638 107.12 88.9637 107.121C88.8336 107.353 88.6304 107.535 88.3859 107.639C88.1412 107.744 87.8687 107.764 87.6111 107.698L93.9261 98.2108Z" fill="#005AAA" stroke="#005AAA"/>
<path d="M87.584 70.187C87.584 70.187 86.564 68.5095 85.7965 69.597C85.3365 70.247 85.6815 71.0195 86.029 71.532C86.1467 71.6996 86.2002 71.9041 86.1795 72.1079C86.1589 72.3118 86.0655 72.5014 85.9165 72.642L83.139 75.2495C83.0577 75.3266 82.9581 75.3817 82.8497 75.4097C82.7412 75.4377 82.6274 75.4376 82.519 75.4095L80.769 74.9645C80.6198 74.9265 80.4884 74.838 80.3973 74.714C80.3061 74.59 80.2607 74.4382 80.269 74.2845C80.3315 72.807 79.454 69.357 80.644 66.717C81.2965 65.262 84.429 61.2645 89.499 63.762C89.9565 63.987 87.879 63.9095 88.3815 63.8345C89.554 63.662 91.854 63.637 93.599 65.5845C96.044 68.2995 96.314 69.492 94.3065 69.657C92.299 69.822 89.8415 67.8645 87.584 70.187Z" fill="#041427"/>
<path d="M70.4777 117.1C71.0931 119.469 71.4774 121.892 71.6252 124.335C71.6452 124.652 72.1452 124.655 72.1252 124.335C71.9753 121.847 71.5851 119.38 70.9602 116.967C70.9426 116.903 70.9003 116.849 70.8427 116.816C70.785 116.783 70.7167 116.775 70.6527 116.792C70.5887 116.81 70.5343 116.852 70.5015 116.91C70.4687 116.968 70.4601 117.036 70.4777 117.1Z" fill="#041427"/>
<path d="M88.9062 90.554C91.0488 92.2115 92.2963 114.731 95.3538 117.034C98.4113 119.336 118.354 112.126 118.354 112.126" stroke="#005AAA" stroke-width="10" stroke-miterlimit="10"/>
<path d="M84.3329 95.3671L85.9754 105.14C86.0004 105.297 86.2429 105.23 86.2254 105.072L84.5829 95.302C84.5579 95.142 84.3154 95.2096 84.3329 95.3671Z" fill="#385A7D"/>
<path d="M106.91 91.6663C107.126 92.4399 107.07 93.2644 106.75 94.0013C106.622 94.2913 107.052 94.5463 107.18 94.2513C107.567 93.3946 107.641 92.4295 107.39 91.5238C107.368 91.4654 107.325 91.4173 107.269 91.389C107.214 91.3607 107.15 91.3542 107.089 91.3708C107.029 91.3874 106.978 91.4259 106.944 91.4787C106.911 91.5316 106.899 91.5949 106.91 91.6563V91.6663Z" fill="#041427"/>
<path d="M78.0576 58.1691L78.8076 59.6891C78.9526 59.9766 79.3851 59.7241 79.2401 59.4391L78.5001 57.9166C78.3551 57.6291 77.9251 57.8841 78.0676 58.1666L78.0576 58.1691Z" fill="#041427"/>
<path d="M84.9774 55.3996L85.4099 57.7896C85.4674 58.1046 85.9499 57.9721 85.8924 57.6571L85.4599 55.2671C85.4024 54.9521 84.9199 55.0846 84.9774 55.3996Z" fill="#041427"/>
<path d="M86.082 59.7129C86.1483 59.7129 86.2119 59.6866 86.2588 59.6397C86.3057 59.5928 86.332 59.5292 86.332 59.4629C86.332 59.3966 86.3057 59.333 86.2588 59.2861C86.2119 59.2392 86.1483 59.2129 86.082 59.2129C86.0157 59.2129 85.9521 59.2392 85.9053 59.2861C85.8584 59.333 85.832 59.3966 85.832 59.4629C85.832 59.5292 85.8584 59.5928 85.9053 59.6397C85.9521 59.6866 86.0157 59.7129 86.082 59.7129Z" fill="#041427"/>
<path d="M92.9005 56.1379L92.3605 58.2028C92.3429 58.2668 92.3515 58.3352 92.3843 58.3928C92.4171 58.4505 92.4715 58.4928 92.5355 58.5103C92.5995 58.5279 92.6678 58.5194 92.7255 58.4865C92.7832 58.4537 92.8254 58.3993 92.843 58.3353L93.383 56.2728C93.4009 56.2089 93.3926 56.1404 93.3601 56.0825C93.3275 56.0246 93.2732 55.982 93.2092 55.9641C93.1453 55.9462 93.0768 55.9544 93.0189 55.987C92.961 56.0196 92.9184 56.0739 92.9005 56.1379Z" fill="#041427"/>
<path d="M134.369 115.834C134.257 116.359 134.697 119.036 133.199 122.481" stroke="#EFD09C" stroke-width="2" stroke-miterlimit="10" stroke-linecap="round"/>
<path d="M124.191 127.984L133.834 124.409C133.834 124.409 133.809 113.249 128.001 113.687C122.194 114.124 124.191 127.984 124.191 127.984Z" fill="#EFD09C"/>
<path d="M127.332 110.454C127.332 110.454 131.8 112.339 132.697 119.274" stroke="#EFD09C" stroke-width="2" stroke-miterlimit="10" stroke-linecap="round"/>
<path d="M128.877 115.12C128.857 115.055 126.804 112.527 124.699 111.892" stroke="#EFD09C" stroke-width="6" stroke-miterlimit="10" stroke-linecap="round"/>
<path d="M126.234 116.369C126.204 116.307 125.097 114.244 122.914 113.969" stroke="#EFD09C" stroke-width="2" stroke-miterlimit="10" stroke-linecap="round"/>
<path d="M124.805 119.293C124.787 119.228 124.035 117.01 121.93 116.375" stroke="#EFD09C" stroke-width="2" stroke-miterlimit="10" stroke-linecap="round"/>
<path d="M184.272 206.778L189.855 220.998C190.02 221.401 190.049 221.847 189.937 222.267C189.826 222.688 189.581 223.061 189.238 223.33C188.896 223.598 188.475 223.748 188.04 223.756C187.605 223.764 187.179 223.629 186.827 223.373L165.402 208.248" fill="#EEF6FD"/>
<path d="M126.98 214.338H178.435C195.533 214.338 209.395 200.477 209.395 183.378V167.58C209.395 150.482 195.533 136.62 178.435 136.62H126.98C109.881 136.62 96.0196 150.482 96.0196 167.58V183.378C96.0196 200.477 109.881 214.338 126.98 214.338Z" fill="#EEF6FD"/>
<path d="M186.879 184.553C187.204 184.125 187.946 181.513 190.771 179.035" stroke="#EFD09C" stroke-width="3" stroke-miterlimit="10" stroke-linecap="round"/>
<path d="M201.267 177.895L191.017 177.022C191.017 177.022 186.267 187.14 191.727 189.21C197.187 191.28 201.267 177.895 201.267 177.895Z" fill="#EFD09C"/>
<path d="M190.953 192.414C190.953 192.414 187.715 188.806 189.858 182.149" stroke="#EFD09C" stroke-width="3" stroke-miterlimit="10" stroke-linecap="round"/>
<path d="M191.547 187.536C191.547 187.603 192.317 190.763 193.952 192.236" stroke="#EFD09C" stroke-width="3" stroke-miterlimit="10" stroke-linecap="round"/>
<path d="M194.465 187.531C194.465 187.601 194.59 189.938 196.445 191.118" stroke="#EFD09C" stroke-width="3" stroke-miterlimit="10" stroke-linecap="round"/>
<path d="M197.002 185.498C197.002 185.566 196.725 187.891 198.36 189.363" stroke="#EFD09C" stroke-width="3" stroke-miterlimit="10" stroke-linecap="round"/>
<path d="M163.693 180.83C170.852 180.83 176.655 175.027 176.655 167.868C176.655 160.709 170.852 154.905 163.693 154.905C156.534 154.905 150.73 160.709 150.73 167.868C150.73 175.027 156.534 180.83 163.693 180.83Z" fill="#F99192"/>
<path d="M157.957 135.228C159.457 137.793 161.027 144.18 160.245 146.655" stroke="#EFD09C" stroke-width="7" stroke-miterlimit="10"/>
<path d="M155.117 138.637L156.254 142.614C156.254 142.614 158.185 141.327 160.435 138.637C160.435 138.637 158.117 139.377 155.117 138.637Z" fill="#D6AD6A"/>
<path d="M163.078 125.761L164.256 126.567C165.433 127.373 166.242 128.613 166.505 130.015C166.767 131.416 166.462 132.865 165.657 134.042L163.667 136.949C162.63 138.464 161.033 139.506 159.228 139.844C157.422 140.182 155.557 139.789 154.041 138.752L153.68 138.505C152.624 137.782 151.898 136.67 151.663 135.412C151.427 134.154 151.701 132.854 152.424 131.798L155.599 127.158C156.405 125.981 157.645 125.173 159.047 124.91C160.449 124.647 161.897 124.952 163.074 125.758L163.078 125.761Z" fill="#EFD09C"/>
<path d="M155.503 131.052C155.746 131.052 155.943 130.855 155.943 130.612C155.943 130.369 155.746 130.172 155.503 130.172C155.259 130.172 155.062 130.369 155.062 130.612C155.062 130.855 155.259 131.052 155.503 131.052Z" fill="#041427"/>
<path d="M152.499 130.789C152.209 131.356 152.387 132.431 153.124 132.646L153.817 131.021C153.862 130.911 153.392 130.521 153.317 130.496C153.245 130.457 153.166 130.433 153.084 130.426C153.002 130.42 152.92 130.431 152.842 130.458C152.765 130.486 152.695 130.53 152.635 130.587C152.576 130.644 152.53 130.712 152.499 130.789Z" fill="#EFD09C"/>
<path d="M165.8 142.31L150.002 145.163C149.062 145.333 148.166 145.693 147.37 146.222C146.573 146.75 145.893 147.436 145.371 148.236C144.849 149.036 144.496 149.935 144.333 150.877C144.17 151.818 144.201 152.783 144.425 153.713L148.12 169.058C148.26 169.638 148.601 170.15 149.083 170.502C149.565 170.854 150.157 171.023 150.752 170.98L176.317 168.935C176.961 168.884 177.56 168.588 177.992 168.108C178.424 167.628 178.654 167 178.637 166.355L178.252 152.435C178.21 150.912 177.839 149.416 177.166 148.049C176.492 146.682 175.531 145.477 174.349 144.516C173.167 143.554 171.791 142.859 170.315 142.479C168.84 142.098 167.299 142.041 165.8 142.31Z" fill="#082241"/>
<path d="M154.015 132.675L155.245 132.723C155.285 132.724 155.324 132.735 155.359 132.754C155.394 132.774 155.423 132.801 155.445 132.835C155.467 132.868 155.481 132.906 155.485 132.946C155.49 132.985 155.484 133.026 155.47 133.063C155.275 133.563 154.827 134.433 154.142 134.343C153.457 134.253 153.54 133.418 153.642 132.96C153.662 132.877 153.709 132.803 153.777 132.751C153.845 132.699 153.929 132.672 154.015 132.675Z" fill="#041427"/>
<path d="M154.143 134.342C154.608 134.404 154.963 134.019 155.205 133.614C154.733 133.342 154.058 133.659 153.633 133.922C153.665 134.035 153.731 134.136 153.823 134.211C153.914 134.286 154.025 134.332 154.143 134.342Z" fill="#C52727"/>
<path d="M154.294 127.434L156.144 128.156C156.429 128.267 156.734 128.317 157.039 128.304C157.345 128.29 157.645 128.212 157.919 128.076L158.669 127.696L158.089 128.999L158.951 129.531C159.266 129.726 159.526 129.999 159.706 130.323C159.886 130.646 159.981 131.011 159.981 131.381V131.541C159.981 131.541 160.731 130.661 161.774 131.041C162.816 131.421 161.641 133.556 160.376 133.499L160.251 140.401C160.249 140.491 160.267 140.579 160.304 140.661C160.341 140.743 160.395 140.815 160.463 140.873C160.532 140.931 160.612 140.973 160.698 140.996C160.785 141.019 160.876 141.022 160.964 141.006L171.254 139.079C171.353 139.06 171.447 139.022 171.531 138.965C171.615 138.908 171.685 138.835 171.739 138.749C171.793 138.664 171.828 138.568 171.842 138.468C171.857 138.368 171.851 138.266 171.824 138.169C171.074 135.496 168.381 126.669 164.494 125.464C164.162 125.356 163.849 125.2 163.564 125.001C162.226 124.099 157.564 121.924 154.026 126.501C153.969 126.576 153.93 126.663 153.913 126.756C153.895 126.848 153.9 126.944 153.926 127.034C153.952 127.125 153.999 127.208 154.062 127.278C154.126 127.347 154.205 127.4 154.294 127.434Z" fill="#041427"/>
<path d="M150.754 170.979C150.754 170.979 139.561 200.207 138.094 214.339H174.094C174.094 214.339 181.639 177.162 176.319 168.934" fill="#005AAA"/>
<path d="M155.879 129.13C156.131 129.214 156.371 129.332 156.592 129.48C156.862 129.66 157.112 129.23 156.842 129.047C156.583 128.878 156.303 128.743 156.009 128.647C155.702 128.547 155.572 129.03 155.877 129.13H155.879Z" fill="#041427"/>
<path d="M162.19 193.565L156.055 213.405C155.96 213.713 156.443 213.845 156.538 213.538L162.673 193.698C162.768 193.39 162.285 193.258 162.19 193.565Z" fill="#041427"/>
<path d="M155.688 173.749C157.366 175.389 159.101 176.967 160.891 178.482C161.141 178.689 161.491 178.337 161.246 178.129C159.456 176.614 157.721 175.037 156.041 173.397C155.811 173.172 155.458 173.524 155.688 173.749Z" fill="#041427"/>
<path d="M128.167 120.683C128.167 120.683 127.839 140.278 134.357 147.038C140.874 153.798 157.391 151.703 157.391 151.703" stroke="#082241" stroke-width="15" stroke-miterlimit="10"/>
<path d="M166.254 148.83C166.254 148.83 182.844 143.08 192.719 159.71C199.116 170.48 193.866 181.775 193.866 181.775" stroke="#082241" stroke-width="15" stroke-miterlimit="10"/>
<path d="M190.016 183.338C190.466 183.385 190.92 183.303 191.324 183.102C191.729 182.9 192.068 182.588 192.301 182.201C192.469 181.926 192.039 181.676 191.869 181.951C191.679 182.262 191.403 182.512 191.074 182.67C190.746 182.828 190.378 182.887 190.016 182.841C189.696 182.806 189.699 183.306 190.016 183.341V183.338Z" fill="#041427"/>
<path d="M153.555 115.781L154.21 117.898C154.303 118.206 154.788 118.073 154.69 117.766L154.038 115.648C153.943 115.343 153.46 115.473 153.555 115.781Z" fill="#041427"/>
<path d="M161.181 114.337C160.85 115.408 160.591 116.499 160.406 117.605C160.354 117.92 160.836 118.055 160.889 117.737C161.073 116.632 161.332 115.54 161.664 114.47C161.759 114.162 161.276 114.03 161.181 114.337Z" fill="#041427"/>
<path d="M160.145 120.2C160.211 120.2 160.274 120.174 160.321 120.127C160.368 120.08 160.395 120.016 160.395 119.95C160.395 119.884 160.368 119.82 160.321 119.773C160.274 119.727 160.211 119.7 160.145 119.7C160.078 119.7 160.015 119.727 159.968 119.773C159.921 119.82 159.895 119.884 159.895 119.95C159.895 120.016 159.921 120.08 159.968 120.127C160.015 120.174 160.078 120.2 160.145 120.2Z" fill="#041427"/>
<path d="M168.557 117.212C168.082 117.89 167.573 118.544 167.029 119.169C166.819 119.419 167.172 119.767 167.384 119.522C167.954 118.864 168.49 118.177 168.989 117.464C169.174 117.199 168.739 116.949 168.557 117.214V117.212Z" fill="#041427"/>
</svg>
