<svg width="25" height="25" viewBox="0 0 25 25" fill="none" xmlns="http://www.w3.org/2000/svg">
<path d="M12.8867 14.75C14.1294 14.75 15.1367 13.7426 15.1367 12.5C15.1367 11.2574 14.1294 10.25 12.8867 10.25C11.6441 10.25 10.6367 11.2574 10.6367 12.5C10.6367 13.7426 11.6441 14.75 12.8867 14.75Z" stroke="white" stroke-width="1.5" stroke-miterlimit="10"/>
<path d="M12.8867 7.25C14.1294 7.25 15.1367 6.24264 15.1367 5C15.1367 3.75736 14.1294 2.75 12.8867 2.75C11.6441 2.75 10.6367 3.75736 10.6367 5C10.6367 6.24264 11.6441 7.25 12.8867 7.25Z" stroke="white" stroke-width="1.5" stroke-miterlimit="10"/>
<path d="M12.8867 22.25C14.1294 22.25 15.1367 21.2426 15.1367 20C15.1367 18.7574 14.1294 17.75 12.8867 17.75C11.6441 17.75 10.6367 18.7574 10.6367 20C10.6367 21.2426 11.6441 22.25 12.8867 22.25Z" stroke="white" stroke-width="1.5" stroke-miterlimit="10"/>
</svg>
