<svg width="24" height="24" viewBox="0 0 24 24" fill="none" xmlns="http://www.w3.org/2000/svg">
<path d="M11.4652 6.69284L13.3215 4.83659C14.1074 4.12027 15.1391 3.73431 16.2022 3.75892C17.2653 3.78353 18.278 4.21682 19.03 4.96874C19.7819 5.72067 20.2152 6.7334 20.2398 7.7965C20.2644 8.85959 19.8784 9.8913 19.1621 10.6772L16.509 13.321C16.1266 13.7048 15.6722 14.0093 15.1719 14.2171C14.6716 14.4249 14.1351 14.5318 13.5934 14.5318C13.0516 14.5318 12.5152 14.4249 12.0148 14.2171C11.5145 14.0093 11.0601 13.7048 10.6777 13.321" stroke="#041427" stroke-width="1.5" stroke-linecap="round" stroke-linejoin="round"/>
<path d="M12.5335 17.3058L10.6772 19.1621C9.8913 19.8784 8.85959 20.2643 7.7965 20.2397C6.7334 20.2151 5.72067 19.7818 4.96874 19.0299C4.21682 18.278 3.78353 17.2652 3.75892 16.2021C3.73431 15.1391 4.12027 14.1074 4.83659 13.3214L7.48971 10.6777C7.87208 10.2939 8.32647 9.98935 8.8268 9.78156C9.32713 9.57376 9.86357 9.4668 10.4053 9.4668C10.9471 9.4668 11.4835 9.57376 11.9839 9.78156C12.4842 9.98935 12.9386 10.2939 13.321 10.6777" stroke="#041427" stroke-width="1.5" stroke-linecap="round" stroke-linejoin="round"/>
</svg>
