<svg width="25" height="24" viewBox="0 0 25 24" fill="none" xmlns="http://www.w3.org/2000/svg">
<path d="M9.07031 11.6998C9.84208 13.2935 11.1308 14.579 12.7266 15.3467C12.8443 15.4024 12.9745 15.4265 13.1043 15.4167C13.2342 15.4068 13.3592 15.3633 13.4672 15.2904L15.8109 13.7248C15.9145 13.6546 16.0341 13.6117 16.1587 13.6002C16.2833 13.5887 16.4088 13.609 16.5234 13.6592L20.9109 15.5435C21.0609 15.6059 21.1862 15.7159 21.2675 15.8565C21.3488 15.9971 21.3816 16.1606 21.3609 16.3217C21.2219 17.407 20.6921 18.4046 19.8707 19.1276C19.0494 19.8506 17.9927 20.2495 16.8984 20.2498C13.5169 20.2498 10.2739 18.9065 7.88283 16.5154C5.49174 14.1243 4.14844 10.8813 4.14844 7.49979C4.14868 6.40553 4.54764 5.34886 5.27065 4.5275C5.99366 3.70613 6.99118 3.17635 8.07656 3.03729C8.23766 3.01659 8.4011 3.04943 8.5417 3.13074C8.6823 3.21206 8.79228 3.33733 8.85469 3.48729L10.7391 7.88416C10.7881 7.99699 10.8086 8.12013 10.7988 8.24275C10.7889 8.36537 10.7491 8.48369 10.6828 8.58729L9.11719 10.9685C9.04748 11.0762 9.00657 11.2 8.99837 11.328C8.99016 11.4561 9.01493 11.5841 9.07031 11.6998Z" stroke="#041427" stroke-width="1.5" stroke-linecap="round" stroke-linejoin="round"/>
<path d="M16.1484 4.5H19.8984V8.25" stroke="#041427" stroke-width="1.5" stroke-linecap="round" stroke-linejoin="round"/>
<path d="M15.3984 9L19.8984 4.5" stroke="#041427" stroke-width="1.5" stroke-linecap="round" stroke-linejoin="round"/>
</svg>
