<svg width="25" height="24" viewBox="0 0 25 24" fill="none" xmlns="http://www.w3.org/2000/svg">
<path d="M8.91719 20.2499H4.72657C4.52765 20.2499 4.33689 20.1709 4.19624 20.0302C4.05558 19.8896 3.97657 19.6988 3.97657 19.4999V15.3093C3.97623 15.2119 3.9951 15.1154 4.03209 15.0253C4.06909 14.9352 4.1235 14.8533 4.19219 14.7843L15.4422 3.53429C15.512 3.46343 15.5952 3.40715 15.6869 3.36874C15.7786 3.33033 15.8771 3.31055 15.9766 3.31055C16.076 3.31055 16.1745 3.33033 16.2662 3.36874C16.358 3.40715 16.4412 3.46343 16.5109 3.53429L20.6922 7.71554C20.7631 7.78533 20.8193 7.86851 20.8577 7.96026C20.8962 8.052 20.9159 8.15046 20.9159 8.24992C20.9159 8.34938 20.8962 8.44784 20.8577 8.53958C20.8193 8.63132 20.7631 8.71451 20.6922 8.78429L9.44219 20.0343C9.37316 20.103 9.29125 20.1574 9.20117 20.1944C9.11108 20.2314 9.01458 20.2503 8.91719 20.2499Z" stroke="#041427" stroke-width="1.5" stroke-linecap="round" stroke-linejoin="round"/>
<path d="M12.9766 6L18.2266 11.25" stroke="#041427" stroke-width="1.5" stroke-linecap="round" stroke-linejoin="round"/>
</svg>
