<svg width="375" height="375" viewBox="0 0 375 375" fill="none" xmlns="http://www.w3.org/2000/svg">
<path d="M222.77 290.924C222.77 290.924 240.991 294.573 242.27 296.793C243.132 298.293 241.816 303.089 242.24 306.73C242.293 307.166 242.483 307.574 242.783 307.895C243.083 308.216 243.476 308.433 243.907 308.517C244.339 308.6 244.785 308.545 245.183 308.358C245.58 308.172 245.909 307.865 246.121 307.48L259.313 283.544C259.603 283.017 259.771 282.433 259.806 281.833C259.84 281.233 259.739 280.632 259.511 280.076C259.283 279.52 258.934 279.022 258.488 278.619C258.042 278.216 257.512 277.918 256.936 277.746C248.551 275.26 231.398 270.228 224.09 268.473" fill="#2791E0"/>
<path d="M224.075 268.5L222.77 290.94C222.77 290.94 230.611 292.545 236.405 294.229C238.212 288.979 241.977 278.884 238.411 272.381C232.763 270.75 227.401 269.284 224.075 268.5Z" fill="#005AAA"/>
<path d="M231.675 293.471C231.874 292.628 232.182 291.813 232.59 291.049L232.249 291.004C232.726 292.222 233.313 293.394 234 294.506C234.02 294.537 234.048 294.562 234.081 294.578C234.114 294.594 234.151 294.599 234.187 294.595C234.223 294.59 234.258 294.575 234.286 294.551C234.314 294.528 234.334 294.496 234.345 294.461C234.667 293.642 235.042 292.845 235.47 292.076L235.125 292.031C235.645 293.301 236.309 294.507 237.105 295.624C237.18 295.725 237.368 295.766 237.431 295.624L238.59 292.999H238.264L239.94 296.884C240.004 297.026 240.191 296.981 240.266 296.884C240.841 296.113 241.282 295.251 241.571 294.334C241.646 294.105 241.286 294.008 241.196 294.236C240.913 295.121 240.483 295.953 239.925 296.696H240.251L238.575 292.811C238.558 292.783 238.534 292.76 238.506 292.744C238.477 292.728 238.445 292.72 238.412 292.72C238.379 292.72 238.347 292.728 238.319 292.744C238.29 292.76 238.266 292.783 238.249 292.811L237.09 295.436H237.416C236.635 294.347 235.983 293.171 235.474 291.93C235.463 291.895 235.442 291.864 235.414 291.84C235.386 291.817 235.352 291.802 235.316 291.797C235.28 291.792 235.243 291.798 235.209 291.814C235.176 291.829 235.148 291.854 235.129 291.885C234.699 292.69 234.321 293.522 233.996 294.375L234.341 294.33C233.667 293.248 233.093 292.107 232.624 290.921C232.614 290.886 232.594 290.855 232.566 290.831C232.538 290.807 232.504 290.792 232.468 290.787C232.432 290.782 232.395 290.788 232.362 290.804C232.329 290.82 232.301 290.845 232.283 290.876C231.857 291.668 231.537 292.511 231.33 293.385C231.274 293.621 231.634 293.719 231.705 293.486L231.675 293.471Z" fill="#041427"/>
<path d="M232.88 289.504C232.93 289.504 232.978 289.484 233.014 289.449C233.049 289.414 233.069 289.366 233.069 289.316C233.069 289.266 233.049 289.218 233.014 289.182C232.978 289.147 232.93 289.127 232.88 289.127C232.83 289.127 232.782 289.147 232.747 289.182C232.711 289.218 232.691 289.266 232.691 289.316C232.691 289.366 232.711 289.414 232.747 289.449C232.782 289.484 232.83 289.504 232.88 289.504Z" fill="#041427"/>
<path d="M235.829 290.217C235.879 290.217 235.927 290.197 235.963 290.162C235.998 290.127 236.018 290.079 236.018 290.029C236.018 289.978 235.998 289.931 235.963 289.895C235.927 289.86 235.879 289.84 235.829 289.84C235.779 289.84 235.731 289.86 235.696 289.895C235.66 289.931 235.641 289.978 235.641 290.029C235.641 290.079 235.66 290.127 235.696 290.162C235.731 290.197 235.779 290.217 235.829 290.217Z" fill="#041427"/>
<path d="M239.212 291.342C239.262 291.342 239.31 291.322 239.346 291.287C239.381 291.252 239.401 291.204 239.401 291.154C239.401 291.103 239.381 291.055 239.346 291.02C239.31 290.985 239.262 290.965 239.212 290.965C239.162 290.965 239.114 290.985 239.079 291.02C239.043 291.055 239.023 291.103 239.023 291.154C239.023 291.204 239.043 291.252 239.079 291.287C239.114 291.322 239.162 291.342 239.212 291.342Z" fill="#041427"/>
<path d="M242.439 292.561C242.489 292.561 242.537 292.541 242.572 292.506C242.607 292.47 242.627 292.422 242.627 292.372C242.627 292.322 242.607 292.274 242.572 292.239C242.537 292.203 242.489 292.184 242.439 292.184C242.389 292.184 242.341 292.203 242.305 292.239C242.27 292.274 242.25 292.322 242.25 292.372C242.25 292.422 242.27 292.47 242.305 292.506C242.341 292.541 242.389 292.561 242.439 292.561Z" fill="#041427"/>
<path d="M192.932 155.291C192.932 155.291 154.641 222.607 154.244 240.934C153.846 259.26 233.916 282.559 233.916 282.559" stroke="#041427" stroke-width="30" stroke-miterlimit="10"/>
<path d="M191.624 179.522C200.797 179.522 208.233 172.086 208.233 162.913C208.233 153.741 200.797 146.305 191.624 146.305C182.452 146.305 175.016 153.741 175.016 162.913C175.016 172.086 182.452 179.522 191.624 179.522Z" fill="#E7A54F"/>
<path d="M180.645 102.139C180.645 102.139 177.004 110.584 174.506 114.409C174.355 114.642 174.256 114.906 174.216 115.181C174.175 115.456 174.195 115.736 174.273 116.003C174.351 116.27 174.485 116.517 174.667 116.727C174.849 116.938 175.074 117.106 175.327 117.222C176.959 117.972 179.317 118.8 181.702 118.8L182.344 115.658V118.8C187.084 119.614 189.045 119.449 190.05 117.758C191.175 115.883 187.084 98.2578 187.084 98.2578" fill="#041427"/>
<path d="M190.058 313.975C190.058 313.975 195.653 331.697 194.322 333.876C193.415 335.376 188.592 336.501 185.607 338.646C185.256 338.904 184.996 339.266 184.862 339.681C184.728 340.095 184.728 340.541 184.862 340.955C184.995 341.37 185.256 341.732 185.606 341.991C185.956 342.249 186.379 342.391 186.815 342.396H214.141C214.741 342.396 215.335 342.262 215.877 342.003C216.418 341.744 216.895 341.367 217.272 340.899C217.649 340.431 217.917 339.885 218.055 339.301C218.193 338.716 218.199 338.108 218.071 337.521C216.196 328.975 212.33 311.522 210.338 304.277" fill="#2791E0"/>
<path d="M210.342 304.287L190.062 313.973C190.062 313.973 192.44 321.616 193.76 327.507C199.235 326.551 209.885 324.976 213.864 318.717C212.544 312.995 211.25 307.583 210.342 304.287Z" fill="#005AAA"/>
<path d="M192.137 323.004C192.971 322.769 193.832 322.643 194.698 322.629L194.567 322.307C193.73 323.312 192.987 324.392 192.347 325.532C192.287 325.644 192.347 325.836 192.508 325.817C193.397 325.701 194.293 325.644 195.19 325.644L195.055 325.322C194.195 326.392 193.46 327.557 192.865 328.794C192.812 328.907 192.865 329.087 193.03 329.076L195.883 328.824L195.748 328.506L193.157 331.873C193.082 331.967 193.082 332.166 193.24 332.188C194.209 332.32 195.193 332.292 196.153 332.106C196.39 332.061 196.292 331.701 196.056 331.731C195.161 331.907 194.244 331.933 193.341 331.809L193.423 332.124L196.015 328.783C196.101 328.667 196.063 328.446 195.883 328.461L193.03 328.712L193.191 328.993C193.768 327.784 194.483 326.645 195.321 325.599C195.345 325.573 195.361 325.54 195.367 325.504C195.373 325.469 195.369 325.432 195.355 325.399C195.342 325.365 195.319 325.337 195.289 325.316C195.26 325.295 195.225 325.283 195.19 325.281C194.293 325.28 193.397 325.338 192.508 325.453L192.67 325.734C193.294 324.622 194.017 323.568 194.83 322.584C194.855 322.558 194.873 322.525 194.88 322.489C194.887 322.453 194.883 322.416 194.869 322.382C194.855 322.348 194.831 322.319 194.801 322.298C194.771 322.277 194.735 322.266 194.698 322.266C193.799 322.274 192.905 322.4 192.04 322.641C191.99 322.654 191.947 322.686 191.921 322.73C191.895 322.774 191.888 322.827 191.901 322.877C191.914 322.927 191.946 322.969 191.99 322.995C192.034 323.021 192.087 323.029 192.137 323.016V323.004Z" fill="#041427"/>
<path d="M196.329 322.237C196.379 322.237 196.427 322.217 196.463 322.181C196.498 322.146 196.518 322.098 196.518 322.048C196.518 321.998 196.498 321.95 196.463 321.915C196.427 321.879 196.379 321.859 196.329 321.859C196.279 321.859 196.231 321.879 196.196 321.915C196.161 321.95 196.141 321.998 196.141 322.048C196.141 322.098 196.161 322.146 196.196 322.181C196.231 322.217 196.279 322.237 196.329 322.237Z" fill="#041427"/>
<path d="M197.142 325.17C197.192 325.17 197.24 325.15 197.275 325.115C197.311 325.08 197.33 325.032 197.33 324.982C197.33 324.932 197.311 324.884 197.275 324.848C197.24 324.813 197.192 324.793 197.142 324.793C197.092 324.793 197.044 324.813 197.008 324.848C196.973 324.884 196.953 324.932 196.953 324.982C196.953 325.032 196.973 325.08 197.008 325.115C197.044 325.15 197.092 325.17 197.142 325.17Z" fill="#041427"/>
<path d="M197.798 328.672C197.848 328.672 197.896 328.652 197.931 328.617C197.967 328.582 197.987 328.534 197.987 328.484C197.987 328.434 197.967 328.386 197.931 328.35C197.896 328.315 197.848 328.295 197.798 328.295C197.748 328.295 197.7 328.315 197.665 328.35C197.629 328.386 197.609 328.434 197.609 328.484C197.609 328.534 197.629 328.582 197.665 328.617C197.7 328.652 197.748 328.672 197.798 328.672Z" fill="#041427"/>
<path d="M198.29 332.092C198.34 332.092 198.388 332.072 198.424 332.037C198.459 332.002 198.479 331.954 198.479 331.904C198.479 331.853 198.459 331.805 198.424 331.77C198.388 331.735 198.34 331.715 198.29 331.715C198.24 331.715 198.192 331.735 198.157 331.77C198.121 331.805 198.102 331.853 198.102 331.904C198.102 331.954 198.121 332.002 198.157 332.037C198.192 332.072 198.24 332.092 198.29 332.092Z" fill="#041427"/>
<path d="M192.614 156.818C192.614 156.818 185.426 226.699 187.845 246.54C191.595 277.327 201.96 318.952 201.96 318.952" stroke="#082241" stroke-width="30" stroke-miterlimit="10"/>
<path d="M232.62 139.825L232.621 139.822C234.069 134.427 240.913 132.673 244.94 136.604C252.158 143.658 258.095 148.3 262.93 152.08C263.67 152.659 264.384 153.217 265.073 153.761C270.269 157.862 273.997 161.106 276.656 165.896L276.656 165.896C277.69 167.76 278.031 170.17 277.763 173.005C277.495 175.838 276.622 179.056 275.272 182.5C272.571 189.388 267.99 197.109 262.664 204.328C257.34 211.546 251.288 218.24 245.662 223.077C242.848 225.497 240.152 227.442 237.716 228.758C235.269 230.079 233.135 230.737 231.431 230.652C227.931 230.478 224.581 228.492 221.407 225.307C218.238 222.127 215.296 217.8 212.617 213.058C208.47 205.716 204.991 197.453 202.283 191.019C201.49 189.136 200.764 187.41 200.106 185.909C198.657 182.606 197.738 180.375 197.28 178.824C196.811 177.239 196.881 176.539 197.146 176.148C197.28 175.949 197.499 175.775 197.857 175.606C198.219 175.434 198.682 175.285 199.272 175.113C199.424 175.068 199.584 175.023 199.75 174.975C200.854 174.659 202.256 174.258 203.892 173.536C205.821 172.686 208.463 170.628 211.336 167.961C214.224 165.281 217.391 161.941 220.377 158.477C223.362 155.014 226.172 151.417 228.344 148.219C230.501 145.043 232.071 142.198 232.513 140.257L232.514 140.254C232.545 140.109 232.581 139.968 232.62 139.825Z" fill="#2791E0" stroke="#2791E0"/>
<path d="M277.09 165.656C272.05 156.57 263.252 152.977 248.68 139.5C248.68 139.5 264.703 155.873 250.408 179.546C236.113 203.22 199.645 186.112 199.645 186.112C205.427 199.309 216.696 230.422 231.403 231.154C246.111 231.885 285.895 181.519 277.09 165.656Z" fill="#1C7EC7"/>
<path d="M176.293 156.514L207.283 175.826C207.283 175.826 211.07 159.761 207.467 154.691" fill="#2791E0"/>
<path d="M191.48 112.367C192.182 115.825 192.054 121.832 192.935 125.237" stroke="#EFD09C" stroke-width="8" stroke-miterlimit="10"/>
<path d="M186.256 115.837L185.922 119.253C185.922 119.253 192.856 120.206 193.842 114.971C191.466 116.045 188.813 116.348 186.256 115.837Z" fill="#041427"/>
<path d="M192.076 97.2909C193.151 97.4983 194.174 97.9156 195.087 98.5188C196 99.1221 196.786 99.8996 197.398 100.807C198.011 101.714 198.438 102.733 198.657 103.805C198.875 104.878 198.88 105.983 198.67 107.058L198.179 109.593C197.637 112.385 196.01 114.847 193.653 116.438C191.296 118.029 188.404 118.619 185.613 118.078C184.848 117.93 184.12 117.632 183.47 117.202C182.82 116.773 182.261 116.219 181.825 115.573C181.389 114.927 181.084 114.202 180.929 113.439C180.773 112.675 180.769 111.889 180.917 111.124L182.32 103.888C182.527 102.814 182.944 101.791 183.547 100.879C184.149 99.9659 184.925 99.1808 185.831 98.5682C186.737 97.9556 187.755 97.5275 188.827 97.3083C189.898 97.0892 191.002 97.0833 192.076 97.2909Z" fill="#EFD09C"/>
<path d="M185.162 107.315C185.496 107.315 185.766 107.045 185.766 106.711C185.766 106.378 185.496 106.107 185.162 106.107C184.829 106.107 184.559 106.378 184.559 106.711C184.559 107.045 184.829 107.315 185.162 107.315Z" fill="#041427"/>
<path d="M185.343 104.191C185.648 104.251 185.942 104.355 186.217 104.498C186.644 104.72 187.023 104.075 186.592 103.85C186.26 103.677 185.905 103.55 185.538 103.475C185.069 103.373 184.867 104.097 185.339 104.195L185.343 104.191Z" fill="#041427"/>
<path d="M181.444 108.75C181.391 109.623 182.194 110.872 183.248 110.737L183.221 108.318C183.221 108.153 182.423 107.943 182.291 107.943C182.182 107.936 182.071 107.951 181.968 107.988C181.864 108.025 181.769 108.083 181.69 108.159C181.61 108.235 181.547 108.327 181.504 108.429C181.462 108.53 181.441 108.64 181.444 108.75Z" fill="#EFD09C"/>
<path d="M203.611 123.227L203.611 123.227C205.347 123.204 207.074 123.683 208.676 124.644C210.278 125.606 211.72 127.03 212.895 128.828C214.069 130.626 214.945 132.751 215.457 135.06C215.97 137.369 216.105 139.801 215.852 142.189L212.928 169.855L212.928 169.856C212.816 170.933 212.401 171.885 211.801 172.525C211.205 173.16 210.486 173.431 209.795 173.348L209.794 173.348L175.099 169.207L175.099 169.207C174.45 169.13 173.807 168.739 173.302 168.047C172.796 167.353 172.479 166.42 172.429 165.412L172.429 165.411L170.975 136.69L170.975 136.69C170.889 135.001 171.061 133.308 171.48 131.715C171.898 130.122 172.553 128.668 173.398 127.44C174.244 126.212 175.259 125.24 176.377 124.575C177.493 123.91 178.69 123.564 179.894 123.547C179.894 123.547 179.894 123.547 179.894 123.547L203.611 123.227Z" fill="#005AAA" stroke="#005AAA"/>
<path d="M184.477 110.821C185.406 110.44 186.255 109.886 186.978 109.19C187.327 108.856 186.795 108.327 186.446 108.661C185.819 109.271 185.084 109.758 184.278 110.097C183.84 110.277 184.035 111.005 184.477 110.821Z" fill="#041427"/>
<path d="M149.099 108.152C149.027 108.955 150.171 112.862 148.562 118.277" stroke="#EFD09C" stroke-width="4" stroke-miterlimit="10" stroke-linecap="round"/>
<path d="M139.433 130.359L151.433 120.647C151.433 120.647 146.033 104.784 137.993 108.212C129.953 111.639 139.433 130.359 139.433 130.359Z" fill="#EFD09C"/>
<path d="M135.477 103.938C135.477 103.938 142.733 104.47 147.334 113.894" stroke="#EFD09C" stroke-width="4" stroke-miterlimit="10" stroke-linecap="round"/>
<path d="M139.914 109.827C139.854 109.741 135.725 107.135 132.414 107.244" stroke="#EFD09C" stroke-width="4" stroke-miterlimit="10" stroke-linecap="round"/>
<path d="M136.759 112.873C136.688 112.798 134.134 110.401 130.891 111.054" stroke="#EFD09C" stroke-width="4" stroke-miterlimit="10" stroke-linecap="round"/>
<path d="M136.127 117.71C136.067 117.628 133.933 114.838 130.637 114.946" stroke="#EFD09C" stroke-width="4" stroke-miterlimit="10" stroke-linecap="round"/>
<path d="M221.723 200.251C222.056 199.52 222.289 195.455 225.611 190.902" stroke="#EFD09C" stroke-width="4" stroke-miterlimit="10" stroke-linecap="round"/>
<path d="M238.262 182.57L223.715 187.712C223.715 187.712 223.498 204.47 232.22 203.93C240.943 203.39 238.262 182.57 238.262 182.57Z" fill="#EFD09C"/>
<path d="M225.305 195.438C226.49 205.862 233.146 208.791 233.146 208.791" stroke="#EFD09C" stroke-width="4" stroke-miterlimit="10" stroke-linecap="round"/>
<path d="M230.938 201.748C230.964 201.846 233.986 205.682 237.129 206.683" stroke="#EFD09C" stroke-width="4" stroke-miterlimit="10" stroke-linecap="round"/>
<path d="M234.926 199.945C234.971 200.039 236.583 203.155 239.85 203.62" stroke="#EFD09C" stroke-width="4" stroke-miterlimit="10" stroke-linecap="round"/>
<path d="M237.137 195.594C237.163 195.691 238.239 199.032 241.382 200.034" stroke="#EFD09C" stroke-width="4" stroke-miterlimit="10" stroke-linecap="round"/>
<path d="M161.482 139.736L161.602 139.612C161.629 139.576 161.642 139.532 161.639 139.487C161.635 139.442 161.616 139.399 161.584 139.367C161.552 139.336 161.51 139.316 161.465 139.313C161.42 139.31 161.375 139.323 161.339 139.35L161.215 139.47C161.18 139.505 161.16 139.553 161.16 139.603C161.16 139.653 161.18 139.701 161.215 139.736C161.251 139.772 161.299 139.791 161.348 139.791C161.398 139.791 161.446 139.772 161.482 139.736Z" fill="#FFD8C5"/>
<path d="M180.648 102.139C180.648 102.139 186.033 102.735 189.348 100.71C189.348 100.71 189.592 103.826 191.28 104.835L191.332 106.515C191.332 106.515 192.082 104.479 193.852 105.413C195.622 106.346 194.763 109.309 192.795 109.871L194.493 116.955C194.676 117.714 195.14 118.375 195.792 118.806C196.443 119.236 197.234 119.403 198.003 119.273C200.473 118.883 202.865 118.106 205.091 116.97L203.902 112.729L206.182 116.479C207.61 115.894 208.972 115.161 210.247 114.293C210.384 114.192 210.494 114.058 210.566 113.903C210.638 113.749 210.671 113.579 210.66 113.409C210.65 113.239 210.597 113.074 210.506 112.93C210.416 112.786 210.291 112.666 210.142 112.583C206.887 110.745 204.338 107.875 202.897 104.426C200.017 97.3914 196.38 94.9614 191.936 95.6627C191.161 95.7939 190.37 95.7939 189.596 95.6627C187.713 95.3327 183.581 95.4789 180.648 102.139Z" fill="#041427"/>
<path d="M184.5 131L161.327 154.16C159.561 156.256 156.88 155.214 155.421 152.892C151.296 146.304 146.447 133.141 143.59 119.322" stroke="#005AAA" stroke-width="20" stroke-miterlimit="10"/>
<path d="M137.471 96.9995C160.015 96.9995 178.29 82.5792 178.29 64.7908C178.29 47.0024 160.015 32.582 137.471 32.582C114.928 32.582 96.6523 47.0024 96.6523 64.7908C96.6523 82.5792 114.928 96.9995 137.471 96.9995Z" fill="#C9DCEE"/>
<path d="M163.009 82.9174C162.861 85.8202 163.403 88.7169 164.591 91.3694C165.779 94.022 167.58 96.3547 169.845 98.1762C169.845 98.1762 146.97 101.611 139.227 81.4512" fill="#C9DCEE"/>
<path d="M137.477 81.567C146.741 81.567 154.251 74.0572 154.251 64.7933C154.251 55.5294 146.741 48.0195 137.477 48.0195C128.213 48.0195 120.703 55.5294 120.703 64.7933C120.703 74.0572 128.213 81.567 137.477 81.567Z" fill="#2791E0"/>
<path d="M146.247 61.8257C145.366 61.2717 144.343 60.9832 143.302 60.9945C142.26 61.0058 141.244 61.3165 140.375 61.8895C139.572 62.422 140.322 63.7195 141.125 63.187C141.763 62.747 142.518 62.5059 143.293 62.4939C144.069 62.4819 144.83 62.6995 145.482 63.1195C146.3 63.6332 147.054 62.3357 146.232 61.8257H146.247Z" fill="white"/>
<path d="M130.897 67.2094C132.867 68.4705 135.162 69.1273 137.501 69.0986C139.839 69.07 142.118 68.3572 144.056 67.0482C144.847 66.5044 144.097 65.2032 143.306 65.7544C141.597 66.9281 139.58 67.5696 137.507 67.5983C135.434 67.627 133.399 67.0416 131.659 65.9157C130.849 65.3832 130.095 66.6844 130.909 67.2094H130.897Z" fill="white"/>
<path d="M129.75 63.1195C130.402 62.6995 131.164 62.4819 131.939 62.4939C132.715 62.5059 133.469 62.747 134.108 63.187C134.914 63.7195 135.668 62.437 134.858 61.8895C133.988 61.3165 132.972 61.0058 131.931 60.9945C130.89 60.9832 129.867 61.2717 128.985 61.8257C128.168 62.3357 128.921 63.6332 129.735 63.1195H129.75Z" fill="white"/>
<path d="M173.367 134.271C172.122 137.102 172.036 140.185 172.122 143.248C172.223 146.815 172.358 150.373 172.478 153.943C172.478 154.183 172.853 154.183 172.853 153.943L172.516 143.908C172.414 140.721 172.362 137.443 173.693 134.473C173.791 134.252 173.468 134.065 173.367 134.282V134.271Z" fill="#041427"/>
<path d="M157.784 143.779L159.377 142.436C159.561 142.282 159.295 142.02 159.111 142.174L157.521 143.512C157.334 143.67 157.6 143.932 157.784 143.779Z" fill="#041427"/>
<path d="M204.797 131.787C205.588 133.861 222.024 148.891 226.787 158.787C231.549 168.683 231.553 190.306 231.553 190.306" stroke="#005AAA" stroke-width="20" stroke-miterlimit="10"/>
<path d="M206.814 150.987L212.48 155.592C212.668 155.742 212.934 155.479 212.746 155.326L207.08 150.721C206.893 150.571 206.626 150.833 206.814 150.987Z" fill="#041427"/>
<path d="M203.7 147.977C203.75 147.977 203.798 147.957 203.834 147.922C203.869 147.886 203.889 147.838 203.889 147.788C203.889 147.738 203.869 147.69 203.834 147.655C203.798 147.619 203.75 147.6 203.7 147.6C203.65 147.6 203.602 147.619 203.567 147.655C203.532 147.69 203.512 147.738 203.512 147.788C203.512 147.838 203.532 147.886 203.567 147.922C203.602 147.957 203.65 147.977 203.7 147.977Z" fill="#041427"/>
<path d="M202.236 143.213C202.286 143.213 202.334 143.193 202.369 143.158C202.404 143.123 202.424 143.075 202.424 143.025C202.424 142.975 202.404 142.927 202.369 142.891C202.334 142.856 202.286 142.836 202.236 142.836C202.186 142.836 202.138 142.856 202.102 142.891C202.067 142.927 202.047 142.975 202.047 143.025C202.047 143.075 202.067 143.123 202.102 143.158C202.138 143.193 202.186 143.213 202.236 143.213Z" fill="#041427"/>
<path d="M202.962 137.717C203.012 137.717 203.06 137.697 203.096 137.662C203.131 137.627 203.151 137.579 203.151 137.529C203.151 137.478 203.131 137.43 203.096 137.395C203.06 137.36 203.012 137.34 202.962 137.34C202.912 137.34 202.864 137.36 202.829 137.395C202.793 137.43 202.773 137.478 202.773 137.529C202.773 137.579 202.793 137.627 202.829 137.662C202.864 137.697 202.912 137.717 202.962 137.717Z" fill="#041427"/>
<path d="M194.943 164.624L203.028 169.472C203.113 169.511 203.209 169.516 203.297 169.488C203.386 169.459 203.46 169.399 203.507 169.319C203.554 169.239 203.569 169.144 203.55 169.053C203.531 168.962 203.479 168.882 203.403 168.827L195.318 163.979C195.234 163.94 195.138 163.935 195.05 163.963C194.961 163.991 194.887 164.052 194.84 164.132C194.793 164.212 194.778 164.307 194.797 164.398C194.816 164.488 194.868 164.569 194.943 164.624Z" fill="#041427"/>
<path d="M239.486 138.921C238.106 138.171 210.627 120.327 200.075 122.776C189.522 125.224 195.713 160.538 207.252 182.569" stroke="#2791E0" stroke-width="6" stroke-miterlimit="10"/>
</svg>
