<svg width="25" height="24" viewBox="0 0 25 24" fill="none" xmlns="http://www.w3.org/2000/svg">
<path d="M9.49023 11.6998C10.262 13.2935 11.5507 14.579 13.1465 15.3467C13.2642 15.4024 13.3944 15.4265 13.5242 15.4167C13.6541 15.4068 13.7792 15.3633 13.8871 15.2904L16.2309 13.7248C16.3344 13.6546 16.4541 13.6117 16.5787 13.6002C16.7033 13.5887 16.8287 13.609 16.9434 13.6592L21.3309 15.5435C21.4808 15.6059 21.6061 15.7159 21.6874 15.8565C21.7687 15.9971 21.8016 16.1606 21.7809 16.3217C21.6418 17.407 21.112 18.4046 20.2906 19.1276C19.4693 19.8506 18.4126 20.2495 17.3184 20.2498C13.9368 20.2498 10.6938 18.9065 8.30275 16.5154C5.91166 14.1243 4.56836 10.8813 4.56836 7.49979C4.56861 6.40553 4.96756 5.34886 5.69057 4.5275C6.41358 3.70613 7.4111 3.17635 8.49648 3.03729C8.65758 3.01659 8.82102 3.04943 8.96162 3.13074C9.10222 3.21206 9.2122 3.33733 9.27461 3.48729L11.159 7.88416C11.208 7.99699 11.2285 8.12013 11.2187 8.24275C11.2089 8.36537 11.1691 8.48369 11.1027 8.58729L9.53711 10.9685C9.46741 11.0762 9.4265 11.2 9.41829 11.328C9.41008 11.4561 9.43485 11.5841 9.49023 11.6998Z" stroke="#041427" stroke-width="1.5" stroke-linecap="round" stroke-linejoin="round"/>
<path d="M16.5684 4.5H20.3184V8.25" stroke="#041427" stroke-width="1.5" stroke-linecap="round" stroke-linejoin="round"/>
<path d="M15.8184 9L20.3184 4.5" stroke="#041427" stroke-width="1.5" stroke-linecap="round" stroke-linejoin="round"/>
</svg>
