<svg width="220" height="220" viewBox="0 0 220 220" fill="none" xmlns="http://www.w3.org/2000/svg">
<path d="M159.638 131.423H105.879C105.453 131.423 105.033 131.325 104.651 131.136C104.27 130.947 103.937 130.672 103.679 130.333C103.421 129.994 103.244 129.601 103.164 129.183C103.083 128.764 103.1 128.333 103.213 127.923L126.783 42.1226C126.944 41.5382 127.292 41.0227 127.774 40.6554C128.257 40.2881 128.846 40.0894 129.452 40.0898H183.211C183.637 40.0898 184.057 40.1881 184.439 40.3771C184.821 40.5661 185.153 40.8407 185.412 41.1795C185.67 41.5182 185.846 41.912 185.927 42.3302C186.008 42.7483 185.991 43.1795 185.878 43.59L162.307 129.39C162.146 129.974 161.798 130.49 161.316 130.857C160.834 131.224 160.244 131.423 159.638 131.423Z" fill="#B3CAFF"/>
<path d="M125.164 96.4492H159.04" stroke="#041427" stroke-width="2" stroke-miterlimit="10" stroke-linecap="round"/>
<path d="M128.656 81.6562H162.532" stroke="#041427" stroke-width="2" stroke-miterlimit="10" stroke-linecap="round"/>
<path d="M132.148 66.8652H166.024" stroke="#041427" stroke-width="2" stroke-miterlimit="10" stroke-linecap="round"/>
<path d="M84.3906 190.427C84.3906 190.427 86.1506 199.717 86.6676 204.3C86.7011 204.596 86.8422 204.869 87.0641 205.068C87.2859 205.267 87.5731 205.377 87.871 205.378H101.639C101.827 205.379 102.011 205.323 102.167 205.218C102.323 205.113 102.445 204.964 102.516 204.79C102.587 204.616 102.604 204.424 102.565 204.24C102.527 204.056 102.434 203.888 102.299 203.757C100.407 201.922 97.5488 203.336 97.089 194.737C96.7568 188.522 95.857 182.271 95.857 182.271" fill="#3A3144"/>
<path d="M84.3906 190.427C84.3906 190.427 86.1506 199.717 86.6676 204.3C86.7011 204.596 86.8422 204.869 87.0641 205.068C87.2859 205.267 87.5731 205.377 87.871 205.378H101.639C101.827 205.379 102.011 205.323 102.167 205.218C102.323 205.113 102.445 204.964 102.516 204.79C102.587 204.616 102.604 204.424 102.565 204.24C102.527 204.056 102.434 203.888 102.299 203.757C100.407 201.922 97.5488 203.336 97.089 194.737C96.7568 188.522 95.857 182.271 95.857 182.271" fill="#041427"/>
<path d="M97.793 194.498C97.3134 191.299 96.2904 188.301 96.1012 185.918L87.9612 187.876L84.3906 190.426C84.3906 190.426 84.923 193.246 85.4906 196.544C87.871 196.214 93.5602 195.585 97.1506 195.138C97.8172 195.094 97.8128 194.632 97.793 194.498Z" fill="#005AAA"/>
<path d="M96.3421 197.978C96.7801 197.765 97.2426 197.605 97.7193 197.503C97.8557 197.472 97.7985 197.259 97.6599 197.283C97.166 197.392 96.6868 197.559 96.2321 197.78C96.1045 197.842 96.2167 198.033 96.3421 197.972V197.978Z" fill="#C9DCEE"/>
<path d="M96.6394 199.389C97.0945 199.17 97.5769 199.012 98.0738 198.92C98.2124 198.896 98.153 198.683 98.0144 198.7C97.4999 198.796 97.0004 198.96 96.5294 199.189C96.4018 199.25 96.5118 199.442 96.6394 199.38V199.389Z" fill="#C9DCEE"/>
<path d="M97.378 200.819C97.7535 200.608 98.1573 200.453 98.577 200.357C98.7156 200.324 98.6584 200.112 98.5198 200.137C98.0812 200.239 97.6591 200.402 97.2658 200.621C97.2404 200.636 97.222 200.66 97.2145 200.688C97.2071 200.717 97.2113 200.747 97.2262 200.772C97.241 200.798 97.2654 200.816 97.2939 200.824C97.3223 200.831 97.3526 200.827 97.378 200.812V200.819Z" fill="#C9DCEE"/>
<path d="M71.5 104.279C71.5 104.279 86.5522 155.94 90.7762 193.819" stroke="#082241" stroke-width="30" stroke-miterlimit="10"/>
<path d="M39.4509 182.933C39.4509 182.933 36.0893 191.772 34.1357 195.95C34.011 196.219 33.9894 196.524 34.0749 196.808C34.1605 197.092 34.3473 197.335 34.5999 197.49L46.3303 204.686C46.4902 204.785 46.6758 204.833 46.8633 204.826C47.0509 204.818 47.232 204.755 47.3834 204.644C47.5348 204.533 47.6496 204.379 47.7132 204.202C47.7769 204.026 47.7864 203.834 47.7405 203.652C47.0805 201.098 43.9103 200.808 48.0155 193.235C50.9833 187.764 53.4847 181.967 53.4847 181.967" fill="#3A3144"/>
<path d="M39.4509 182.933C39.4509 182.933 36.0893 191.772 34.1357 195.95C34.011 196.219 33.9894 196.524 34.0749 196.808C34.1605 197.092 34.3473 197.335 34.5999 197.49L46.3303 204.686C46.4902 204.785 46.6758 204.833 46.8633 204.826C47.0509 204.818 47.232 204.755 47.3834 204.644C47.5348 204.533 47.6496 204.379 47.7132 204.202C47.7769 204.026 47.7864 203.834 47.7405 203.652C47.0805 201.098 43.9103 200.808 48.0155 193.235C50.9833 187.764 53.4847 181.967 53.4847 181.967" fill="#041427"/>
<path d="M48.7473 193.411C50.0101 190.434 50.7075 187.343 51.7855 185.218L43.8259 182.633L39.4523 182.932C39.4523 182.932 38.4315 185.614 37.1797 188.72C39.3797 189.684 44.5607 192.121 47.8629 193.624C48.4547 193.932 48.6945 193.536 48.7473 193.411Z" fill="#005AAA"/>
<path d="M45.6954 195.618C46.1792 195.666 46.6555 195.772 47.1144 195.932C47.2486 195.979 47.3058 195.765 47.1738 195.712C46.6951 195.549 46.199 195.441 45.6954 195.391C45.5546 195.378 45.5546 195.598 45.6954 195.611V195.618Z" fill="#C9DCEE"/>
<path d="M45.2063 196.975C45.7084 197.026 46.2013 197.144 46.6715 197.327C46.8057 197.378 46.8629 197.165 46.7309 197.107C46.2411 196.92 45.7283 196.799 45.2063 196.749C45.0655 196.733 45.0677 196.953 45.2063 196.969V196.975Z" fill="#C9DCEE"/>
<path d="M45.0856 198.578C45.5161 198.596 45.942 198.675 46.3506 198.812C46.4848 198.858 46.5442 198.644 46.41 198.592C45.9836 198.449 45.5392 198.368 45.09 198.35C44.9492 198.35 44.9492 198.57 45.09 198.57L45.0856 198.578Z" fill="#C9DCEE"/>
<path d="M71.0395 99.2188C71.0395 99.2188 68.8925 120.339 61.5115 147.282C58.2467 159.197 57.8837 160.361 44.0391 189.837" stroke="#082241" stroke-width="30" stroke-miterlimit="10"/>
<path d="M70.2886 111.661C77.1401 111.661 82.6944 106.107 82.6944 99.2554C82.6944 92.4039 77.1401 86.8496 70.2886 86.8496C63.4371 86.8496 57.8828 92.4039 57.8828 99.2554C57.8828 106.107 63.4371 111.661 70.2886 111.661Z" fill="#082241"/>
<path d="M70.4663 67.5664L70.2969 73.788" stroke="#EFD09C" stroke-width="6" stroke-miterlimit="10"/>
<path d="M69.6445 70.5783C70.878 71.4246 72.3814 71.7836 73.8641 71.5859L73.9807 68.9062L73.5891 68.9349" fill="#D6AD6A"/>
<path d="M70.3282 57.0561C71.7433 56.9512 73.1421 57.4127 74.217 58.3392C75.2918 59.2657 75.9546 60.5812 76.0595 61.9963L76.3298 65.6427C76.3775 66.2849 76.2978 66.9303 76.0955 67.5417C75.8931 68.1531 75.5721 68.7185 75.1507 69.2056C74.7294 69.6926 74.216 70.0917 73.6401 70.3799C73.0642 70.6682 72.437 70.8398 71.7946 70.8851C71.0337 70.9416 70.2691 70.8475 69.5445 70.6085C68.82 70.3694 68.1496 69.99 67.5716 69.4918C66.9937 68.9936 66.5195 68.3865 66.1762 67.7051C65.8329 67.0237 65.6272 66.2813 65.5707 65.5204L65.3682 62.7889C65.3162 62.0866 65.4033 61.3808 65.6246 60.7122C65.8459 60.0436 66.197 59.4252 66.6578 58.8926C67.1186 58.36 67.68 57.9236 68.3099 57.6084C68.9397 57.2933 69.6256 57.1056 70.3282 57.0561Z" fill="#EFD09C"/>
<path d="M74.7422 60.0922C74.7422 60.0922 75.07 62.8444 75.9148 63.632C76.3284 64.0192 77.4812 61.0404 76.4516 59.7578" fill="#041427"/>
<path d="M77.4529 63.1267C77.7455 64.2091 77.0481 65.9867 75.6929 66.0923L75.0989 63.0453C75.0593 62.8407 76.0053 62.3633 76.1725 62.3325C76.3089 62.2933 76.452 62.2831 76.5926 62.3026C76.7332 62.3221 76.8682 62.3708 76.9888 62.4456C77.1094 62.5205 77.213 62.6197 77.2929 62.737C77.3729 62.8543 77.4273 62.987 77.4529 63.1267Z" fill="#EFD09C"/>
<path d="M65.4345 58.8613C65.4345 58.8613 64.2509 60.3287 64.3235 61.5651C64.3961 62.8015 65.0473 64.1105 65.0473 64.1105L66.0021 63.5011C66.0021 63.5011 67.4409 62.6211 66.8667 60.9931" fill="#041427"/>
<path d="M63.8985 64.129C63.7687 65.2444 64.7213 66.9054 66.0721 66.8042L66.2085 63.7022C66.2085 63.4954 65.2119 63.1632 65.0425 63.1566C64.9024 63.1387 64.7601 63.1503 64.6246 63.1906C64.4892 63.2309 64.3637 63.2989 64.256 63.3904C64.1484 63.4819 64.061 63.5948 63.9994 63.722C63.9379 63.8492 63.9035 63.9878 63.8985 64.129Z" fill="#EFD09C"/>
<path d="M56.673 76.0262L56.676 75.992L56.6742 75.9576C56.6024 74.5866 56.6418 73.8469 56.7736 73.4594C56.8321 73.2875 56.8914 73.2398 56.9214 73.2215C56.9607 73.1976 57.0454 73.1672 57.2402 73.1751C57.4362 73.1831 57.6869 73.2267 58.0226 73.2991C58.1461 73.3258 58.2866 73.3576 58.4382 73.3919C58.6703 73.4445 58.9285 73.503 59.1914 73.5577C60.0945 73.7458 61.2318 73.9307 62.6367 73.9296L62.6371 73.9296L74.8097 73.9098L74.8103 73.9098C78.6117 73.899 80.6008 74.919 81.5965 76.6982C82.633 78.5503 82.6943 81.3721 82.2021 85.2264L82.1912 85.3118L82.2094 85.3959L85.3686 99.9379L85.3686 99.9379L85.3702 99.945C85.415 100.137 85.4186 100.337 85.381 100.531C85.3433 100.725 85.2652 100.909 85.1518 101.07C85.0383 101.232 84.8921 101.368 84.7225 101.469C84.5609 101.566 84.3815 101.629 84.1951 101.655H84.1949H84.1945H84.1942H84.1939H84.1936H84.1933H84.193H84.1927H84.1924H84.1921H84.1918H84.1914H84.1911H84.1908H84.1905H84.1902H84.1899H84.1896H84.1893H84.189H84.1887H84.1883H84.188H84.1877H84.1874H84.1871H84.1868H84.1865H84.1862H84.1859H84.1856H84.1852H84.1849H84.1846H84.1843H84.184H84.1837H84.1834H84.1831H84.1828H84.1824H84.1821H84.1818H84.1815H84.1812H84.1809H84.1806H84.1803H84.18H84.1797H84.1793H84.179H84.1787H84.1784H84.1781H84.1778H84.1775H84.1772H84.1769H84.1765H84.1762H84.1759H84.1756H84.1753H84.175H84.1747H84.1744H84.1741H84.1738H84.1734H84.1731H84.1728H84.1725H84.1722H84.1719H84.1716H84.1713H84.171H84.1706H84.1703H84.17H84.1697H84.1694H84.1691H84.1688H84.1685H84.1682H84.1678H84.1675H84.1672H84.1669H84.1666H84.1663H84.166H84.1657H84.1654H84.165H84.1647H84.1644H84.1641H84.1638H84.1635H84.1632H84.1629H84.1625H84.1622H84.1619H84.1616H84.1613H84.161H84.1607H84.1604H84.1601H84.1597H84.1594H84.1591H84.1588H84.1585H84.1582H84.1579H84.1576H84.1573H84.1569H84.1566H84.1563H84.156H84.1557H84.1554H84.1551H84.1548H84.1544H84.1541H84.1538H84.1535H84.1532H84.1529H84.1526H84.1523H84.1519H84.1516H84.1513H84.151H84.1507H84.1504H84.1501H84.1498H84.1494H84.1491H84.1488H84.1485H84.1482H84.1479H84.1476H84.1473H84.1469H84.1466H84.1463H84.146H84.1457H84.1454H84.1451H84.1448H84.1444H84.1441H84.1438H84.1435H84.1432H84.1429H84.1426H84.1423H84.1419H84.1416H84.1413H84.141H84.1407H84.1404H84.1401H84.1397H84.1394H84.1391H84.1388H84.1385H84.1382H84.1379H84.1376H84.1372H84.1369H84.1366H84.1363H84.136H84.1357H84.1354H84.135H84.1347H84.1344H84.1341H84.1338H84.1335H84.1332H84.1329H84.1325H84.1322H84.1319H84.1316H84.1313H84.131H84.1307H84.1303H84.13H84.1297H84.1294H84.1291H84.1288H84.1285H84.1281H84.1278H84.1275H84.1272H84.1269H84.1266H84.1263H84.1259H84.1256H84.1253H84.125H84.1247H84.1244H84.1241H84.1237H84.1234H84.1231H84.1228H84.1225H84.1222H84.1218H84.1215H84.1212H84.1209H84.1206H84.1203H84.12H84.1196H84.1193H84.119H84.1187H84.1184H84.1181H84.1177H84.1174H84.1171H84.1168H84.1165H84.1162H84.1159H84.1155H84.1152H84.1149H84.1146H84.1143H84.114H84.1136H84.1133H84.113H84.1127H84.1124H84.1121H84.1117H84.1114H84.1111H84.1108H84.1105H84.1102H84.1098H84.1095H84.1092H84.1089H84.1086H84.1083H84.108H84.1076H84.1073H84.107H84.1067H84.1064H84.1061H84.1057H84.1054H84.1051H84.1048H84.1045H84.1042H84.1038H84.1035H84.1032H84.1029H84.1026H84.1022H84.1019H84.1016H84.1013H84.101H84.1007H84.1003H84.1H84.0997H84.0994H84.0991H84.0988H84.0984H84.0981H84.0978H84.0975H84.0972H84.0968H84.0965H84.0962H84.0959H84.0956H84.0953H84.0949H84.0946H84.0943H84.094H84.0937H84.0933H84.093H84.0927H84.0924H84.0921H84.0918H84.0914H84.0911H84.0908H84.0905H84.0902H84.0898H84.0895H84.0892H84.0889H84.0886H84.0882H84.0879H84.0876H84.0873H84.087H84.0867H84.0863H84.086H84.0857H84.0854H84.0851H84.0847H84.0844H84.0841H84.0838H84.0835H84.0831H84.0828H84.0825H84.0822H84.0819H84.0815H84.0812H84.0809H84.0806H84.0803H84.0799H84.0796H84.0793H84.079H84.0787H84.0783H84.078H84.0777H84.0774H84.0771H84.0767H84.0764H84.0761H84.0758H84.0755H84.0751H84.0748H84.0745H84.0742H84.0738H84.0735H84.0732H84.0729H84.0726H84.0722H84.0719H84.0716H84.0713H84.071H84.0706H84.0703H84.07H84.0697H84.0693H84.069H84.0687H84.0684H84.0681H84.0677H84.0674H84.0671H84.0668L84.0664 101.655L84.0613 101.655L56.0531 101.943H56.0531C55.6759 101.947 55.3119 101.805 55.0369 101.547C54.7698 101.296 54.6068 100.954 54.5796 100.59L56.673 76.0262Z" fill="#005AAA" stroke="#005AAA"/>
<path d="M110.863 85.5149L115.875 91.5363C115.875 91.5363 122.642 86.0715 119.536 82.7649C116.429 79.4583 110.863 85.5149 110.863 85.5149Z" fill="#EFD09C"/>
<path d="M121.621 78.0862C119.642 80.1316 117.175 81.6397 114.453 82.4686C113.644 82.715 113.989 83.991 114.805 83.7424C117.746 82.8493 120.412 81.224 122.554 79.019C123.145 78.4096 122.215 77.479 121.621 78.0862Z" fill="#EFD09C"/>
<path d="M122.497 80.0145C120.927 81.3629 119.25 82.5806 117.481 83.6555C116.757 84.0955 117.419 85.2395 118.141 84.7951C120.002 83.6618 121.768 82.3794 123.421 80.9605C124.066 80.4039 123.128 79.4755 122.488 80.0255L122.497 80.0145Z" fill="#EFD09C"/>
<path d="M122.177 82.7208C121.004 83.6169 119.802 84.4676 118.573 85.2728C117.865 85.7348 118.525 86.8788 119.233 86.4124C120.467 85.6072 121.668 84.7565 122.837 83.8604C123.497 83.35 122.837 82.2038 122.177 82.7208Z" fill="#EFD09C"/>
<path d="M121.827 85.2375C121.161 85.7332 120.496 86.2312 119.831 86.7313C118.67 87.6113 117.37 88.2361 116.056 88.8477C115.286 89.2063 115.955 90.3437 116.716 89.9873C118.036 89.3757 119.332 88.7487 120.494 87.8709C121.155 87.3693 121.82 86.8714 122.489 86.3771C123.164 85.8777 122.507 84.7315 121.829 85.2375H121.827Z" fill="#EFD09C"/>
<path d="M133.289 72.2553L74.454 17.1211C73.2706 16.012 71.816 15.2339 70.2365 14.8651C68.657 14.4963 67.0083 14.5497 65.456 15.0201C63.9041 15.4909 62.5033 16.3618 61.3946 17.5455C60.2859 18.7291 59.5083 20.1837 59.1398 21.7631C58.7715 23.3426 58.8255 24.9912 59.2962 26.5433C59.767 28.0953 60.638 29.4961 61.8216 30.6049L120.654 85.7391C122.465 87.4357 125.17 88.6459 127.5 89.5L145.595 96.4487L137.5 79C136.5 76.5 135.1 73.9517 133.289 72.2553Z" fill="#2791E0"/>
<path d="M72.1263 22.5949L67.1289 27.9277L127.122 84.1473L132.12 78.8145L72.1263 22.5949Z" fill="#C9DCEE"/>
<path d="M123.668 87.8344C125.19 88.7726 126.803 89.5546 128.482 90.1686L145.606 96.4474L138.23 79.767C137.507 78.1353 136.623 76.5802 135.59 75.125L123.668 87.8344Z" fill="#EFD09C"/>
<path d="M141.811 87.8965L136.812 93.2293L145.593 96.4479L141.811 87.8965Z" fill="#082241"/>
<path d="M65.456 15.0204C63.904 15.4912 62.5033 16.3622 61.3946 17.5458C60.2859 18.7294 59.5082 20.184 59.1398 21.7634C58.6975 23.2508 58.6779 24.8318 59.0831 26.3297C59.4884 27.8275 60.3025 29.183 61.4344 30.2444L66.5494 35.0382L79.184 21.561L74.454 17.128C73.2712 16.0178 71.8169 15.2385 70.2374 14.8685C68.6579 14.4985 67.0088 14.5509 65.456 15.0204Z" fill="#041427"/>
<path d="M115.482 79.0201C114.47 80.6525 113.339 82.2189 112.259 83.8095C111.621 84.7467 113.139 85.6289 113.779 84.6895C114.859 83.1011 115.979 81.5347 117 79.9001C117.598 78.9343 116.076 78.0499 115.482 79.0201Z" fill="#EFD09C"/>
<path d="M71.4998 65.7394C71.5308 65.6991 71.5712 65.6668 71.6174 65.6455C71.6636 65.6242 71.7144 65.6144 71.7652 65.617C71.816 65.6196 71.8655 65.6345 71.9093 65.6604C71.9531 65.6863 71.99 65.7225 72.0168 65.7658C72.1928 65.9858 72.503 65.6756 72.3292 65.4556C72.2545 65.3644 72.1595 65.2919 72.0517 65.2442C71.9439 65.1964 71.8264 65.1747 71.7086 65.1807C71.5909 65.1867 71.4762 65.2202 71.3738 65.2787C71.2714 65.3372 71.1842 65.4189 71.1192 65.5172C70.952 65.7372 71.3392 65.9572 71.4998 65.7372V65.7394Z" fill="#041427"/>
<path d="M70.4162 66.8803C70.7593 67.083 71.156 67.1767 71.5536 67.1487C71.8352 67.1289 71.8374 66.6889 71.5536 66.7087C71.2343 66.7341 70.915 66.6611 70.6384 66.4997C70.5881 66.4734 70.5296 66.4675 70.4751 66.4833C70.4206 66.4991 70.3743 66.5354 70.3459 66.5845C70.3175 66.6336 70.3092 66.6918 70.3227 66.7469C70.3362 66.8021 70.3705 66.8498 70.4184 66.8803H70.4162Z" fill="#041427"/>
<path d="M69.3013 64.9267C69.5151 64.9267 69.6885 64.7534 69.6885 64.5395C69.6885 64.3257 69.5151 64.1523 69.3013 64.1523C69.0874 64.1523 68.9141 64.3257 68.9141 64.5395C68.9141 64.7534 69.0874 64.9267 69.3013 64.9267Z" fill="#041427"/>
<path d="M73.9927 64.5791C74.2065 64.5791 74.3799 64.4057 74.3799 64.1919C74.3799 63.978 74.2065 63.8047 73.9927 63.8047C73.7788 63.8047 73.6055 63.978 73.6055 64.1919C73.6055 64.4057 73.7788 64.5791 73.9927 64.5791Z" fill="#041427"/>
<path d="M68.8767 63.2346C69.0787 63.1885 69.2855 63.1663 69.4927 63.1686C69.5511 63.1686 69.607 63.1454 69.6483 63.1041C69.6895 63.0629 69.7127 63.0069 69.7127 62.9486C69.7127 62.8902 69.6895 62.8343 69.6483 62.793C69.607 62.7518 69.5511 62.7286 69.4927 62.7286C69.2462 62.727 69.0003 62.7543 68.7601 62.81C68.4829 62.8738 68.5995 63.2984 68.8767 63.2346Z" fill="#041427"/>
<path d="M73.552 62.8692C73.7498 62.8417 73.9504 62.8417 74.1482 62.8692C74.1761 62.8769 74.2052 62.879 74.2339 62.8754C74.2626 62.8718 74.2903 62.8626 74.3155 62.8483C74.3406 62.834 74.3627 62.8149 74.3804 62.7921C74.3981 62.7692 74.4112 62.7431 74.4188 62.7152C74.4344 62.6592 74.4272 62.5993 74.3988 62.5486C74.3703 62.4979 74.323 62.4605 74.267 62.4446C74.0303 62.408 73.7897 62.4043 73.552 62.4336C73.4937 62.4336 73.4377 62.4568 73.3965 62.4981C73.3552 62.5393 73.332 62.5953 73.332 62.6536C73.332 62.712 73.3552 62.7679 73.3965 62.8092C73.4377 62.8504 73.4937 62.8736 73.552 62.8736V62.8692Z" fill="#041427"/>
<path d="M65.6646 58.3385C65.6646 58.3385 67.6732 56.2375 72.1612 56.7589C76.6492 57.2803 77.2454 56.4267 77.0562 58.3341C76.68 62.1093 67.715 62.3975 65.9726 61.1061C64.2302 59.8147 65.6646 58.3385 65.6646 58.3385Z" fill="#041427"/>
<path d="M74.0863 124.278C74.2977 129.001 73.7276 133.725 72.3989 138.262C72.3879 138.316 72.3978 138.373 72.4268 138.42C72.4557 138.467 72.5015 138.502 72.555 138.517C72.6084 138.532 72.6656 138.526 72.715 138.501C72.7644 138.476 72.8024 138.433 72.8213 138.38C74.1606 133.805 74.7359 129.041 74.5241 124.278C74.5109 123.997 74.0709 123.995 74.0841 124.278H74.0863Z" fill="#C9DCEE"/>
<path d="M80.6654 83.821C80.6947 83.821 80.7229 83.8093 80.7437 83.7886C80.7644 83.7678 80.7761 83.7397 80.7761 83.7103C80.7761 83.6809 80.7644 83.6528 80.7437 83.632C80.7229 83.6113 80.6947 83.5996 80.6654 83.5996C80.636 83.5996 80.6079 83.6113 80.5871 83.632C80.5664 83.6528 80.5547 83.6809 80.5547 83.7103C80.5547 83.7397 80.5664 83.7678 80.5871 83.7886C80.6079 83.8093 80.636 83.821 80.6654 83.821Z" fill="#4F8AE0"/>
<path d="M77.0859 81.1992C78.3751 81.1992 92.8269 98.0842 100.138 97.7982C107.448 97.5122 115.619 88.8992 115.619 88.8992" stroke="#005AAA" stroke-width="15" stroke-miterlimit="10"/>
<path d="M57.3438 32.9994L63.4619 37.8944C63.4619 37.8944 68.9949 31.1822 65.2879 28.5664C61.5809 25.9506 57.3438 32.9994 57.3438 32.9994Z" fill="#EFD09C"/>
<path d="M66.3735 23.6028C64.8381 26.0008 62.7184 27.9691 60.2135 29.3228C59.4677 29.7276 60.1321 30.8628 60.8735 30.4624C63.5725 28.9919 65.854 26.8602 67.5043 24.2672C67.9619 23.55 66.8201 22.8878 66.3647 23.6072L66.3735 23.6028Z" fill="#EFD09C"/>
<path d="M67.7213 25.1829C66.4228 26.8625 64.9895 28.4334 63.4357 29.8799C62.8131 30.4607 63.7481 31.3935 64.3685 30.8149C65.9218 29.3671 67.3551 27.7955 68.6541 26.1157C68.7725 25.9893 68.8385 25.8226 68.8385 25.6493C68.8385 25.4761 68.7725 25.3093 68.6541 25.1829C68.4341 24.9629 67.9391 24.9013 67.7213 25.1829Z" fill="#EFD09C"/>
<path d="M67.8395 28.0251C66.8744 29.1413 65.8683 30.2127 64.8211 31.2393C64.2161 31.8377 65.1489 32.7793 65.7539 32.1721C66.8011 31.1455 67.8072 30.0719 68.7723 28.9513C69.3267 28.3111 68.3983 27.3739 67.8395 28.0163V28.0251Z" fill="#EFD09C"/>
<path d="M68.0035 30.5604C67.4623 31.1661 66.9233 31.7726 66.3865 32.3798C65.4284 33.415 64.3619 34.3444 63.2053 35.1518C62.5299 35.6512 63.1877 36.7974 63.8653 36.2914C65.0599 35.4114 66.2523 34.5182 67.2357 33.4006C67.7989 32.7626 68.3635 32.1275 68.9297 31.4954C69.4951 30.864 68.5645 29.9268 67.9969 30.5604H68.0035Z" fill="#EFD09C"/>
<path d="M60.5477 25.766C59.8877 27.57 59.0913 29.33 58.3477 31.1032C58.1651 31.5432 58.5457 32.0712 58.9615 32.1856C59.4697 32.3264 59.8613 32.0118 60.0439 31.5718C60.7853 29.7986 61.5839 28.0364 62.2439 26.2346C62.6355 25.1698 60.9349 24.71 60.5477 25.766Z" fill="#EFD09C"/>
<path d="M67.7044 82.035C67.7044 82.035 41.3594 70.5994 44.039 58.2507C46.7186 45.9021 62.31 34.4688 62.31 34.4688" stroke="#005AAA" stroke-width="15" stroke-miterlimit="10"/>
<mask id="path-56-inside-1_159_15748" fill="white">
<path d="M63.8867 73.815L64.4125 71.0408C64.4459 70.8627 64.546 70.7041 64.6924 70.5973C64.8387 70.4906 65.0204 70.4438 65.2001 70.4666L75.1001 71.7206C75.2856 71.7448 75.4541 71.8409 75.5694 71.9882C75.6846 72.1356 75.7373 72.3223 75.7161 72.5082L75.4257 74.9612"/>
</mask>
<path d="M63.8867 73.815L64.4125 71.0408C64.4459 70.8627 64.546 70.7041 64.6924 70.5973C64.8387 70.4906 65.0204 70.4438 65.2001 70.4666L75.1001 71.7206C75.2856 71.7448 75.4541 71.8409 75.5694 71.9882C75.6846 72.1356 75.7373 72.3223 75.7161 72.5082L75.4257 74.9612" fill="#005AAA"/>
<path d="M64.4125 71.0408L65.395 71.227L65.3954 71.2248L64.4125 71.0408ZM65.2001 70.4666L65.3258 69.4745L65.3256 69.4745L65.2001 70.4666ZM75.1001 71.7206L75.2295 70.729L75.2258 70.7285L75.1001 71.7206ZM75.7161 72.5082L76.7092 72.6257L76.7097 72.6215L75.7161 72.5082ZM64.8692 74.0012L65.395 71.227L63.43 70.8545L62.9042 73.6287L64.8692 74.0012ZM65.3954 71.2248C65.3819 71.2973 65.3411 71.3619 65.2815 71.4054L64.1032 69.7893C63.7508 70.0462 63.5099 70.4281 63.4296 70.8567L65.3954 71.2248ZM65.2815 71.4054C65.2218 71.4489 65.1479 71.4679 65.0747 71.4587L65.3256 69.4745C64.8929 69.4197 64.4557 69.5324 64.1032 69.7893L65.2815 71.4054ZM65.0745 71.4586L74.9745 72.7126L75.2258 70.7285L65.3258 69.4745L65.0745 71.4586ZM74.9708 72.7122C74.896 72.7024 74.8281 72.6637 74.7817 72.6043L76.3571 71.3722C76.0802 71.0181 75.6752 70.7871 75.2295 70.729L74.9708 72.7122ZM74.7817 72.6043C74.7353 72.5449 74.714 72.4697 74.7226 72.3948L76.7097 72.6215C76.7606 72.1749 76.634 71.7262 76.3571 71.3722L74.7817 72.6043ZM74.7231 72.3906L74.4327 74.8436L76.4188 75.0787L76.7092 72.6257L74.7231 72.3906Z" fill="#005AAA" mask="url(#path-56-inside-1_159_15748)"/>
<path d="M56.4638 82.3814L59.1038 83.301C59.3722 83.3956 59.4866 82.971 59.2204 82.8786L56.5804 81.959C56.312 81.8644 56.1976 82.289 56.4638 82.3814Z" fill="#041427"/>
<path d="M83.2494 86.9397C83.0799 88.838 83.2385 90.7514 83.718 92.5959C83.7334 92.6522 83.7706 92.7001 83.8214 92.729C83.8721 92.7578 83.9323 92.7654 83.9886 92.7499C84.0449 92.7345 84.0927 92.6973 84.1216 92.6465C84.1505 92.5958 84.158 92.5356 84.1426 92.4793C83.6748 90.6725 83.5215 88.7986 83.6894 86.9397C83.7136 86.6581 83.2736 86.6581 83.2494 86.9397Z" fill="#041427"/>
<path d="M72.6767 77.4998C72.9598 77.4998 73.1893 77.2703 73.1893 76.9872C73.1893 76.7041 72.9598 76.4746 72.6767 76.4746C72.3936 76.4746 72.1641 76.7041 72.1641 76.9872C72.1641 77.2703 72.3936 77.4998 72.6767 77.4998Z" fill="#EEF6FD"/>
<path d="M72.6767 82.1697C72.9598 82.1697 73.1893 81.9402 73.1893 81.6571C73.1893 81.374 72.9598 81.1445 72.6767 81.1445C72.3936 81.1445 72.1641 81.374 72.1641 81.6571C72.1641 81.9402 72.3936 82.1697 72.6767 82.1697Z" fill="#EEF6FD"/>
<path d="M72.6767 86.8416C72.9598 86.8416 73.1893 86.6121 73.1893 86.329C73.1893 86.0459 72.9598 85.8164 72.6767 85.8164C72.3936 85.8164 72.1641 86.0459 72.1641 86.329C72.1641 86.6121 72.3936 86.8416 72.6767 86.8416Z" fill="#EEF6FD"/>
</svg>
