<svg width="319" height="320" viewBox="0 0 319 320" fill="none" xmlns="http://www.w3.org/2000/svg">
<path d="M98.6385 147.224C96.5048 145.667 94.9258 147.338 94.9258 147.338L97.6101 149.761C97.6613 149.671 100.772 148.778 98.6385 147.224Z" fill="#041427"/>
<path d="M180.296 267.756L178.024 282.161C177.965 282.535 177.773 282.876 177.481 283.125C177.19 283.373 176.818 283.513 176.432 283.518H161.311C161.086 283.52 160.865 283.469 160.665 283.369C160.465 283.268 160.293 283.122 160.163 282.942C160.034 282.762 159.951 282.554 159.921 282.336C159.892 282.118 159.917 281.896 159.994 281.689C160.392 280.714 161.383 279.614 163.766 279.11C168.541 278.108 167.574 266.238 167.574 266.238" fill="#082241"/>
<path d="M165.743 276.18C166.277 276.407 166.775 276.708 167.222 277.075C167.407 277.229 167.677 276.966 167.489 276.812C167.02 276.42 166.495 276.098 165.931 275.858C165.709 275.767 165.517 276.088 165.743 276.18Z" fill="#2791E0"/>
<path d="M167.058 274.477C167.604 274.729 168.099 275.168 168.497 275.753C168.672 276.016 168.952 275.622 168.777 275.359C168.329 274.706 167.775 274.217 167.163 273.935C166.921 273.825 166.816 274.362 167.058 274.482V274.477Z" fill="#2791E0"/>
<path d="M167.083 272.891C167.576 272.983 168.048 273.107 168.49 273.258C168.743 273.346 168.974 273.126 168.725 273.038C168.248 272.876 167.738 272.744 167.205 272.646C166.92 272.593 166.798 272.838 167.083 272.896V272.891Z" fill="#2791E0"/>
<path d="M167.999 278.335L168.114 278.22C168.139 278.195 168.159 278.166 168.173 278.133C168.186 278.101 168.193 278.066 168.194 278.031C168.194 277.996 168.187 277.961 168.174 277.929C168.161 277.896 168.141 277.866 168.117 277.841C168.092 277.816 168.063 277.796 168.03 277.783C167.998 277.769 167.963 277.762 167.928 277.762C167.893 277.761 167.858 277.768 167.826 277.781C167.793 277.795 167.764 277.814 167.739 277.839L167.624 277.959C167.579 278.01 167.555 278.076 167.557 278.143C167.559 278.211 167.587 278.276 167.635 278.324C167.683 278.372 167.747 278.4 167.815 278.402C167.883 278.404 167.949 278.38 167.999 278.335Z" fill="#2791E0"/>
<path d="M235.457 256.639L245.49 267.464C245.753 267.747 245.903 268.114 245.914 268.496C245.925 268.879 245.796 269.253 245.55 269.55L235.949 281.083C235.809 281.256 235.628 281.393 235.421 281.482C235.215 281.571 234.989 281.61 234.764 281.596C234.538 281.581 234.32 281.513 234.127 281.398C233.934 281.283 233.773 281.124 233.657 280.934C233.133 280.016 232.885 278.566 233.997 276.428C236.221 272.161 226.165 265.408 226.165 265.408" fill="#082241"/>
<path d="M232.892 273.26C233.529 272.899 234.211 272.642 234.918 272.497C235.215 272.437 235.092 271.95 234.794 272.004C234.05 272.159 233.33 272.431 232.659 272.812C232.389 272.964 232.627 273.397 232.892 273.25V273.26Z" fill="#2791E0"/>
<path d="M232.255 271.335C232.844 271.131 233.518 271.007 234.218 270.975C234.527 270.96 234.532 270.702 234.218 270.722C233.433 270.754 232.676 270.889 232.012 271.115C231.751 271.206 232.012 271.429 232.255 271.34V271.335Z" fill="#2791E0"/>
<path d="M231.489 270.046C231.784 269.74 232.1 269.492 232.431 269.307C232.616 269.199 232.537 268.712 232.346 268.815C231.99 269.015 231.649 269.281 231.331 269.608C231.164 269.78 231.331 270.213 231.489 270.041V270.046Z" fill="#2791E0"/>
<path d="M236.354 272.4V272.24C236.317 271.922 235.669 271.917 235.725 272.24V272.4C235.769 272.718 236.417 272.723 236.354 272.4Z" fill="#2791E0"/>
<path d="M235.404 270.72C235.493 270.705 235.574 270.665 235.632 270.607C235.69 270.549 235.722 270.475 235.722 270.4C235.722 270.325 235.69 270.252 235.632 270.193C235.574 270.135 235.493 270.095 235.404 270.08C235.314 270.095 235.233 270.135 235.175 270.193C235.117 270.252 235.085 270.325 235.085 270.4C235.085 270.475 235.117 270.549 235.175 270.607C235.233 270.665 235.314 270.705 235.404 270.72Z" fill="#2791E0"/>
<path d="M198.137 186.881C198.137 186.881 202.488 224.579 211.862 238.127C221.237 251.676 234.451 264.961 234.451 264.961" stroke="#C9DCEE" stroke-width="20" stroke-miterlimit="10"/>
<path d="M150.992 175.245C150.345 174.716 149.666 174.227 148.961 173.779L146.245 169.55C146.139 169.37 145.966 169.239 145.764 169.186C145.563 169.133 145.349 169.161 145.168 169.266C144.99 169.373 144.861 169.546 144.809 169.748C144.756 169.95 144.784 170.165 144.886 170.347L146.178 172.35C145.818 172.215 145.45 172.104 145.077 172.017C143.391 171.292 141.701 170.443 140.417 169.137C139.885 168.593 139.05 169.434 139.587 169.978C140.466 170.842 141.47 171.567 142.564 172.129C142.185 172.286 141.843 172.521 141.558 172.818C140.602 172.336 139.673 171.801 138.776 171.216C138.709 171.177 138.635 171.151 138.558 171.14C138.481 171.129 138.403 171.134 138.328 171.154C138.253 171.174 138.183 171.208 138.121 171.255C138.06 171.302 138.008 171.361 137.969 171.428C137.929 171.496 137.904 171.57 137.893 171.647C137.883 171.725 137.887 171.803 137.907 171.879C137.926 171.954 137.96 172.025 138.007 172.087C138.054 172.15 138.112 172.202 138.179 172.241C139.051 172.806 139.952 173.323 140.879 173.791C140.73 174.118 140.646 174.47 140.632 174.829C139.89 174.507 139.177 174.121 138.501 173.675C138.434 173.636 138.361 173.61 138.284 173.599C138.207 173.589 138.129 173.593 138.054 173.613C137.979 173.633 137.909 173.667 137.847 173.714C137.785 173.761 137.733 173.82 137.694 173.888C137.655 173.955 137.629 174.029 137.619 174.107C137.608 174.184 137.613 174.263 137.632 174.338C137.652 174.414 137.686 174.484 137.733 174.547C137.78 174.609 137.838 174.661 137.905 174.701C138.844 175.317 139.848 175.826 140.898 176.219C141.064 176.609 141.275 176.979 141.527 177.32C140.759 177.008 139.984 176.707 139.209 176.423C139.06 176.38 138.9 176.399 138.764 176.474C138.628 176.548 138.526 176.674 138.481 176.823C138.442 176.973 138.462 177.132 138.536 177.268C138.61 177.403 138.733 177.505 138.879 177.552C140.354 178.097 141.813 178.682 143.252 179.319C143.361 179.37 143.481 179.394 143.602 179.387C144.434 180.039 145.32 180.619 146.249 181.121L150.992 175.245Z" fill="#D6AD6A"/>
<path d="M56.0627 207.242L45.2406 196.932C44.9566 196.662 44.5856 196.502 44.1947 196.483C43.8038 196.463 43.4187 196.584 43.1089 196.824L31.1291 206.147C30.95 206.284 30.8065 206.462 30.711 206.667C30.6154 206.872 30.5706 207.096 30.5804 207.322C30.5902 207.548 30.6543 207.768 30.7673 207.963C30.8802 208.159 31.0386 208.324 31.2289 208.444C32.1551 208.993 33.6241 209.278 35.8396 208.216C40.2507 206.087 46.9132 216.32 46.9132 216.32" fill="#2791E0"/>
<path d="M42.3404 209.351C41.9692 209.789 41.6626 210.293 41.4325 210.843C41.3154 211.114 41.671 211.353 41.7881 211.076C42.0011 210.565 42.2835 210.095 42.6249 209.685C42.8089 209.465 42.5161 209.132 42.332 209.351H42.3404Z" fill="#041427"/>
<path d="M40.4486 208.08C40.0509 208.478 39.7329 208.987 39.5197 209.566C39.4178 209.834 39.7388 210.07 39.8407 209.801C40.038 209.252 40.3354 208.767 40.7092 208.386C40.898 208.198 40.6337 207.868 40.4486 208.056V208.08Z" fill="#041427"/>
<path d="M39.1422 207.406C38.7667 207.691 38.4634 208.027 38.2478 208.397C38.1391 208.581 38.4985 208.746 38.603 208.559C38.8038 208.212 39.0874 207.898 39.4389 207.632C39.6311 207.49 39.3386 207.264 39.1463 207.406H39.1422Z" fill="#041427"/>
<path d="M89.7357 184.32C89.7357 184.32 93.5981 229.488 83.5304 232.134C73.4626 234.78 47.1416 208.332 47.1416 208.332" stroke="#005AAA" stroke-width="20" stroke-miterlimit="10"/>
<path d="M108.307 267.756L110.572 282.161C110.632 282.539 110.828 282.883 111.124 283.132C111.42 283.381 111.796 283.518 112.186 283.518H127.291C127.516 283.521 127.738 283.47 127.938 283.37C128.139 283.27 128.311 283.124 128.44 282.944C128.57 282.763 128.653 282.555 128.682 282.336C128.711 282.118 128.685 281.895 128.607 281.689C128.21 280.714 127.224 279.614 124.839 279.11C120.069 278.108 121.039 266.238 121.039 266.238" fill="#2791E0"/>
<path d="M90.1491 195.839C96.3066 195.839 101.298 190.825 101.298 184.639C101.298 178.454 96.3066 173.439 90.1491 173.439C83.9916 173.439 79 178.454 79 184.639C79 190.825 83.9916 195.839 90.1491 195.839Z" fill="#005AAA"/>
<path d="M90.0117 189.439C90.0117 189.439 105.833 219.502 108.459 231.144C111.086 242.786 114.678 270.719 114.678 270.719" stroke="#005AAA" stroke-width="20" stroke-miterlimit="10"/>
<path d="M93.1951 154.881L91.9209 161.281" stroke="#EFD09C" stroke-width="6" stroke-miterlimit="10"/>
<path d="M93.231 156.532C94.5332 159.375 95.2726 159.273 95.2726 159.273L96.2763 156.548C96.2763 156.548 92.3043 154.508 93.231 156.532Z" fill="#D6AD6A"/>
<path d="M95.3347 160.482L87.5445 160.014C85.5518 159.894 83.5879 160.537 82.0514 161.813C80.5149 163.088 79.5207 164.901 79.2706 166.884L77.0962 184.135C77.071 184.337 77.0883 184.541 77.1471 184.735C77.2059 184.93 77.3048 185.109 77.4375 185.263C77.5701 185.416 77.7336 185.54 77.9172 185.627C78.1008 185.713 78.3004 185.759 78.5032 185.763L101.978 186.24C102.52 186.25 103.045 186.046 103.438 185.672C103.831 185.297 104.061 184.782 104.076 184.239L104.476 170.472C104.548 167.945 103.634 165.488 101.928 163.624C100.221 161.759 97.8566 160.632 95.3347 160.482Z" fill="#082241"/>
<path d="M137.797 180.48L133.153 174.765C133.153 174.765 140.016 169.043 142.757 172.794C145.498 176.546 137.797 180.48 137.797 180.48Z" fill="#EFD09C"/>
<path d="M138.022 169.298L134.556 174.275C134.002 175.074 135.359 175.814 135.925 175.022L139.391 170.049C139.949 169.246 138.588 168.507 138.022 169.302V169.298Z" fill="#EFD09C"/>
<path d="M145.171 176.042C143.583 176.659 142.017 177.328 140.472 178.05C139.769 178.374 140.375 179.462 141.07 179.142C142.524 178.464 143.998 177.863 145.488 177.261C146.203 176.98 145.89 175.76 145.175 176.042H145.171Z" fill="#EFD09C"/>
<path d="M145.637 173.522C144.465 174.162 143.189 174.659 141.849 174.998C141.107 175.186 141.441 176.166 142.171 175.975C143.612 175.612 144.985 175.08 146.249 174.396C146.901 174.055 146.294 173.167 145.637 173.522Z" fill="#EFD09C"/>
<path d="M142.37 174.021C143.708 173.433 145.002 172.755 146.242 171.992C146.908 171.594 146.291 170.563 145.625 170.977C144.383 171.737 143.088 172.414 141.748 173.003C141.032 173.321 141.657 174.336 142.37 174.021Z" fill="#EFD09C"/>
<path d="M143.638 168.507C142.09 170.243 139.993 171.229 137.996 172.149C137.323 172.457 137.609 173.703 138.302 173.39C140.488 172.383 142.737 171.302 144.451 169.419C144.977 168.837 144.164 167.925 143.638 168.507Z" fill="#EFD09C"/>
<path d="M234.371 192.639L226.807 194.946C226.807 194.946 229.542 203.715 234.241 202.021C238.939 200.327 234.371 192.639 234.371 192.639Z" fill="#D6AD6A"/>
<path d="M229.313 202.135L229.353 195.945C229.353 194.951 228.138 194.951 228.119 195.945L228.079 202.135C228.079 203.125 229.292 203.129 229.313 202.135Z" fill="#D6AD6A"/>
<path d="M238.164 199.471C237.245 198.166 236.361 196.832 235.512 195.471C235.133 194.838 234.144 195.427 234.542 196.068C235.38 197.429 236.265 198.763 237.194 200.068C237.618 200.673 238.596 200.068 238.164 199.471Z" fill="#D6AD6A"/>
<path d="M237.582 202.559C237.018 201.133 236.277 199.804 235.381 198.609C234.92 197.992 234.129 198.88 234.587 199.497C235.416 200.615 236.099 201.86 236.614 203.193C236.905 203.929 237.869 203.295 237.582 202.559Z" fill="#D6AD6A"/>
<path d="M233.268 201.228C234.025 202.476 234.696 203.777 235.275 205.123C235.588 205.839 236.616 205.218 236.303 204.502C235.722 203.157 235.051 201.856 234.296 200.607C233.895 199.94 232.863 200.557 233.268 201.228Z" fill="#D6AD6A"/>
<path d="M233.779 205.378C233.256 203.135 231.865 201.161 230.506 199.293C230.068 198.698 229.017 199.259 229.459 199.857C230.776 201.649 232.122 203.525 232.626 205.677C232.793 206.382 233.964 206.082 233.796 205.378H233.779Z" fill="#D6AD6A"/>
<path d="M54.9293 185.6L60.5226 190.67C60.5226 190.67 54.5998 197.653 51.2375 194.278C47.8752 190.903 54.9293 185.6 54.9293 185.6Z" fill="#EFD09C"/>
<path d="M56.7806 197.339L59.1795 191.33C59.5567 190.38 58.278 189.546 57.8933 190.504L55.4944 196.509C55.1173 197.463 56.3997 198.293 56.7806 197.335V197.339Z" fill="#EFD09C"/>
<path d="M48.6303 191.288C49.9828 190.464 51.3125 189.592 52.6192 188.674C53.2294 188.262 52.6612 187.19 52.051 187.619C50.7316 188.529 49.4019 189.396 48.0621 190.22C47.4253 190.604 47.9973 191.663 48.6303 191.276V191.288Z" fill="#EFD09C"/>
<path d="M48.2487 194.387C49.3465 193.389 50.5792 192.552 51.9101 191.901C52.6519 191.537 52.005 190.432 51.2675 190.792C49.8392 191.497 48.5179 192.403 47.343 193.482C46.7349 194.037 47.6406 194.942 48.2487 194.387Z" fill="#EFD09C"/>
<path d="M51.3917 192.74C50.1914 193.57 49.048 194.483 47.9698 195.473C47.4119 195.989 48.2369 196.831 48.7948 196.32C49.7979 195.395 50.8625 194.544 51.981 193.772C52.5978 193.345 52.0164 192.313 51.3917 192.74Z" fill="#EFD09C"/>
<path d="M50.8906 198.14C52.3023 196.265 54.4052 194.986 56.4069 193.785C57.0896 193.374 56.4617 192.321 55.7748 192.732C53.575 194.052 51.3583 195.467 49.8117 197.523C49.3355 198.157 50.4186 198.757 50.8906 198.14Z" fill="#EFD09C"/>
<path d="M98.1118 152.663C98.1198 152.779 98.1108 152.896 98.0855 153.007C98.0602 153.118 98.019 153.22 97.9646 153.308C97.9101 153.396 97.8434 153.467 97.7687 153.517C97.6939 153.568 97.6127 153.596 97.5299 153.6L97.4775 152.524C97.4775 152.45 97.7423 152.331 97.7888 152.327C97.8259 152.317 97.864 152.318 97.9007 152.33C97.9375 152.342 97.9721 152.364 98.0025 152.396C98.0328 152.427 98.0582 152.467 98.077 152.513C98.0958 152.559 98.1076 152.61 98.1118 152.663Z" fill="#EFD09C"/>
<path d="M92.3143 145.155L92.5863 145.126C93.8198 144.994 95.0548 145.361 96.0196 146.144C96.9843 146.928 97.5997 148.064 97.7304 149.303L98.1941 153.698C98.2901 154.608 98.0225 155.518 97.4502 156.229C96.8779 156.941 96.0477 157.394 95.1424 157.491C93.5074 157.665 91.8706 157.179 90.5919 156.141C89.3132 155.103 88.4976 153.597 88.3243 151.954L88.1526 150.327C88.0872 149.713 88.1431 149.091 88.317 148.499C88.4909 147.906 88.7793 147.354 89.1659 146.874C89.5524 146.394 90.0295 145.994 90.5697 145.699C91.1099 145.404 91.7028 145.219 92.3143 145.155Z" fill="#EFD09C"/>
<path d="M94.966 153.157C95.2055 153.358 95.5441 153.51 95.9354 153.593C96.1997 153.648 96.3143 153.4 96.0499 153.332C95.7649 153.272 95.5175 153.162 95.3405 153.016C95.1775 152.883 94.803 153.016 94.966 153.147V153.157Z" fill="#041427"/>
<path d="M96.5178 151.679C96.6937 151.679 96.8363 151.536 96.8363 151.359C96.8363 151.182 96.6937 151.039 96.5178 151.039C96.3418 151.039 96.1992 151.182 96.1992 151.359C96.1992 151.536 96.3418 151.679 96.5178 151.679Z" fill="#041427"/>
<path d="M95.9612 150.402C96.1816 150.318 96.4132 150.259 96.6503 150.226C96.9765 150.179 96.8397 149.739 96.5083 149.763C96.2281 149.804 95.9556 149.879 95.6982 149.985C95.393 150.105 95.6561 150.499 95.9612 150.379V150.402Z" fill="#041427"/>
<path d="M91.447 191.951C93.0481 190.636 94.6109 189.271 96.1355 187.857C96.3254 187.682 96.0485 187.402 95.8586 187.573C94.334 188.985 92.7712 190.351 91.1701 191.671C90.9722 191.829 91.2532 192.113 91.447 191.951Z" fill="#041427"/>
<path d="M198.456 195.839C204.613 195.839 209.605 190.825 209.605 184.639C209.605 178.454 204.613 173.439 198.456 173.439C192.298 173.439 187.307 178.454 187.307 184.639C187.307 190.825 192.298 195.839 198.456 195.839Z" fill="#C9DCEE"/>
<path d="M200.684 186.238C200.684 186.238 183.429 215.008 180.794 226.7C178.159 238.392 173.926 270.718 173.926 270.718" stroke="#C9DCEE" stroke-width="20" stroke-miterlimit="10"/>
<path d="M198.591 153.279L198.591 161.279" stroke="#D6AD6A" stroke-width="6" stroke-miterlimit="10"/>
<path d="M195.476 155.776C194.433 158.619 193.547 159.361 193.547 159.361L193.04 155.792C193.04 155.792 196.218 153.752 195.476 155.776Z" fill="#041427"/>
<path d="M193.686 160.482L201.3 160.014C203.246 159.894 205.164 160.537 206.664 161.813C208.165 163.089 209.135 164.902 209.379 166.884L211.503 184.135C211.527 184.336 211.51 184.54 211.453 184.734C211.396 184.928 211.3 185.108 211.171 185.261C211.041 185.415 210.882 185.539 210.703 185.625C210.524 185.712 210.33 185.759 210.132 185.764L187.196 186.24C186.667 186.249 186.155 186.045 185.772 185.67C185.389 185.296 185.166 184.782 185.15 184.239L184.76 170.472C184.689 167.945 185.582 165.489 187.248 163.625C188.914 161.76 191.223 160.633 193.686 160.482Z" fill="#005AAA"/>
<path d="M190.556 151.864C190.52 151.959 190.498 152.063 190.491 152.17C190.484 152.277 190.492 152.386 190.516 152.488C190.539 152.591 190.577 152.685 190.627 152.766C190.677 152.847 190.738 152.913 190.806 152.96L191.124 152.055C191.145 151.998 190.946 151.757 190.909 151.734C190.88 151.708 190.847 151.691 190.814 151.684C190.78 151.676 190.746 151.679 190.713 151.691C190.68 151.703 190.649 151.725 190.622 151.755C190.595 151.784 190.573 151.822 190.556 151.864Z" fill="#D6AD6A"/>
<path d="M193.765 157.494C192.86 157.398 192.03 156.944 191.457 156.233C190.885 155.522 190.617 154.611 190.713 153.702L191.177 149.307C191.308 148.067 191.923 146.931 192.888 146.148C193.853 145.364 195.088 144.998 196.321 145.129L196.593 145.158C197.827 145.29 198.958 145.908 199.738 146.877C200.517 147.846 200.882 149.087 200.751 150.326L200.58 151.953C200.406 153.596 199.591 155.102 198.312 156.14C197.033 157.179 195.396 157.664 193.761 157.49L193.765 157.494Z" fill="#D6AD6A"/>
<path d="M193.324 153.645C193.126 153.802 192.859 153.915 192.558 153.969C192.505 153.979 192.459 154.002 192.431 154.034C192.403 154.065 192.396 154.103 192.411 154.138C192.426 154.173 192.461 154.203 192.51 154.222C192.558 154.24 192.616 154.244 192.67 154.235C193.041 154.169 193.374 154.031 193.624 153.84C193.799 153.706 193.504 153.51 193.324 153.645Z" fill="#041427"/>
<path d="M192.722 151.679C192.898 151.679 193.04 151.536 193.04 151.359C193.04 151.182 192.898 151.039 192.722 151.039C192.546 151.039 192.403 151.182 192.403 151.359C192.403 151.536 192.546 151.679 192.722 151.679Z" fill="#041427"/>
<path d="M193.543 149.987C193.284 149.881 193.01 149.807 192.729 149.765C192.403 149.719 192.261 150.158 192.592 150.204C192.83 150.234 193.061 150.293 193.28 150.379C193.58 150.499 193.848 150.107 193.543 149.987Z" fill="#041427"/>
<path d="M90.4658 169.6C90.4658 169.6 109.787 180.304 118.946 180.475C128.106 180.647 138.248 175.57 138.248 175.57" stroke="#082241" stroke-width="14" stroke-miterlimit="10"/>
<path d="M88.5604 203.178C91.2466 208.454 93.6614 213.865 95.7953 219.388C95.8828 219.623 96.2644 219.52 96.1928 219.285C94.0474 213.729 91.6193 208.286 88.9182 202.979C88.8029 202.756 88.465 202.951 88.5803 203.178H88.5604Z" fill="#041427"/>
<path d="M120.672 273.907C121.208 273.847 121.728 273.729 122.214 273.556C122.456 273.469 122.243 273.211 122.001 273.296C121.548 273.457 121.062 273.565 120.562 273.617C120.294 273.647 120.409 273.919 120.672 273.919V273.907Z" fill="#041427"/>
<path d="M121.238 275.829C121.801 275.82 122.354 275.708 122.856 275.501C123.086 275.406 122.884 275.123 122.653 275.219C122.216 275.403 121.732 275.503 121.238 275.511C120.984 275.511 120.98 275.839 121.238 275.839V275.829Z" fill="#041427"/>
<path d="M122.46 277.758C122.833 277.713 123.196 277.592 123.528 277.402C123.689 277.309 123.545 277.046 123.383 277.139C123.096 277.303 122.783 277.408 122.46 277.448C122.281 277.473 122.278 277.78 122.46 277.758Z" fill="#041427"/>
<path d="M80.3441 224.327C80.82 224.684 81.3315 224.995 81.8712 225.256C82.1061 225.372 82.3159 225.032 82.0809 224.916C81.5727 224.669 81.0895 224.378 80.6377 224.046C80.4322 223.89 80.1343 224.166 80.3441 224.327Z" fill="#041427"/>
<path d="M87.28 169.822C86.3929 170.03 75.2194 167.836 68.2961 173.876C63.5157 178.049 56.0625 190.08 56.0625 190.08" stroke="#082241" stroke-width="14" stroke-miterlimit="10"/>
<path d="M147.807 177.441C147.807 177.441 168.389 187.601 176.555 181.987C184.722 176.373 194.951 168.238 194.951 168.238" stroke="#005AAA" stroke-width="14" stroke-miterlimit="10"/>
<path d="M185.747 169.699C184.318 172.986 184.726 176.773 185.178 180.335C185.212 180.589 185.506 180.48 185.472 180.23C185.036 176.777 184.624 173.091 186.01 169.896C186.03 169.851 186.035 169.797 186.025 169.746C186.014 169.695 185.989 169.652 185.954 169.626C185.919 169.6 185.878 169.593 185.839 169.606C185.8 169.62 185.767 169.653 185.747 169.699Z" fill="#041427"/>
<path d="M185.074 181.759C185.159 181.759 185.24 181.725 185.3 181.665C185.359 181.605 185.393 181.524 185.393 181.439C185.393 181.354 185.359 181.273 185.3 181.213C185.24 181.153 185.159 181.119 185.074 181.119C184.99 181.119 184.909 181.153 184.849 181.213C184.789 181.273 184.756 181.354 184.756 181.439C184.756 181.524 184.789 181.605 184.849 181.665C184.909 181.725 184.99 181.759 185.074 181.759Z" fill="#041427"/>
<path d="M201.96 165.119C201.96 165.119 216.337 168.797 224.023 178.397C229.48 185.222 231.903 195.839 231.903 195.839" stroke="#005AAA" stroke-width="14" stroke-miterlimit="10"/>
<path d="M206.549 172.657L209.998 174.065C210.238 174.162 210.34 173.701 210.104 173.579L206.65 172.171C206.415 172.074 206.313 172.54 206.549 172.657Z" fill="#041427"/>
<path d="M191.214 148.519C192.17 148.512 193.114 148.32 193.989 147.953C194.164 147.882 194.361 147.879 194.537 147.946C194.714 148.012 194.856 148.142 194.933 148.308C195.132 148.721 195.355 149.124 195.601 149.513C195.655 149.6 195.729 149.673 195.816 149.729C195.904 149.785 196.004 149.821 196.108 149.835C196.212 149.849 196.318 149.84 196.419 149.809C196.519 149.778 196.611 149.727 196.687 149.658C196.745 149.591 196.817 149.536 196.898 149.497C196.978 149.457 197.066 149.434 197.157 149.428C197.247 149.421 197.338 149.433 197.424 149.461C197.509 149.489 197.588 149.533 197.656 149.591C198.4 150.122 197.851 151.222 197.306 151.612C197.209 151.684 197.135 151.779 197.09 151.888C197.045 151.997 197.031 152.116 197.049 152.232C197.277 153.773 197.904 158.594 197.306 161.074C197.28 161.179 197.28 161.288 197.307 161.393C197.333 161.498 197.385 161.595 197.458 161.677C197.53 161.759 197.622 161.824 197.726 161.865C197.83 161.907 197.942 161.925 198.054 161.917C199.857 161.776 203.491 161.281 205.509 159.506C205.621 159.411 205.699 159.284 205.731 159.144C205.763 159.004 205.748 158.858 205.688 158.726C205.46 158.211 205.118 157.392 205.244 157.349C205.37 157.306 205.798 157.845 206.152 158.297C206.211 158.373 206.286 158.435 206.372 158.481C206.458 158.527 206.553 158.556 206.651 158.564C206.749 158.573 206.848 158.562 206.941 158.532C207.035 158.503 207.121 158.454 207.193 158.391C207.979 157.716 209.297 156.476 209.578 155.547C209.985 154.206 204.927 151.175 202.803 148.101C200.793 145.191 198.327 144.688 197.371 144.879C197.265 144.905 197.155 144.905 197.049 144.879C196.15 144.645 192.093 143.822 190.539 147.579C190.495 147.683 190.48 147.797 190.493 147.909C190.506 148.021 190.548 148.129 190.615 148.222C190.681 148.314 190.771 148.39 190.876 148.442C190.98 148.494 191.097 148.52 191.214 148.519Z" fill="#041427"/>
<path d="M93.56 150.643C93.5491 150.691 93.5267 150.734 93.4951 150.77C93.4636 150.805 93.4239 150.831 93.3801 150.845C93.3362 150.859 93.2897 150.861 93.2452 150.849C93.2007 150.838 93.1596 150.815 93.1261 150.781C93.0225 150.65 92.8875 150.55 92.7355 150.493C92.5834 150.437 92.4199 150.425 92.2621 150.46C91.7027 150.684 91.2117 152.207 92.4524 152.941L91.7255 154.745C91.5563 155.164 91.2763 155.522 90.9199 155.773C90.5636 156.024 90.1464 156.158 89.7197 156.159C89.7197 156.159 84.6919 150.048 89.0841 147.115C89.0841 147.115 89.6778 144.308 93.6514 144.671C97.6249 145.034 99.9237 147.16 98.1387 147.791C96.681 148.309 94.7513 149.066 94.0929 149.327C94.0215 149.356 93.9576 149.403 93.9066 149.464C93.8557 149.525 93.819 149.598 93.7998 149.678L93.56 150.643Z" fill="#041427"/>
<path d="M144.937 127.999C174.669 127.999 198.771 103.644 198.771 73.5992C198.771 43.5549 174.669 19.1992 144.937 19.1992C115.205 19.1992 91.1025 43.5549 91.1025 73.5992C91.1025 103.644 115.205 127.999 144.937 127.999Z" fill="#B3CAFF"/>
<path d="M134.427 119.478C134.427 119.478 125.902 135.17 113.403 137.6C113.403 137.6 120.243 127.918 120.136 112" fill="#B3CAFF"/>
<path d="M158.637 119.478C158.637 119.478 167.162 135.17 179.661 137.6C179.661 137.6 172.821 127.918 172.928 112" fill="#B3CAFF"/>
<path d="M128.064 67.2289C128.658 67.0324 136.405 65.6595 139.767 60.3617C143.128 55.0639 147.369 49.2687 148.937 48.682C150.505 48.0954 154.754 53.5659 152.016 58.6672C150.855 60.8292 150.323 62.1723 150.095 63.0061C150.052 63.1599 150.045 63.3216 150.074 63.4785C150.104 63.6355 150.169 63.7834 150.265 63.9109C150.361 64.0383 150.485 64.1417 150.628 64.2131C150.77 64.2845 150.927 64.3219 151.087 64.3224L166.528 64.2867C170.763 64.2867 174.077 68.1938 173.12 72.3272C172.922 73.2405 172.508 74.093 171.915 74.8138C171.7 75.0758 171.553 75.3867 171.487 75.7191C171.421 76.0515 171.437 76.3952 171.535 76.7197C171.849 77.7811 171.885 78.906 171.639 79.9855C171.393 81.065 170.873 82.0624 170.13 82.8812C169.775 83.2817 169.584 83.8018 169.596 84.3374C169.631 85.5286 169.509 87.7621 168.301 89.4179C168 89.8421 167.869 90.3637 167.933 90.8801C168.075 92.1427 167.977 94.534 165.622 96.0617C162.297 98.2208 142.858 97.0445 139.764 96.0617C136.67 95.079 130.781 95.2785 126.778 95.4661" fill="white"/>
<path d="M121.137 62.0801H128.382C128.757 62.0801 129.128 62.1545 129.475 62.2991C129.821 62.4437 130.136 62.6557 130.401 62.9229C130.667 63.1901 130.877 63.5074 131.021 63.8565C131.164 64.2056 131.238 64.5798 131.238 64.9577V95.6824C131.238 96.4456 130.937 97.1776 130.401 97.7172C129.866 98.2569 129.139 98.5601 128.382 98.5601H121.137C119.93 98.5601 118.772 98.0769 117.918 97.2168C117.065 96.3567 116.585 95.1902 116.585 93.9738V66.6723C116.584 66.0695 116.701 65.4725 116.93 64.9154C117.158 64.3583 117.493 63.852 117.916 63.4255C118.339 62.999 118.841 62.6606 119.394 62.4298C119.946 62.1989 120.539 62.0801 121.137 62.0801Z" fill="#082241"/>
</svg>
