<svg width="139" height="253" viewBox="0 0 139 253" fill="none" xmlns="http://www.w3.org/2000/svg">
<path d="M57.4193 0.975998C88.691 0.975998 114.042 26.5932 114.042 58.1936C114.042 89.794 88.691 115.411 57.4193 115.411C26.1476 115.411 0.796875 89.794 0.796875 58.1936C0.796875 26.5932 26.1476 0.975998 57.4193 0.975998Z" fill="white"/>
<path d="M57.4193 0.975998C88.691 0.975998 114.042 26.5932 114.042 58.1936C114.042 89.794 88.691 115.411 57.4193 115.411C26.1476 115.411 0.796875 89.794 0.796875 58.1936C0.796875 26.5932 26.1476 0.975998 57.4193 0.975998Z" fill="#C52727" fill-opacity="0.2"/>
<path d="M40.3993 69.8492C41.0239 70.056 49.1726 71.4999 52.7082 77.0721C56.2438 82.6444 60.7038 88.7397 62.3529 89.3567C64.002 89.9738 68.4715 84.2199 65.5918 78.8544C64.3706 76.5804 63.8115 75.1678 63.571 74.2907C63.5258 74.129 63.5184 73.9589 63.5495 73.7939C63.5806 73.6288 63.6494 73.4732 63.7504 73.3391C63.8514 73.2051 63.9819 73.0963 64.1317 73.0212C64.2816 72.9461 64.4467 72.9068 64.6142 72.9063L80.8554 72.9439C85.3092 72.9439 88.7948 68.8344 87.7891 64.4869C87.58 63.5263 87.1453 62.6296 86.521 61.8715C86.2954 61.596 86.1408 61.2689 86.0711 60.9193C86.0014 60.5697 86.0186 60.2082 86.1213 59.8669C86.4523 58.7505 86.4903 57.5673 86.2315 56.432C85.9726 55.2966 85.4258 54.2475 84.6439 53.3863C84.2708 52.965 84.07 52.418 84.0817 51.8546C84.1192 50.6017 83.9912 48.2526 82.72 46.5111C82.404 46.0649 82.2659 45.5163 82.3327 44.9731C82.4826 43.6451 82.3795 41.1299 79.9028 39.5231C76.4047 37.2522 55.9596 38.4894 52.7051 39.5231C49.4506 40.5567 43.2571 40.3469 39.0469 40.1495" fill="white"/>
<path d="M33.116 75.2666H40.736C41.1305 75.2666 41.5211 75.1883 41.8856 75.0362C42.2501 74.8841 42.5813 74.6612 42.8603 74.3801C43.1392 74.0991 43.3605 73.7654 43.5115 73.3982C43.6624 73.031 43.7402 72.6374 43.7402 72.2399V39.9239C43.7402 39.1211 43.4236 38.3513 42.8603 37.7837C42.2969 37.2161 41.5327 36.8972 40.736 36.8972H33.116C31.8462 36.8972 30.6284 37.4054 29.7305 38.31C28.8326 39.2147 28.3281 40.4416 28.3281 41.7209V70.4365C28.3273 71.0705 28.4505 71.6985 28.6908 72.2844C28.931 72.8704 29.2836 73.4029 29.7283 73.8515C30.1729 74.3001 30.701 74.656 31.2823 74.8988C31.8636 75.1416 32.4867 75.2666 33.116 75.2666Z" fill="#C52727"/>
<path d="M90.4554 103.08L97.9711 122.224C98.193 122.767 98.2321 123.366 98.0823 123.933C97.9325 124.499 97.6021 125.001 97.1411 125.363C96.6801 125.725 96.1138 125.926 95.528 125.937C94.9422 125.947 94.3689 125.767 93.8951 125.422L65.0508 105.059" fill="white"/>
<path d="M90.4554 103.08L97.9711 122.224C98.193 122.767 98.2321 123.366 98.0823 123.933C97.9325 124.499 97.6021 125.001 97.1411 125.363C96.6801 125.725 96.1138 125.926 95.528 125.937C94.9422 125.947 94.3689 125.767 93.8951 125.422L65.0508 105.059" fill="#C52727" fill-opacity="0.2"/>
<path d="M100.284 184.095C96.9914 185.014 94.3914 187.989 92.4446 190.667C90.4403 193.458 89.0401 196.637 88.3333 200C87.8673 202.178 91.2251 203.123 91.6912 200.923C92.2821 198.087 93.4228 195.395 95.049 192.997C96.4775 190.893 98.6464 188.167 101.199 187.453C103.354 186.852 102.44 183.49 100.271 184.095H100.284Z" fill="#EFD09C"/>
<path d="M93.2344 190.201L93.7918 205.958C93.7918 205.958 112.78 204.12 109.135 193.624C106.444 185.88 93.2344 190.201 93.2344 190.201Z" fill="#EFD09C"/>
<path d="M108.297 184.577C106.93 186.824 104.617 188.148 102.317 189.276C99.8001 190.513 97.2741 191.619 95.1096 193.44C93.8248 194.529 95.6801 196.367 96.9605 195.291C101.25 191.672 107.443 190.997 110.553 185.897C111.424 184.46 109.172 183.144 108.297 184.59V184.577Z" fill="#EFD09C"/>
<path d="M111.392 187.575C109.031 189.953 105.961 191.29 102.83 192.366C101.244 192.902 101.928 195.415 103.526 194.883C107.08 193.677 110.556 192.139 113.239 189.435C114.423 188.237 112.577 186.386 111.392 187.588V187.575Z" fill="#EFD09C"/>
<path d="M112.173 191.941C109.961 193.526 107.491 194.718 104.874 195.464C103.258 195.9 103.946 198.443 105.566 197.981C108.407 197.178 111.089 195.892 113.493 194.179C114.847 193.208 113.545 190.943 112.186 191.923L112.173 191.941Z" fill="#EFD09C"/>
<path d="M111.279 196.98C109.163 197.877 106.802 198.113 104.747 199.106C103.235 199.837 104.555 202.093 106.053 201.362C107.024 200.891 108.17 200.769 109.202 200.491C110.353 200.146 111.483 199.733 112.586 199.254C113.239 198.975 113.37 198.021 113.056 197.464C112.874 197.172 112.587 196.961 112.254 196.874C111.921 196.788 111.568 196.832 111.266 196.998L111.279 196.98Z" fill="#EFD09C"/>
<path d="M44.5508 183.745L68.5043 213.121C69.4541 214.292 70.8282 215.041 72.3274 215.204C73.8266 215.367 75.3296 214.932 76.5091 213.992L97.6927 197.046" stroke="#005AAA" stroke-width="16" stroke-miterlimit="10"/>
<path d="M61.45 215.334L67.1971 252.912H13.4178C13.4178 252.912 10.2425 217.9 18.1646 206.25" fill="#B3CAFF"/>
<path d="M75.4951 148.193C75.4951 148.193 80.5079 151.743 77.9558 154.482C75.8087 156.79 69.8203 153.633 69.8203 153.633L71.5624 148.76" fill="#041427"/>
<path d="M123.625 210.745C120.376 211.986 117.998 215.1 116.291 218.026C114.521 221.104 113.407 224.515 113.02 228.043C112.911 228.98 113.891 229.785 114.762 229.785C115.799 229.785 116.395 228.984 116.504 228.043C116.846 225.25 117.734 222.551 119.117 220.1C119.803 218.87 120.612 217.713 121.53 216.646C122.366 215.683 123.32 214.577 124.548 214.111C124.986 213.977 125.356 213.68 125.582 213.281C125.807 212.883 125.872 212.413 125.763 211.968C125.532 211.124 124.505 210.414 123.621 210.749L123.625 210.745Z" fill="#EFD09C"/>
<path d="M116.98 217.531L119.001 233.175C119.001 233.175 137.729 229.59 133.143 219.473C129.732 212.017 116.98 217.531 116.98 217.531Z" fill="#EFD09C"/>
<path d="M131.54 210.417C129.115 215.365 122.943 216.728 119.25 220.473C118.07 221.675 119.916 223.522 121.097 222.324C125.016 218.352 131.196 217.046 133.796 211.733C134.532 210.23 132.281 208.906 131.54 210.426V210.417Z" fill="#EFD09C"/>
<path d="M134.906 213.151C132.698 215.838 129.68 217.485 126.544 218.883C125.011 219.562 126.339 221.818 127.851 221.139C131.165 219.662 134.383 217.842 136.739 214.998C137.802 213.691 135.964 211.849 134.893 213.151H134.906Z" fill="#EFD09C"/>
<path d="M135.844 217.682C133.87 219.393 131.616 220.753 129.181 221.701C127.63 222.302 128.31 224.833 129.878 224.223C132.735 223.12 135.38 221.532 137.695 219.528C138.967 218.426 137.112 216.584 135.844 217.682Z" fill="#EFD09C"/>
<path d="M135.679 222.544C134.584 223.144 133.444 223.658 132.269 224.081C131.265 224.378 130.294 224.775 129.369 225.266C127.932 226.137 129.242 228.393 130.675 227.522C131.612 226.956 132.7 226.712 133.724 226.315C134.842 225.875 135.934 225.37 136.995 224.804C138.475 224.007 137.156 221.755 135.688 222.544H135.679Z" fill="#EFD09C"/>
<path d="M40.2914 238.092C52.8615 238.092 63.0516 227.902 63.0516 215.331C63.0516 202.761 52.8615 192.571 40.2914 192.571C27.7213 192.571 17.5312 202.761 17.5312 215.331C17.5312 227.902 27.7213 238.092 40.2914 238.092Z" fill="#B3CAFF"/>
<path d="M62.0436 157.546C59.6744 161.901 57.6884 166.134 54.1172 171.413L62.0436 157.546Z" fill="#EFD09C"/>
<path d="M62.0436 157.546C59.6744 161.901 57.6884 166.134 54.1172 171.413" stroke="#EFD09C" stroke-width="13" stroke-miterlimit="10"/>
<path d="M63.7117 167.025L63.2355 166.87C60.2921 165.911 57.85 163.823 56.4466 161.064C55.0432 158.305 54.7933 155.101 55.7519 152.157L56.9294 148.542C57.7249 146.1 59.4582 144.073 61.7478 142.909C64.0375 141.744 66.6961 141.537 69.1387 142.332C70.3492 142.725 71.4703 143.353 72.4381 144.179C73.4059 145.006 74.2012 146.015 74.7787 147.149C75.3562 148.283 75.7046 149.52 75.8038 150.789C75.9031 152.058 75.7513 153.334 75.3572 154.544L72.7946 162.412C72.2026 164.23 70.9128 165.738 69.2089 166.605C67.505 167.471 65.5267 167.625 63.709 167.033L63.7117 167.025Z" fill="#EFD09C"/>
<mask id="path-24-inside-1_1_12212" fill="white">
<path d="M69.6061 161.699C69.2797 160.98 68.7372 160.381 68.0542 159.985C67.5766 159.699 68.0943 158.997 68.5719 159.284C69.3785 159.766 70.0172 160.485 70.4015 161.343C70.6344 161.853 69.839 162.209 69.6061 161.699Z"/>
</mask>
<path d="M69.6061 161.699C69.2797 160.98 68.7372 160.381 68.0542 159.985C67.5766 159.699 68.0943 158.997 68.5719 159.284C69.3785 159.766 70.0172 160.485 70.4015 161.343C70.6344 161.853 69.839 162.209 69.6061 161.699Z" fill="#041427"/>
<path d="M69.6061 161.699L68.6965 162.115L68.6955 162.112L69.6061 161.699ZM68.0542 159.985L67.5528 160.851L67.5461 160.847L67.5394 160.843L68.0542 159.985ZM68.5719 159.284L68.0586 160.142L68.0571 160.141L68.5719 159.284ZM70.4015 161.343L69.4919 161.758L69.4889 161.752L70.4015 161.343ZM68.6955 162.112C68.4552 161.583 68.0557 161.142 67.5528 160.851L68.5557 159.12C69.4187 159.62 70.1042 160.377 70.5166 161.286L68.6955 162.112ZM67.5394 160.843C67.1742 160.623 66.9204 160.26 66.8725 159.824C66.8285 159.424 66.9678 159.073 67.1503 158.826C67.5053 158.345 68.2986 157.953 69.0867 158.427L68.0571 160.141C68.1793 160.215 68.3407 160.237 68.4887 160.196C68.6163 160.161 68.7041 160.088 68.7594 160.014C68.8125 159.942 68.8821 159.802 68.8605 159.605C68.8348 159.372 68.6955 159.204 68.569 159.128L67.5394 160.843ZM69.0852 158.426C70.0678 159.013 70.8459 159.889 71.3141 160.934L69.4889 161.752C69.1885 161.081 68.6892 160.519 68.0586 160.142L69.0852 158.426ZM71.3111 160.927C71.4874 161.313 71.4875 161.738 71.3139 162.109C71.1523 162.454 70.8723 162.688 70.5872 162.816C70.3018 162.944 69.943 162.996 69.5805 162.89C69.1921 162.776 68.8727 162.5 68.6965 162.115L70.5157 161.284C70.4559 161.153 70.3232 161.023 70.1422 160.97C69.9871 160.925 69.8562 160.952 69.7697 160.991C69.6835 161.029 69.5732 161.11 69.5025 161.261C69.4198 161.438 69.432 161.627 69.4919 161.758L71.3111 160.927Z" fill="#041427" mask="url(#path-24-inside-1_1_12212)"/>
<path d="M71.6836 156.709C71.6836 156.82 71.5936 156.91 71.4824 156.91C71.3713 156.91 71.2812 156.82 71.2812 156.709C71.2812 156.598 71.3713 156.508 71.4824 156.508C71.5935 156.508 71.6836 156.598 71.6836 156.709Z" fill="#041427" stroke="#041427"/>
<path d="M72.7439 154.548V154.548ZM72.5884 154.572C72.5804 154.57 72.573 154.566 72.5664 154.561C72.5739 154.563 72.5815 154.565 72.589 154.567L72.5884 154.572ZM72.5417 154.518L72.5417 154.518L72.5417 154.518Z" fill="#041427" stroke="#041427"/>
<path d="M74.1711 160.877C73.7356 161.796 72.2113 162.619 71.2227 161.891L72.6032 159.444C72.6947 159.278 73.6267 159.505 73.7574 159.583C73.8735 159.636 73.9774 159.713 74.0621 159.809C74.1469 159.905 74.2108 160.017 74.2498 160.139C74.2887 160.26 74.3018 160.389 74.2883 160.516C74.2747 160.643 74.2348 160.766 74.1711 160.877Z" fill="#EFD09C"/>
<path d="M18.029 203.726L18.0291 203.725L22.5932 181.854C23.1348 179.275 24.2045 176.835 25.7348 174.69C27.2652 172.544 29.2232 170.738 31.4855 169.386C33.7478 168.034 36.2655 167.164 38.8802 166.833C41.4949 166.501 44.15 166.714 46.6783 167.458L46.6788 167.458L64.7093 172.746L64.7094 172.746C67.5914 173.59 70.2463 175.073 72.477 177.083C74.7077 179.094 76.4569 181.581 77.5949 184.36C78.7329 187.14 79.2303 190.139 79.0504 193.137C78.8705 196.135 78.0177 199.054 76.5555 201.677L76.5554 201.677L67.9109 217.198C67.9108 217.198 67.9107 217.198 67.9106 217.198C67.644 217.674 67.2272 218.049 66.7255 218.263C66.2235 218.477 65.6648 218.519 65.1364 218.382L19.8429 206.623L19.8395 206.623C19.2221 206.467 18.6888 206.078 18.3514 205.538C18.0139 204.998 17.8984 204.349 18.029 203.726Z" fill="#005AAA" stroke="#005AAA"/>
<path d="M65.1611 152.677C65.1611 152.677 63.3842 149.754 62.0472 151.649C61.2458 152.781 61.8469 154.127 62.4522 155.02C62.6574 155.312 62.7505 155.668 62.7145 156.023C62.6785 156.378 62.5158 156.709 62.2563 156.954L57.4176 161.496C57.2761 161.63 57.1026 161.726 56.9137 161.775C56.7247 161.824 56.5265 161.824 56.3376 161.775L53.2889 161C53.0291 160.933 52.8002 160.779 52.6414 160.563C52.4825 160.347 52.4036 160.083 52.4179 159.815C52.5268 157.241 50.9981 151.231 53.0712 146.632C54.2079 144.097 59.6649 137.133 68.4972 141.484C69.2942 141.876 65.6751 141.741 66.5505 141.61C68.593 141.31 72.5998 141.266 75.6397 144.659C79.8991 149.389 80.3694 151.466 76.8722 151.753C73.375 152.041 69.0939 148.631 65.1611 152.677Z" fill="#041427"/>
<path d="M34.771 237.732C35.9459 242.542 36.6796 247.462 36.9617 252.422C36.9999 253.067 37.9545 253.072 37.9163 252.422C37.6301 247.371 36.8852 242.362 35.6921 237.463C35.6586 237.333 35.5779 237.223 35.4678 237.156C35.3577 237.09 35.2272 237.072 35.1051 237.108C34.9829 237.144 34.8791 237.229 34.8164 237.347C34.7538 237.464 34.7374 237.602 34.771 237.732Z" fill="#041427"/>
<path d="M68.3555 187.367C72.0879 190.255 73.3933 230.279 78.7197 234.29C84.046 238.301 118.787 225.741 118.787 225.741" stroke="#005AAA" stroke-width="16" stroke-miterlimit="10"/>
<path d="M59.5055 196.541L62.3668 213.566C62.4104 213.84 62.8328 213.723 62.8024 213.448L59.941 196.428C59.8974 196.149 59.475 196.267 59.5055 196.541Z" fill="#B3CAFF"/>
<mask id="path-34-inside-2_1_12212" fill="white">
<path d="M98.8312 190.093C99.2078 191.441 99.1094 192.877 98.5524 194.161C98.3303 194.666 99.0794 195.11 99.3015 194.596C99.9752 193.104 100.105 191.423 99.6673 189.845C99.6291 189.743 99.5541 189.659 99.4573 189.61C99.3604 189.561 99.2486 189.549 99.1438 189.578C99.0391 189.607 98.9489 189.674 98.891 189.766C98.8332 189.858 98.8118 189.969 98.8312 190.075V190.093Z"/>
</mask>
<path d="M98.8312 190.093C99.2078 191.441 99.1094 192.877 98.5524 194.161C98.3303 194.666 99.0794 195.11 99.3015 194.596C99.9752 193.104 100.105 191.423 99.6673 189.845C99.6291 189.743 99.5541 189.659 99.4573 189.61C99.3604 189.561 99.2486 189.549 99.1438 189.578C99.0391 189.607 98.9489 189.674 98.891 189.766C98.8332 189.858 98.8118 189.969 98.8312 190.075V190.093Z" fill="#041427"/>
<path d="M98.8312 190.093H97.8312V190.23L97.8681 190.362L98.8312 190.093ZM98.5524 194.161L99.4679 194.563L99.4698 194.559L98.5524 194.161ZM99.3015 194.596L98.3901 194.185L98.3868 194.192L98.3836 194.199L99.3015 194.596ZM99.6673 189.845L100.631 189.578L100.619 189.534L100.603 189.492L99.6673 189.845ZM98.8312 190.075H99.8312V189.986L99.8152 189.898L98.8312 190.075ZM97.8681 190.362C98.1829 191.489 98.1006 192.689 97.635 193.763L99.4698 194.559C100.118 193.064 100.233 191.393 99.7943 189.824L97.8681 190.362ZM97.637 193.758C97.2718 194.589 97.7456 195.324 98.254 195.623C98.5175 195.778 98.8859 195.883 99.2855 195.79C99.7242 195.688 100.051 195.382 100.219 194.993L98.3836 194.199C98.4406 194.068 98.5908 193.898 98.8336 193.842C99.0372 193.795 99.1905 193.853 99.2667 193.898C99.347 193.945 99.4242 194.022 99.4712 194.138C99.5255 194.272 99.5261 194.431 99.4679 194.563L97.637 193.758ZM100.213 195.008C100.983 193.302 101.131 191.381 100.631 189.578L98.7037 190.112C99.0785 191.464 98.9675 192.905 98.3901 194.185L100.213 195.008ZM100.603 189.492C100.477 189.157 100.23 188.881 99.9109 188.719L99.0037 190.501C98.8781 190.437 98.781 190.329 98.7314 190.197L100.603 189.492ZM99.9109 188.719C99.5916 188.556 99.223 188.519 98.8778 188.614L99.4099 190.542C99.2742 190.58 99.1293 190.565 99.0037 190.501L99.9109 188.719ZM98.8778 188.614C98.5324 188.71 98.2352 188.931 98.0445 189.234L99.7376 190.299C99.6626 190.418 99.5458 190.505 99.4099 190.542L98.8778 188.614ZM98.0445 189.234C97.8538 189.537 97.7834 189.901 97.8471 190.253L99.8152 189.898C99.8403 190.036 99.8126 190.179 99.7376 190.299L98.0445 189.234ZM97.8312 190.075V190.093H99.8312V190.075H97.8312Z" fill="#041427" mask="url(#path-34-inside-2_1_12212)"/>
<mask id="path-36-inside-3_1_12212" fill="white">
<path d="M48.5597 131.738L49.8662 134.386C50.1188 134.887 50.8722 134.447 50.6196 133.95L49.3305 131.298C49.0779 130.797 48.3288 131.242 48.5771 131.734L48.5597 131.738Z"/>
</mask>
<path d="M48.5597 131.738L49.8662 134.386C50.1188 134.887 50.8722 134.447 50.6196 133.95L49.3305 131.298C49.0779 130.797 48.3288 131.242 48.5771 131.734L48.5597 131.738Z" fill="#041427"/>
<path d="M48.5597 131.738L48.3171 130.768L47.1142 131.069L47.6629 132.181L48.5597 131.738ZM49.8662 134.386L48.9694 134.829L48.9733 134.836L49.8662 134.386ZM50.6196 133.95L49.7203 134.388L49.7242 134.396L49.7284 134.404L50.6196 133.95ZM49.3305 131.298L50.2299 130.861L50.2267 130.854L50.2234 130.848L49.3305 131.298ZM48.5771 131.734L48.8196 132.704L50.0334 132.4L49.4699 131.283L48.5771 131.734ZM47.6629 132.181L48.9694 134.828L50.763 133.944L49.4564 131.296L47.6629 132.181ZM48.9733 134.836C49.1648 135.216 49.5027 135.49 49.9208 135.578C50.3063 135.659 50.6666 135.563 50.9347 135.407C51.4587 135.103 51.9376 134.336 51.5109 133.497L49.7284 134.404C49.6626 134.275 49.6491 134.102 49.7087 133.945C49.7599 133.809 49.8485 133.725 49.9301 133.678C50.0098 133.631 50.1502 133.582 50.3313 133.62C50.5449 133.665 50.6939 133.806 50.7591 133.936L48.9733 134.836ZM51.519 133.513L50.2299 130.861L48.4311 131.735L49.7203 134.388L51.519 133.513ZM50.2234 130.848C50.0321 130.469 49.6942 130.193 49.2741 130.106C48.8872 130.026 48.5272 130.125 48.2607 130.281C47.7439 130.583 47.2614 131.346 47.6842 132.184L49.4699 131.283C49.537 131.416 49.5478 131.589 49.489 131.744C49.4384 131.876 49.3517 131.959 49.2712 132.007C49.1926 132.053 49.0517 132.103 48.8685 132.065C48.6522 132.02 48.5026 131.877 48.4376 131.748L50.2234 130.848ZM48.3345 130.764L48.3171 130.768L48.8022 132.708L48.8196 132.704L48.3345 130.764Z" fill="#041427" mask="url(#path-36-inside-3_1_12212)"/>
<mask id="path-38-inside-4_1_12212" fill="white">
<path d="M60.6333 126.916L61.3867 131.079C61.4869 131.628 62.3274 131.397 62.2273 130.848L61.4738 126.685C61.3737 126.136 60.5331 126.367 60.6333 126.916Z"/>
</mask>
<path d="M60.6333 126.916L61.3867 131.079C61.4869 131.628 62.3274 131.397 62.2273 130.848L61.4738 126.685C61.3737 126.136 60.5331 126.367 60.6333 126.916Z" fill="#041427"/>
<path d="M60.6333 126.916L61.6173 126.738L61.617 126.736L60.6333 126.916ZM61.3867 131.079L60.4027 131.257L60.403 131.259L61.3867 131.079ZM62.2273 130.848L61.2432 131.027L61.2435 131.028L62.2273 130.848ZM61.4738 126.685L62.4578 126.507L62.4576 126.505L61.4738 126.685ZM59.6493 127.094L60.4027 131.257L62.3707 130.901L61.6173 126.738L59.6493 127.094ZM60.403 131.259C60.4794 131.678 60.7289 132.042 61.1171 132.241C61.4731 132.424 61.8498 132.421 62.1469 132.34C62.7258 132.181 63.3767 131.577 63.211 130.669L61.2435 131.028C61.2179 130.888 61.2537 130.727 61.3463 130.601C61.4262 130.492 61.5271 130.436 61.6173 130.411C61.7043 130.387 61.8584 130.373 62.0317 130.463C62.2373 130.568 62.3441 130.755 62.3705 130.9L60.403 131.259ZM63.2113 130.67L62.4578 126.507L60.4898 126.863L61.2432 131.027L63.2113 130.67ZM62.4576 126.505C62.3811 126.086 62.1317 125.723 61.7434 125.523C61.3875 125.34 61.0107 125.343 60.7136 125.424C60.1347 125.583 59.4838 126.187 59.6495 127.095L61.617 126.736C61.6426 126.876 61.6068 127.037 61.5142 127.163C61.4343 127.272 61.3334 127.328 61.2432 127.353C61.1562 127.377 61.0022 127.391 60.8289 127.302C60.6232 127.196 60.5165 127.009 60.4901 126.865L62.4576 126.505Z" fill="#041427" mask="url(#path-38-inside-4_1_12212)"/>
<mask id="path-40-inside-5_1_12212" fill="white">
<path d="M62.5254 134.425C62.6409 134.425 62.7516 134.379 62.8333 134.297C62.915 134.216 62.9609 134.105 62.9609 133.989C62.9609 133.874 62.915 133.763 62.8333 133.681C62.7516 133.6 62.6409 133.554 62.5254 133.554C62.4099 133.554 62.2991 133.6 62.2174 133.681C62.1357 133.763 62.0898 133.874 62.0898 133.989C62.0898 134.105 62.1357 134.216 62.2174 134.297C62.2991 134.379 62.4099 134.425 62.5254 134.425Z"/>
</mask>
<path d="M62.5254 134.425C62.6409 134.425 62.7516 134.379 62.8333 134.297C62.915 134.216 62.9609 134.105 62.9609 133.989C62.9609 133.874 62.915 133.763 62.8333 133.681C62.7516 133.6 62.6409 133.554 62.5254 133.554C62.4099 133.554 62.2991 133.6 62.2174 133.681C62.1357 133.763 62.0898 133.874 62.0898 133.989C62.0898 134.105 62.1357 134.216 62.2174 134.297C62.2991 134.379 62.4099 134.425 62.5254 134.425Z" fill="#041427"/>
<path d="M62.5254 135.425C62.9061 135.425 63.2712 135.273 63.5404 135.004L62.1262 133.59C62.2321 133.484 62.3756 133.425 62.5254 133.425V135.425ZM63.5404 135.004C63.8096 134.735 63.9609 134.37 63.9609 133.989H61.9609C61.9609 133.839 62.0204 133.696 62.1262 133.59L63.5404 135.004ZM63.9609 133.989C63.9609 133.608 63.8096 133.243 63.5404 132.974L62.1262 134.388C62.0204 134.283 61.9609 134.139 61.9609 133.989H63.9609ZM63.5404 132.974C63.2712 132.705 62.9061 132.554 62.5254 132.554V134.554C62.3756 134.554 62.2321 134.494 62.1262 134.388L63.5404 132.974ZM62.5254 132.554C62.1447 132.554 61.7795 132.705 61.5103 132.974L62.9245 134.388C62.8186 134.494 62.6751 134.554 62.5254 134.554V132.554ZM61.5103 132.974C61.241 133.243 61.0898 133.609 61.0898 133.989H63.0898C63.0898 134.139 63.0304 134.282 62.9245 134.388L61.5103 132.974ZM61.0898 133.989C61.0898 134.37 61.241 134.735 61.5103 135.004L62.9245 133.59C63.0304 133.696 63.0898 133.84 63.0898 133.989H61.0898ZM61.5103 135.004C61.7795 135.274 62.1447 135.425 62.5254 135.425V133.425C62.6751 133.425 62.8186 133.484 62.9245 133.59L61.5103 135.004Z" fill="#041427" mask="url(#path-40-inside-5_1_12212)"/>
<mask id="path-42-inside-6_1_12212" fill="white">
<path d="M74.425 128.198L73.4843 131.795C73.4537 131.907 73.4686 132.026 73.5258 132.126C73.583 132.227 73.6777 132.3 73.7892 132.331C73.9006 132.361 74.0197 132.346 74.1202 132.289C74.2206 132.232 74.2942 132.137 74.3249 132.026L75.2656 128.433C75.2968 128.321 75.2824 128.202 75.2256 128.101C75.1689 128 75.0744 127.926 74.9629 127.895C74.8514 127.864 74.7321 127.878 74.6313 127.935C74.5304 127.992 74.4562 128.086 74.425 128.198Z"/>
</mask>
<path d="M74.425 128.198L73.4843 131.795C73.4537 131.907 73.4686 132.026 73.5258 132.126C73.583 132.227 73.6777 132.3 73.7892 132.331C73.9006 132.361 74.0197 132.346 74.1202 132.289C74.2206 132.232 74.2942 132.137 74.3249 132.026L75.2656 128.433C75.2968 128.321 75.2824 128.202 75.2256 128.101C75.1689 128 75.0744 127.926 74.9629 127.895C74.8514 127.864 74.7321 127.878 74.6313 127.935C74.5304 127.992 74.4562 128.086 74.425 128.198Z" fill="#041427"/>
<path d="M74.425 128.198L73.462 127.928L73.4597 127.936L73.4576 127.945L74.425 128.198ZM73.4843 131.795L74.4487 132.06L74.4518 132.048L73.4843 131.795ZM74.3249 132.026L75.2892 132.291L75.2923 132.279L74.3249 132.026ZM75.2656 128.433L74.3026 128.163L74.3003 128.172L74.2982 128.18L75.2656 128.433ZM73.4576 127.945L72.5168 131.542L74.4518 132.048L75.3925 128.451L73.4576 127.945ZM72.52 131.53C72.4192 131.897 72.4683 132.29 72.6567 132.621L74.3949 131.631C74.4689 131.762 74.4882 131.916 74.4486 132.06L72.52 131.53ZM72.6567 132.621C72.8451 132.952 73.1572 133.194 73.5244 133.295L74.054 131.366C74.1982 131.406 74.3209 131.501 74.3949 131.631L72.6567 132.621ZM73.5244 133.295C73.8916 133.396 74.2838 133.347 74.6148 133.158L73.6255 131.42C73.7556 131.346 73.9097 131.327 74.054 131.366L73.5244 133.295ZM74.6148 133.158C74.9457 132.97 75.1883 132.658 75.2892 132.291L73.3606 131.761C73.4002 131.617 73.4955 131.494 73.6255 131.42L74.6148 133.158ZM75.2923 132.279L76.233 128.686L74.2982 128.18L73.3575 131.773L75.2923 132.279ZM76.2286 128.702C76.3313 128.335 76.2839 127.943 76.0971 127.611L74.3541 128.592C74.2809 128.461 74.2623 128.307 74.3026 128.163L76.2286 128.702ZM76.0971 127.611C75.9103 127.279 75.5992 127.035 75.2323 126.932L74.6934 128.858C74.5495 128.818 74.4274 128.722 74.3541 128.592L76.0971 127.611ZM75.2323 126.932C74.8655 126.829 74.4728 126.877 74.1408 127.064L75.1217 128.806C74.9914 128.88 74.8374 128.898 74.6934 128.858L75.2323 126.932ZM74.1408 127.064C73.8088 127.25 73.5646 127.561 73.462 127.928L75.388 128.467C75.3478 128.611 75.252 128.733 75.1217 128.806L74.1408 127.064Z" fill="#041427" mask="url(#path-42-inside-6_1_12212)"/>
</svg>
