<svg width="319" height="320" viewBox="0 0 319 320" fill="none" xmlns="http://www.w3.org/2000/svg">
<path d="M98.6385 147.224C96.5048 145.667 94.9258 147.338 94.9258 147.338L97.6101 149.761C97.6613 149.671 100.772 148.778 98.6385 147.224Z" fill="#041427"/>
<path d="M180.297 267.756L178.025 282.161C177.966 282.535 177.774 282.876 177.482 283.125C177.191 283.373 176.819 283.513 176.433 283.518H161.312C161.087 283.52 160.866 283.469 160.666 283.369C160.466 283.268 160.294 283.122 160.164 282.942C160.035 282.762 159.952 282.554 159.922 282.336C159.893 282.118 159.918 281.896 159.995 281.689C160.393 280.714 161.384 279.614 163.767 279.11C168.542 278.108 167.575 266.238 167.575 266.238" fill="#082241"/>
<path d="M165.742 276.18C166.276 276.407 166.774 276.708 167.221 277.075C167.406 277.229 167.676 276.966 167.488 276.812C167.019 276.42 166.494 276.098 165.93 275.858C165.708 275.767 165.516 276.088 165.742 276.18Z" fill="#2791E0"/>
<path d="M167.059 274.477C167.605 274.729 168.1 275.168 168.498 275.753C168.673 276.016 168.953 275.622 168.778 275.359C168.33 274.706 167.776 274.217 167.164 273.935C166.922 273.825 166.817 274.362 167.059 274.482V274.477Z" fill="#2791E0"/>
<path d="M167.084 272.891C167.577 272.983 168.049 273.107 168.491 273.258C168.744 273.346 168.975 273.126 168.726 273.038C168.249 272.876 167.739 272.744 167.206 272.646C166.921 272.593 166.799 272.838 167.084 272.896V272.891Z" fill="#2791E0"/>
<path d="M168.001 278.335L168.116 278.22C168.141 278.195 168.161 278.166 168.175 278.133C168.188 278.101 168.195 278.066 168.196 278.031C168.196 277.996 168.189 277.961 168.176 277.929C168.163 277.896 168.143 277.866 168.119 277.841C168.094 277.816 168.065 277.796 168.032 277.783C168 277.769 167.965 277.762 167.93 277.762C167.895 277.761 167.86 277.768 167.828 277.781C167.795 277.795 167.766 277.814 167.741 277.839L167.626 277.959C167.581 278.01 167.557 278.076 167.559 278.143C167.561 278.211 167.589 278.276 167.637 278.324C167.684 278.372 167.749 278.4 167.817 278.402C167.885 278.404 167.951 278.38 168.001 278.335Z" fill="#2791E0"/>
<path d="M235.456 256.639L245.489 267.464C245.752 267.747 245.902 268.114 245.913 268.496C245.924 268.879 245.795 269.253 245.549 269.55L235.948 281.083C235.808 281.256 235.627 281.393 235.42 281.482C235.214 281.571 234.988 281.61 234.763 281.596C234.537 281.581 234.319 281.513 234.126 281.398C233.933 281.283 233.772 281.124 233.656 280.934C233.132 280.016 232.884 278.566 233.996 276.428C236.22 272.161 226.164 265.408 226.164 265.408" fill="#082241"/>
<path d="M232.891 273.26C233.528 272.899 234.21 272.642 234.917 272.497C235.214 272.437 235.091 271.95 234.793 272.004C234.049 272.159 233.329 272.431 232.658 272.812C232.388 272.964 232.626 273.397 232.891 273.25V273.26Z" fill="#2791E0"/>
<path d="M232.254 271.335C232.843 271.131 233.517 271.007 234.217 270.975C234.526 270.96 234.531 270.702 234.217 270.722C233.432 270.754 232.675 270.889 232.011 271.115C231.75 271.206 232.011 271.429 232.254 271.34V271.335Z" fill="#2791E0"/>
<path d="M231.489 270.046C231.784 269.74 232.1 269.492 232.431 269.307C232.616 269.199 232.537 268.712 232.346 268.815C231.99 269.015 231.649 269.281 231.331 269.608C231.164 269.78 231.331 270.213 231.489 270.041V270.046Z" fill="#2791E0"/>
<path d="M236.355 272.4V272.24C236.318 271.922 235.67 271.917 235.726 272.24V272.4C235.77 272.718 236.418 272.723 236.355 272.4Z" fill="#2791E0"/>
<path d="M235.405 270.72C235.494 270.705 235.575 270.665 235.633 270.607C235.691 270.549 235.723 270.475 235.723 270.4C235.723 270.325 235.691 270.252 235.633 270.193C235.575 270.135 235.494 270.095 235.405 270.08C235.315 270.095 235.234 270.135 235.176 270.193C235.118 270.252 235.086 270.325 235.086 270.4C235.086 270.475 235.118 270.549 235.176 270.607C235.234 270.665 235.315 270.705 235.405 270.72Z" fill="#2791E0"/>
<path d="M198.137 186.881C198.137 186.881 202.488 224.579 211.862 238.127C221.237 251.676 234.451 264.961 234.451 264.961" stroke="#C9DCEE" stroke-width="20" stroke-miterlimit="10"/>
<path d="M150.992 175.245C150.345 174.716 149.666 174.227 148.961 173.779L146.245 169.55C146.139 169.37 145.966 169.239 145.764 169.186C145.563 169.133 145.349 169.161 145.168 169.266C144.99 169.373 144.861 169.546 144.809 169.748C144.756 169.95 144.784 170.165 144.886 170.347L146.178 172.35C145.818 172.215 145.45 172.104 145.077 172.017C143.391 171.292 141.701 170.443 140.417 169.137C139.885 168.593 139.05 169.434 139.587 169.978C140.466 170.842 141.47 171.567 142.564 172.129C142.185 172.286 141.843 172.521 141.558 172.818C140.602 172.336 139.673 171.801 138.776 171.216C138.709 171.177 138.635 171.151 138.558 171.14C138.481 171.129 138.403 171.134 138.328 171.154C138.253 171.174 138.183 171.208 138.121 171.255C138.06 171.302 138.008 171.361 137.969 171.428C137.929 171.496 137.904 171.57 137.893 171.647C137.883 171.725 137.887 171.803 137.907 171.879C137.926 171.954 137.96 172.025 138.007 172.087C138.054 172.15 138.112 172.202 138.179 172.241C139.051 172.806 139.952 173.323 140.879 173.791C140.73 174.118 140.646 174.47 140.632 174.829C139.89 174.507 139.177 174.121 138.501 173.675C138.434 173.636 138.361 173.61 138.284 173.599C138.207 173.589 138.129 173.593 138.054 173.613C137.979 173.633 137.909 173.667 137.847 173.714C137.785 173.761 137.733 173.82 137.694 173.888C137.655 173.955 137.629 174.029 137.619 174.107C137.608 174.184 137.613 174.263 137.632 174.338C137.652 174.414 137.686 174.484 137.733 174.547C137.78 174.609 137.838 174.661 137.905 174.701C138.844 175.317 139.848 175.826 140.898 176.219C141.064 176.609 141.275 176.979 141.527 177.32C140.759 177.008 139.984 176.707 139.209 176.423C139.06 176.38 138.9 176.399 138.764 176.474C138.628 176.548 138.526 176.674 138.481 176.823C138.442 176.973 138.462 177.132 138.536 177.268C138.61 177.403 138.733 177.505 138.879 177.552C140.354 178.097 141.813 178.682 143.252 179.319C143.361 179.37 143.481 179.394 143.602 179.387C144.434 180.039 145.32 180.619 146.249 181.121L150.992 175.245Z" fill="#D6AD6A"/>
<path d="M56.0618 207.242L45.2396 196.932C44.9556 196.662 44.5846 196.502 44.1937 196.483C43.8028 196.463 43.4177 196.584 43.1079 196.824L31.1282 206.147C30.949 206.284 30.8055 206.462 30.71 206.667C30.6144 206.872 30.5696 207.096 30.5794 207.322C30.5893 207.548 30.6534 207.768 30.7663 207.963C30.8792 208.159 31.0376 208.324 31.228 208.444C32.1541 208.993 33.6231 209.278 35.8386 208.216C40.2497 206.087 46.9123 216.32 46.9123 216.32" fill="#2791E0"/>
<path d="M42.3414 209.351C41.9702 209.789 41.6636 210.293 41.4335 210.843C41.3164 211.114 41.672 211.353 41.7891 211.076C42.0021 210.565 42.2844 210.095 42.6258 209.685C42.8099 209.465 42.5171 209.132 42.333 209.351H42.3414Z" fill="#041427"/>
<path d="M40.4486 208.08C40.0509 208.478 39.7329 208.987 39.5197 209.566C39.4178 209.834 39.7388 210.07 39.8407 209.801C40.038 209.252 40.3354 208.767 40.7092 208.386C40.898 208.198 40.6337 207.868 40.4486 208.056V208.08Z" fill="#041427"/>
<path d="M39.1412 207.406C38.7657 207.691 38.4624 208.027 38.2468 208.397C38.1381 208.581 38.4976 208.746 38.602 208.559C38.8028 208.212 39.0864 207.898 39.4379 207.632C39.6302 207.49 39.3376 207.264 39.1454 207.406H39.1412Z" fill="#041427"/>
<path d="M89.7348 184.32C89.7348 184.32 93.5972 229.488 83.5294 232.134C73.4616 234.78 47.1406 208.332 47.1406 208.332" stroke="#005AAA" stroke-width="20" stroke-miterlimit="10"/>
<path d="M108.309 267.756L110.574 282.161C110.634 282.539 110.83 282.883 111.126 283.132C111.422 283.381 111.798 283.518 112.188 283.518H127.293C127.518 283.521 127.74 283.47 127.94 283.37C128.14 283.27 128.313 283.124 128.442 282.944C128.572 282.763 128.655 282.555 128.684 282.336C128.713 282.118 128.687 281.895 128.609 281.689C128.212 280.714 127.226 279.614 124.841 279.11C120.071 278.108 121.041 266.238 121.041 266.238" fill="#2791E0"/>
<path d="M90.1491 195.839C96.3066 195.839 101.298 190.825 101.298 184.639C101.298 178.454 96.3066 173.439 90.1491 173.439C83.9916 173.439 79 178.454 79 184.639C79 190.825 83.9916 195.839 90.1491 195.839Z" fill="#005AAA"/>
<path d="M90.0117 189.439C90.0117 189.439 105.833 219.502 108.459 231.144C111.086 242.786 114.678 270.719 114.678 270.719" stroke="#005AAA" stroke-width="20" stroke-miterlimit="10"/>
<path d="M93.1961 154.881L91.9219 161.281" stroke="#EFD09C" stroke-width="6" stroke-miterlimit="10"/>
<path d="M93.23 156.532C94.5322 159.375 95.2717 159.273 95.2717 159.273L96.2753 156.548C96.2753 156.548 92.3033 154.508 93.23 156.532Z" fill="#D6AD6A"/>
<path d="M95.3357 160.482L87.5454 160.014C85.5527 159.894 83.5889 160.537 82.0524 161.813C80.5158 163.088 79.5217 164.901 79.2716 166.884L77.0972 184.135C77.0719 184.337 77.0893 184.541 77.1481 184.735C77.2069 184.93 77.3058 185.109 77.4385 185.263C77.5711 185.416 77.7346 185.54 77.9181 185.627C78.1017 185.713 78.3014 185.759 78.5041 185.763L101.979 186.24C102.521 186.25 103.046 186.046 103.439 185.672C103.832 185.297 104.061 184.782 104.077 184.239L104.477 170.472C104.549 167.945 103.635 165.488 101.929 163.624C100.222 161.759 97.8576 160.632 95.3357 160.482Z" fill="#082241"/>
<path d="M137.796 180.48L133.152 174.765C133.152 174.765 140.016 169.043 142.756 172.794C145.497 176.546 137.796 180.48 137.796 180.48Z" fill="#EFD09C"/>
<path d="M138.022 169.298L134.556 174.275C134.002 175.074 135.359 175.814 135.925 175.022L139.391 170.049C139.949 169.246 138.588 168.507 138.022 169.302V169.298Z" fill="#EFD09C"/>
<path d="M145.172 176.042C143.584 176.659 142.018 177.328 140.473 178.05C139.77 178.374 140.376 179.462 141.071 179.142C142.525 178.464 143.999 177.863 145.489 177.261C146.204 176.98 145.891 175.76 145.176 176.042H145.172Z" fill="#EFD09C"/>
<path d="M145.639 173.522C144.467 174.162 143.191 174.659 141.851 174.998C141.109 175.186 141.443 176.166 142.173 175.975C143.614 175.612 144.987 175.08 146.251 174.396C146.903 174.055 146.295 173.167 145.639 173.522Z" fill="#EFD09C"/>
<path d="M142.372 174.021C143.71 173.433 145.004 172.755 146.244 171.992C146.91 171.594 146.293 170.563 145.627 170.977C144.385 171.737 143.09 172.414 141.75 173.003C141.034 173.321 141.659 174.336 142.372 174.021Z" fill="#EFD09C"/>
<path d="M143.638 168.507C142.09 170.243 139.993 171.229 137.996 172.149C137.323 172.457 137.609 173.703 138.302 173.39C140.488 172.383 142.737 171.302 144.451 169.419C144.977 168.837 144.164 167.925 143.638 168.507Z" fill="#EFD09C"/>
<path d="M234.373 192.639L226.809 194.946C226.809 194.946 229.544 203.715 234.243 202.021C238.941 200.327 234.373 192.639 234.373 192.639Z" fill="#D6AD6A"/>
<path d="M229.312 202.135L229.352 195.945C229.352 194.951 228.137 194.951 228.118 195.945L228.078 202.135C228.078 203.125 229.291 203.129 229.312 202.135Z" fill="#D6AD6A"/>
<path d="M238.164 199.471C237.245 198.166 236.361 196.832 235.512 195.471C235.133 194.838 234.144 195.427 234.542 196.068C235.38 197.429 236.265 198.763 237.194 200.068C237.618 200.673 238.596 200.068 238.164 199.471Z" fill="#D6AD6A"/>
<path d="M237.582 202.559C237.018 201.133 236.277 199.804 235.381 198.609C234.92 197.992 234.129 198.88 234.587 199.497C235.416 200.615 236.099 201.86 236.614 203.193C236.905 203.929 237.869 203.295 237.582 202.559Z" fill="#D6AD6A"/>
<path d="M233.268 201.228C234.025 202.476 234.696 203.777 235.275 205.123C235.588 205.839 236.616 205.218 236.303 204.502C235.722 203.157 235.051 201.856 234.296 200.607C233.895 199.94 232.863 200.557 233.268 201.228Z" fill="#D6AD6A"/>
<path d="M233.778 205.378C233.255 203.135 231.864 201.161 230.505 199.293C230.067 198.698 229.016 199.259 229.458 199.857C230.775 201.649 232.121 203.525 232.625 205.677C232.792 206.382 233.963 206.082 233.795 205.378H233.778Z" fill="#D6AD6A"/>
<path d="M54.9283 185.6L60.5216 190.67C60.5216 190.67 54.5988 197.653 51.2365 194.278C47.8742 190.903 54.9283 185.6 54.9283 185.6Z" fill="#EFD09C"/>
<path d="M56.7806 197.339L59.1795 191.33C59.5567 190.38 58.278 189.546 57.8933 190.504L55.4944 196.509C55.1173 197.463 56.3997 198.293 56.7806 197.335V197.339Z" fill="#EFD09C"/>
<path d="M48.6313 191.288C49.9838 190.464 51.3134 189.592 52.6202 188.674C53.2303 188.262 52.6621 187.19 52.052 187.619C50.7325 188.529 49.4029 189.396 48.0631 190.22C47.4263 190.604 47.9983 191.663 48.6313 191.276V191.288Z" fill="#EFD09C"/>
<path d="M48.2477 194.387C49.3455 193.389 50.5782 192.552 51.9092 191.901C52.6509 191.537 52.004 190.432 51.2666 190.792C49.8383 191.497 48.5169 192.403 47.3421 193.482C46.734 194.037 47.6396 194.942 48.2477 194.387Z" fill="#EFD09C"/>
<path d="M51.3927 192.74C50.1923 193.57 49.049 194.483 47.9708 195.473C47.4129 195.989 48.2379 196.831 48.7958 196.32C49.7989 195.395 50.8635 194.544 51.982 193.772C52.5988 193.345 52.0174 192.313 51.3927 192.74Z" fill="#EFD09C"/>
<path d="M50.8886 198.14C52.3004 196.265 54.4033 194.986 56.405 193.785C57.0877 193.374 56.4598 192.321 55.7729 192.732C53.5731 194.052 51.3564 195.467 49.8098 197.523C49.3336 198.157 50.4166 198.757 50.8886 198.14Z" fill="#EFD09C"/>
<path d="M98.1108 152.663C98.1188 152.779 98.1099 152.896 98.0845 153.007C98.0592 153.118 98.0181 153.22 97.9636 153.308C97.9091 153.396 97.8424 153.467 97.7677 153.517C97.6929 153.568 97.6117 153.596 97.5289 153.6L97.4766 152.524C97.4766 152.45 97.7413 152.331 97.7879 152.327C97.8249 152.317 97.863 152.318 97.8998 152.33C97.9365 152.342 97.9712 152.364 98.0015 152.396C98.0318 152.427 98.0572 152.467 98.076 152.513C98.0948 152.559 98.1067 152.61 98.1108 152.663Z" fill="#EFD09C"/>
<path d="M92.3153 145.155L92.5873 145.126C93.8208 144.994 95.0558 145.361 96.0205 146.144C96.9852 146.928 97.6007 148.064 97.7314 149.303L98.1951 153.698C98.2911 154.608 98.0235 155.518 97.4512 156.229C96.8788 156.941 96.0487 157.394 95.1434 157.491C93.5084 157.665 91.8715 157.179 90.5929 156.141C89.3142 155.103 88.4985 153.597 88.3252 151.954L88.1535 150.327C88.0882 149.713 88.1441 149.091 88.318 148.499C88.4918 147.906 88.7803 147.354 89.1668 146.874C89.5534 146.394 90.0304 145.994 90.5707 145.699C91.1109 145.404 91.7038 145.219 92.3153 145.155Z" fill="#EFD09C"/>
<path d="M94.966 153.157C95.2055 153.358 95.5441 153.51 95.9354 153.593C96.1997 153.648 96.3143 153.4 96.0499 153.332C95.7649 153.272 95.5175 153.162 95.3405 153.016C95.1775 152.883 94.803 153.016 94.966 153.147V153.157Z" fill="#041427"/>
<path d="M96.5178 151.679C96.6937 151.679 96.8363 151.536 96.8363 151.359C96.8363 151.182 96.6937 151.039 96.5178 151.039C96.3418 151.039 96.1992 151.182 96.1992 151.359C96.1992 151.536 96.3418 151.679 96.5178 151.679Z" fill="#041427"/>
<path d="M95.9612 150.402C96.1816 150.318 96.4132 150.259 96.6503 150.226C96.9765 150.179 96.8397 149.739 96.5083 149.763C96.2281 149.804 95.9556 149.879 95.6982 149.985C95.393 150.105 95.6561 150.499 95.9612 150.379V150.402Z" fill="#041427"/>
<path d="M91.4461 191.951C93.0471 190.636 94.61 189.271 96.1346 187.857C96.3245 187.682 96.0475 187.402 95.8576 187.573C94.333 188.985 92.7702 190.351 91.1691 191.671C90.9713 191.829 91.2522 192.113 91.4461 191.951Z" fill="#041427"/>
<path d="M198.458 195.839C204.615 195.839 209.607 190.825 209.607 184.639C209.607 178.454 204.615 173.439 198.458 173.439C192.3 173.439 187.309 178.454 187.309 184.639C187.309 190.825 192.3 195.839 198.458 195.839Z" fill="#C9DCEE"/>
<path d="M200.684 186.238C200.684 186.238 183.429 215.008 180.794 226.7C178.159 238.392 173.926 270.718 173.926 270.718" stroke="#C9DCEE" stroke-width="20" stroke-miterlimit="10"/>
<path d="M198.59 153.279L198.59 161.279" stroke="#D6AD6A" stroke-width="6" stroke-miterlimit="10"/>
<path d="M195.475 155.776C194.432 158.619 193.546 159.361 193.546 159.361L193.039 155.792C193.039 155.792 196.217 153.752 195.475 155.776Z" fill="#041427"/>
<path d="M193.684 160.482L201.298 160.014C203.244 159.894 205.162 160.537 206.662 161.813C208.163 163.089 209.133 164.902 209.377 166.884L211.501 184.135C211.525 184.336 211.509 184.54 211.451 184.734C211.394 184.928 211.298 185.108 211.169 185.261C211.039 185.415 210.88 185.539 210.701 185.625C210.523 185.712 210.328 185.759 210.13 185.764L187.194 186.24C186.665 186.249 186.153 186.045 185.77 185.67C185.387 185.296 185.164 184.782 185.148 184.239L184.758 170.472C184.687 167.945 185.58 165.489 187.246 163.625C188.912 161.76 191.221 160.633 193.684 160.482Z" fill="#005AAA"/>
<path d="M190.556 151.864C190.52 151.959 190.498 152.063 190.491 152.17C190.484 152.277 190.492 152.386 190.516 152.488C190.539 152.591 190.577 152.685 190.627 152.766C190.677 152.847 190.738 152.913 190.806 152.96L191.124 152.055C191.145 151.998 190.946 151.757 190.909 151.734C190.88 151.708 190.847 151.691 190.814 151.684C190.78 151.676 190.746 151.679 190.713 151.691C190.68 151.703 190.649 151.725 190.622 151.755C190.595 151.784 190.573 151.822 190.556 151.864Z" fill="#D6AD6A"/>
<path d="M193.765 157.494C192.86 157.398 192.03 156.944 191.457 156.233C190.885 155.522 190.617 154.611 190.713 153.702L191.177 149.307C191.308 148.067 191.923 146.931 192.888 146.148C193.853 145.364 195.088 144.998 196.321 145.129L196.593 145.158C197.827 145.29 198.958 145.908 199.738 146.877C200.517 147.846 200.882 149.087 200.751 150.326L200.58 151.953C200.406 153.596 199.591 155.102 198.312 156.14C197.033 157.179 195.396 157.664 193.761 157.49L193.765 157.494Z" fill="#D6AD6A"/>
<path d="M193.323 153.645C193.125 153.802 192.858 153.915 192.557 153.969C192.504 153.979 192.458 154.002 192.43 154.034C192.402 154.065 192.395 154.103 192.41 154.138C192.425 154.173 192.46 154.203 192.509 154.222C192.557 154.24 192.615 154.244 192.669 154.235C193.04 154.169 193.373 154.031 193.623 153.84C193.798 153.706 193.503 153.51 193.323 153.645Z" fill="#041427"/>
<path d="M192.721 151.679C192.897 151.679 193.039 151.536 193.039 151.359C193.039 151.182 192.897 151.039 192.721 151.039C192.545 151.039 192.402 151.182 192.402 151.359C192.402 151.536 192.545 151.679 192.721 151.679Z" fill="#041427"/>
<path d="M193.542 149.987C193.283 149.881 193.009 149.807 192.728 149.765C192.402 149.719 192.26 150.158 192.591 150.204C192.829 150.234 193.06 150.293 193.279 150.379C193.579 150.499 193.847 150.107 193.542 149.987Z" fill="#041427"/>
<path d="M90.4648 169.6C90.4648 169.6 109.786 180.304 118.946 180.475C128.105 180.647 138.247 175.57 138.247 175.57" stroke="#082241" stroke-width="14" stroke-miterlimit="10"/>
<path d="M88.5624 203.178C91.2486 208.454 93.6634 213.865 95.7973 219.388C95.8847 219.623 96.2664 219.52 96.1948 219.285C94.0493 213.729 91.6213 208.286 88.9201 202.979C88.8048 202.756 88.4669 202.951 88.5822 203.178H88.5624Z" fill="#041427"/>
<path d="M120.673 273.907C121.209 273.847 121.729 273.729 122.215 273.556C122.457 273.469 122.244 273.211 122.002 273.296C121.549 273.457 121.063 273.565 120.563 273.617C120.295 273.647 120.41 273.919 120.673 273.919V273.907Z" fill="#041427"/>
<path d="M121.239 275.829C121.802 275.82 122.355 275.708 122.857 275.501C123.087 275.406 122.885 275.123 122.654 275.219C122.217 275.403 121.733 275.503 121.239 275.511C120.985 275.511 120.981 275.839 121.239 275.839V275.829Z" fill="#041427"/>
<path d="M122.46 277.758C122.833 277.713 123.196 277.592 123.528 277.402C123.689 277.309 123.545 277.046 123.383 277.139C123.096 277.303 122.783 277.408 122.46 277.448C122.281 277.473 122.278 277.78 122.46 277.758Z" fill="#041427"/>
<path d="M80.345 224.327C80.8209 224.684 81.3324 224.995 81.8722 225.256C82.1071 225.372 82.3169 225.032 82.0819 224.916C81.5737 224.669 81.0905 224.378 80.6387 224.046C80.4331 223.89 80.1353 224.166 80.345 224.327Z" fill="#041427"/>
<path d="M87.28 169.822C86.3929 170.03 75.2194 167.836 68.2961 173.876C63.5157 178.049 56.0625 190.08 56.0625 190.08" stroke="#082241" stroke-width="14" stroke-miterlimit="10"/>
<path d="M147.809 177.441C147.809 177.441 168.391 187.601 176.557 181.987C184.724 176.373 194.953 168.238 194.953 168.238" stroke="#005AAA" stroke-width="14" stroke-miterlimit="10"/>
<path d="M185.745 169.699C184.316 172.986 184.724 176.773 185.176 180.335C185.21 180.589 185.504 180.48 185.47 180.23C185.034 176.777 184.622 173.091 186.008 169.896C186.028 169.851 186.033 169.797 186.023 169.746C186.012 169.695 185.987 169.652 185.952 169.626C185.917 169.6 185.876 169.593 185.837 169.606C185.798 169.62 185.765 169.653 185.745 169.699Z" fill="#041427"/>
<path d="M185.072 181.759C185.157 181.759 185.238 181.725 185.298 181.665C185.357 181.605 185.391 181.524 185.391 181.439C185.391 181.354 185.357 181.273 185.298 181.213C185.238 181.153 185.157 181.119 185.072 181.119C184.988 181.119 184.907 181.153 184.847 181.213C184.787 181.273 184.754 181.354 184.754 181.439C184.754 181.524 184.787 181.605 184.847 181.665C184.907 181.725 184.988 181.759 185.072 181.759Z" fill="#041427"/>
<path d="M201.961 165.119C201.961 165.119 216.338 168.797 224.024 178.397C229.481 185.222 231.904 195.839 231.904 195.839" stroke="#005AAA" stroke-width="14" stroke-miterlimit="10"/>
<path d="M206.548 172.657L209.998 174.065C210.237 174.162 210.339 173.701 210.103 173.579L206.649 172.171C206.414 172.074 206.312 172.54 206.548 172.657Z" fill="#041427"/>
<path d="M191.214 148.519C192.17 148.512 193.114 148.32 193.989 147.953C194.164 147.882 194.361 147.879 194.537 147.946C194.714 148.012 194.856 148.142 194.933 148.308C195.132 148.721 195.355 149.124 195.601 149.513C195.655 149.6 195.729 149.673 195.816 149.729C195.904 149.785 196.004 149.821 196.108 149.835C196.212 149.849 196.318 149.84 196.419 149.809C196.519 149.778 196.611 149.727 196.687 149.658C196.745 149.591 196.817 149.536 196.898 149.497C196.978 149.457 197.066 149.434 197.157 149.428C197.247 149.421 197.338 149.433 197.424 149.461C197.509 149.489 197.588 149.533 197.656 149.591C198.4 150.122 197.851 151.222 197.306 151.612C197.209 151.684 197.135 151.779 197.09 151.888C197.045 151.997 197.031 152.116 197.049 152.232C197.277 153.773 197.904 158.594 197.306 161.074C197.28 161.179 197.28 161.288 197.307 161.393C197.333 161.498 197.385 161.595 197.458 161.677C197.53 161.759 197.622 161.824 197.726 161.865C197.83 161.907 197.942 161.925 198.054 161.917C199.857 161.776 203.491 161.281 205.509 159.506C205.621 159.411 205.699 159.284 205.731 159.144C205.763 159.004 205.748 158.858 205.688 158.726C205.46 158.211 205.118 157.392 205.244 157.349C205.37 157.306 205.798 157.845 206.152 158.297C206.211 158.373 206.286 158.435 206.372 158.481C206.458 158.527 206.553 158.556 206.651 158.564C206.749 158.573 206.848 158.562 206.941 158.532C207.035 158.503 207.121 158.454 207.193 158.391C207.979 157.716 209.297 156.476 209.578 155.547C209.985 154.206 204.927 151.175 202.803 148.101C200.793 145.191 198.327 144.688 197.371 144.879C197.265 144.905 197.155 144.905 197.049 144.879C196.15 144.645 192.093 143.822 190.539 147.579C190.495 147.683 190.48 147.797 190.493 147.909C190.506 148.021 190.548 148.129 190.615 148.222C190.681 148.314 190.771 148.39 190.876 148.442C190.98 148.494 191.097 148.52 191.214 148.519Z" fill="#041427"/>
<path d="M93.561 150.643C93.55 150.691 93.5277 150.734 93.4961 150.77C93.4646 150.805 93.4249 150.831 93.3811 150.845C93.3372 150.859 93.2907 150.861 93.2462 150.849C93.2016 150.838 93.1606 150.815 93.1271 150.781C93.0235 150.65 92.8885 150.55 92.7365 150.493C92.5844 150.437 92.4209 150.425 92.2631 150.46C91.7036 150.684 91.2126 152.207 92.4534 152.941L91.7265 154.745C91.5573 155.164 91.2773 155.522 90.9209 155.773C90.5645 156.024 90.1474 156.158 89.7207 156.159C89.7207 156.159 84.6929 150.048 89.0851 147.115C89.0851 147.115 89.6788 144.308 93.6523 144.671C97.6259 145.034 99.9247 147.16 98.1397 147.791C96.682 148.309 94.7523 149.066 94.0938 149.327C94.0224 149.356 93.9586 149.403 93.9076 149.464C93.8566 149.525 93.82 149.598 93.8008 149.678L93.561 150.643Z" fill="#041427"/>
<path d="M144.936 127.999C174.668 127.999 198.77 103.644 198.77 73.5992C198.77 43.5549 174.668 19.1992 144.936 19.1992C115.204 19.1992 91.1016 43.5549 91.1016 73.5992C91.1016 103.644 115.204 127.999 144.936 127.999Z" fill="#B3CAFF"/>
<path d="M134.426 119.478C134.426 119.478 125.901 135.17 113.402 137.6C113.402 137.6 120.242 127.918 120.135 112" fill="#B3CAFF"/>
<path d="M158.637 119.478C158.637 119.478 167.162 135.17 179.661 137.6C179.661 137.6 172.821 127.918 172.928 112" fill="#B3CAFF"/>
<path d="M128.063 67.2289C128.657 67.0324 136.404 65.6595 139.766 60.3617C143.127 55.0639 147.368 49.2687 148.936 48.682C150.504 48.0954 154.753 53.5659 152.015 58.6672C150.854 60.8292 150.323 62.1723 150.094 63.0061C150.051 63.1599 150.044 63.3216 150.073 63.4785C150.103 63.6355 150.168 63.7834 150.264 63.9109C150.36 64.0383 150.484 64.1417 150.627 64.2131C150.769 64.2845 150.926 64.3219 151.086 64.3224L166.527 64.2867C170.762 64.2867 174.076 68.1938 173.119 72.3272C172.921 73.2405 172.507 74.093 171.914 74.8138C171.699 75.0758 171.552 75.3867 171.486 75.7191C171.42 76.0515 171.436 76.3952 171.534 76.7197C171.848 77.7811 171.885 78.906 171.638 79.9855C171.392 81.065 170.872 82.0624 170.129 82.8812C169.774 83.2817 169.583 83.8018 169.595 84.3374C169.63 85.5286 169.508 87.7621 168.3 89.4179C167.999 89.8421 167.868 90.3637 167.932 90.8801C168.074 92.1427 167.976 94.534 165.621 96.0617C162.296 98.2208 142.857 97.0445 139.763 96.0617C136.669 95.079 130.78 95.2785 126.777 95.4661" fill="white"/>
<path d="M121.138 62.0801H128.383C128.758 62.0801 129.129 62.1545 129.476 62.2991C129.822 62.4437 130.137 62.6557 130.402 62.9229C130.668 63.1901 130.878 63.5074 131.022 63.8565C131.165 64.2056 131.239 64.5798 131.239 64.9577V95.6824C131.239 96.4456 130.938 97.1776 130.402 97.7172C129.867 98.2569 129.14 98.5601 128.383 98.5601H121.138C119.931 98.5601 118.773 98.0769 117.919 97.2168C117.066 96.3567 116.586 95.1902 116.586 93.9738V66.6723C116.585 66.0695 116.702 65.4725 116.931 64.9154C117.159 64.3583 117.494 63.852 117.917 63.4255C118.34 62.999 118.842 62.6606 119.395 62.4298C119.947 62.1989 120.54 62.0801 121.138 62.0801Z" fill="#082241"/>
</svg>
