<svg width="134" height="252" viewBox="0 0 134 252" fill="none" xmlns="http://www.w3.org/2000/svg">
<path d="M89.0215 101.377L96.484 120.386C96.7044 120.924 96.7431 121.52 96.5944 122.082C96.4457 122.644 96.1176 123.143 95.6599 123.502C95.2022 123.861 94.6398 124.061 94.0582 124.072C93.4766 124.082 92.9073 123.903 92.4369 123.56L63.7969 103.342" fill="white"/>
<path d="M89.0215 101.377L96.484 120.386C96.7044 120.924 96.7431 121.52 96.5944 122.082C96.4457 122.644 96.1176 123.143 95.6599 123.502C95.2022 123.861 94.6398 124.061 94.0582 124.072C93.4766 124.082 92.9073 123.903 92.4369 123.56L63.7969 103.342" fill="#48B16E" fill-opacity="0.25"/>
<path d="M56.2213 113.624C87.2715 113.624 112.443 88.1888 112.443 56.8122C112.443 25.4357 87.2715 0 56.2213 0C25.1711 0 0 25.4357 0 56.8122C0 88.1888 25.1711 113.624 56.2213 113.624Z" fill="white"/>
<path d="M56.2213 113.624C87.2715 113.624 112.443 88.1888 112.443 56.8122C112.443 25.4357 87.2715 0 56.2213 0C25.1711 0 0 25.4357 0 56.8122C0 88.1888 25.1711 113.624 56.2213 113.624Z" fill="#48B16E" fill-opacity="0.25"/>
<path d="M38.9209 45.2388C39.5412 45.0335 47.6321 43.5998 51.1427 38.0671C54.6532 32.5343 59.0817 26.4822 60.7191 25.8695C62.3565 25.2568 66.7943 30.97 63.935 36.2975C62.7225 38.5553 62.1673 39.958 61.9286 40.8288C61.8836 40.9894 61.8763 41.1582 61.9072 41.3221C61.9381 41.486 62.0063 41.6405 62.1066 41.7736C62.2069 41.9067 62.3365 42.0147 62.4853 42.0893C62.6341 42.1638 62.798 42.2029 62.9643 42.2034L79.0905 42.1661C83.5127 42.1661 86.9736 46.2465 85.9751 50.5632C85.7674 51.517 85.3358 52.4073 84.716 53.1601C84.4919 53.4336 84.3385 53.7583 84.2692 54.1055C84.2 54.4526 84.2171 54.8115 84.319 55.1505C84.6478 56.2589 84.6855 57.4337 84.4285 58.5611C84.1715 59.6884 83.6285 60.7301 82.8522 61.5851C82.4817 62.0035 82.2824 62.5466 82.294 63.106C82.3312 64.35 82.204 66.6825 80.9419 68.4117C80.6281 68.8547 80.491 69.3994 80.5573 69.9387C80.7062 71.2573 80.6038 73.7547 78.1446 75.3502C74.6713 77.6049 54.371 76.3765 51.1396 75.3502C47.9081 74.3238 41.7585 74.5322 37.5781 74.7281" fill="white"/>
<path d="M31.6759 39.8594H39.2418C39.6335 39.8594 40.0214 39.9371 40.3833 40.0881C40.7452 40.2392 41.0741 40.4605 41.3511 40.7396C41.628 41.0186 41.8478 41.3499 41.9977 41.7146C42.1476 42.0792 42.2247 42.47 42.2247 42.8646V74.9518C42.2247 75.7488 41.9105 76.5132 41.3511 77.0768C40.7917 77.6404 40.0329 77.957 39.2418 77.957H31.6759C30.415 77.957 29.2058 77.4524 28.3143 76.5542C27.4227 75.6559 26.9219 74.4377 26.9219 73.1674V44.6552C26.9211 44.0257 27.0434 43.4022 27.282 42.8204C27.5205 42.2386 27.8706 41.7098 28.3121 41.2644C28.7536 40.819 29.278 40.4657 29.8552 40.2246C30.4323 39.9835 31.051 39.8594 31.6759 39.8594Z" fill="#48B16E"/>
<path d="M26.1421 119.467C25.9651 120.293 26.6575 124.507 24.3008 129.929" stroke="#EFD09C" stroke-width="2" stroke-miterlimit="10" stroke-linecap="round"/>
<path d="M10.1276 138.589L25.3028 132.963C25.3028 132.963 25.2635 115.4 16.1237 116.088C6.98398 116.777 10.1276 138.589 10.1276 138.589Z" fill="#EFD09C"/>
<path d="M15.0508 111C15.0508 111 22.0817 113.967 23.4941 124.881" stroke="#EFD09C" stroke-width="2" stroke-miterlimit="10" stroke-linecap="round"/>
<path d="M17.4925 118.343C17.461 118.241 14.2308 114.263 10.918 113.264" stroke="#EFD09C" stroke-width="2" stroke-miterlimit="10" stroke-linecap="round"/>
<path d="M13.3382 120.31C13.291 120.212 11.5481 116.966 8.11328 116.533" stroke="#EFD09C" stroke-width="2" stroke-miterlimit="10" stroke-linecap="round"/>
<path d="M11.0832 124.91C11.0557 124.808 9.87141 121.318 6.55859 120.318" stroke="#EFD09C" stroke-width="2" stroke-miterlimit="10" stroke-linecap="round"/>
<path d="M109.777 227.613C110.289 226.94 111.457 222.829 115.903 218.93" stroke="#EFD09C" stroke-width="3" stroke-miterlimit="10" stroke-linecap="round"/>
<path d="M132.415 217.137L116.284 215.764C116.284 215.764 108.809 231.686 117.401 234.944C125.994 238.202 132.415 217.137 132.415 217.137Z" fill="#EFD09C"/>
<path d="M116.189 239.987C116.189 239.987 111.094 234.31 114.466 223.832" stroke="#EFD09C" stroke-width="3" stroke-miterlimit="10" stroke-linecap="round"/>
<path d="M117.125 232.311C117.125 232.417 118.337 237.39 120.91 239.707" stroke="#EFD09C" stroke-width="3" stroke-miterlimit="10" stroke-linecap="round"/>
<path d="M121.707 232.303C121.707 232.413 121.904 236.092 124.823 237.949" stroke="#EFD09C" stroke-width="3" stroke-miterlimit="10" stroke-linecap="round"/>
<path d="M125.704 229.104C125.704 229.21 125.267 232.869 127.84 235.186" stroke="#EFD09C" stroke-width="3" stroke-miterlimit="10" stroke-linecap="round"/>
<path d="M73.283 221.757C84.5497 221.757 93.6832 212.624 93.6832 201.357C93.6832 190.09 84.5497 180.957 73.283 180.957C62.0163 180.957 52.8828 190.09 52.8828 201.357C52.8828 212.624 62.0163 221.757 73.283 221.757Z" fill="#B3CAFF"/>
<path d="M64.2578 149.988C66.6185 154.025 69.0893 164.078 67.8579 167.973" stroke="#EFD09C" stroke-width="13" stroke-miterlimit="10"/>
<path d="M59.7852 155.354L61.5735 161.613C61.5735 161.613 64.6138 159.587 68.1548 155.354C68.1548 155.354 64.5065 156.518 59.7852 155.354Z" fill="#D6AD6A"/>
<path d="M72.3067 135.089L74.1606 136.358C76.0128 137.626 77.2856 139.578 77.6988 141.784C78.1121 143.99 77.632 146.27 76.3643 148.122L73.2331 152.697C71.6005 155.082 69.0873 156.721 66.2462 157.253C63.4052 157.785 60.4691 157.167 58.0839 155.535L57.5157 155.146C55.8538 154.008 54.7118 152.257 54.341 150.278C53.9702 148.298 54.4009 146.252 55.5384 144.59L60.5363 137.288C61.8041 135.436 63.7557 134.164 65.9619 133.75C68.168 133.337 70.448 133.817 72.3002 135.085L72.3067 135.089Z" fill="#EFD09C"/>
<path d="M60.3956 143.416C60.778 143.416 61.0881 143.106 61.0881 142.724C61.0881 142.341 60.778 142.031 60.3956 142.031C60.0132 142.031 59.7031 142.341 59.7031 142.724C59.7031 143.106 60.0132 143.416 60.3956 143.416Z" fill="#041427"/>
<path d="M55.6613 143.003C55.2049 143.896 55.4843 145.588 56.6449 145.926L57.7348 143.369C57.8056 143.196 57.0659 142.582 56.9479 142.542C56.8347 142.48 56.7096 142.443 56.5808 142.433C56.4521 142.422 56.3226 142.44 56.201 142.483C56.0794 142.527 55.9684 142.595 55.8754 142.685C55.7824 142.775 55.7094 142.883 55.6613 143.003Z" fill="#EFD09C"/>
<path d="M58.0491 145.971L59.9849 146.046C60.0476 146.048 60.109 146.065 60.1639 146.096C60.2187 146.126 60.2654 146.17 60.3001 146.222C60.3348 146.274 60.3564 146.334 60.3632 146.397C60.3699 146.459 60.3616 146.522 60.339 146.581C60.0321 147.368 59.3278 148.737 58.2498 148.595C57.1717 148.454 57.3016 147.14 57.4629 146.42C57.493 146.288 57.5681 146.172 57.6751 146.09C57.7822 146.008 57.9144 145.966 58.0491 145.971Z" fill="#041427"/>
<path d="M58.2557 148.594C58.9876 148.693 59.5463 148.087 59.9279 147.449C59.1843 147.021 58.122 147.52 57.4531 147.933C57.5042 148.112 57.6083 148.271 57.7517 148.389C57.895 148.507 58.0708 148.578 58.2557 148.594Z" fill="#C52727"/>
<path d="M58.5023 137.722L61.4139 138.859C61.8625 139.034 62.3428 139.113 62.8239 139.091C63.305 139.07 63.7762 138.948 64.2073 138.733L65.3877 138.135L64.4749 140.185L65.8322 141.023C66.3276 141.331 66.7364 141.759 67.02 142.269C67.3036 142.778 67.4527 143.352 67.4532 143.935V144.186C67.4532 144.186 68.6336 142.801 70.2743 143.399C71.9149 143.998 70.0657 147.358 68.0749 147.267L67.8782 158.13C67.8752 158.271 67.9037 158.411 67.9615 158.539C68.0193 158.668 68.105 158.782 68.2124 158.873C68.3198 158.964 68.4462 159.03 68.5823 159.066C68.7185 159.103 68.861 159.108 68.9995 159.082L85.1937 156.049C85.3501 156.02 85.4988 155.959 85.6303 155.87C85.7619 155.781 85.8734 155.665 85.9578 155.53C86.0422 155.396 86.0976 155.245 86.1205 155.088C86.1434 154.93 86.1333 154.77 86.0908 154.617C84.9105 150.411 80.673 136.518 74.5549 134.622C74.0337 134.453 73.5405 134.208 73.0913 133.894C70.9864 132.473 63.6486 129.051 58.0814 136.255C57.9915 136.372 57.9305 136.51 57.9031 136.656C57.8757 136.801 57.8827 136.951 57.9236 137.094C57.9645 137.236 58.0381 137.367 58.1386 137.477C58.2391 137.586 58.3636 137.67 58.5023 137.722Z" fill="#041427"/>
<path d="M53.0606 200.218C53.0606 200.218 38.8447 228.91 36.5352 251.152L93.3696 251.151C93.3696 251.151 101.667 209.948 93.2944 197" fill="#B3CAFF"/>
<path d="M60.9843 140.392C61.3808 140.525 61.7579 140.71 62.1056 140.943C62.5305 141.226 62.924 140.549 62.4991 140.262C62.0921 139.995 61.6515 139.784 61.1889 139.633C60.705 139.475 60.5004 140.235 60.9804 140.392H60.9843Z" fill="#041427"/>
<path d="M65.1189 250.971L65.1188 250.971C65.0869 251.055 65.1034 251.132 65.1503 251.19C65.1952 251.246 65.2651 251.282 65.3378 251.299C65.4792 251.33 65.6681 251.292 65.732 251.123L72.3394 233.663L72.3394 233.663C72.3713 233.579 72.3549 233.502 72.308 233.444C72.2631 233.388 72.1931 233.352 72.1205 233.335C71.9791 233.304 71.7902 233.342 71.7262 233.511C71.7262 233.511 71.7262 233.511 71.7262 233.511L65.1189 250.971Z" fill="#041427" stroke="#041427" stroke-width="0.1"/>
<path d="M60.6842 208.614C63.3255 211.195 66.0547 213.677 68.8718 216.062C69.2652 216.388 69.8161 215.833 69.4305 215.507C66.6134 213.123 63.8829 210.64 61.239 208.059C60.877 207.705 60.3222 208.26 60.6842 208.614Z" fill="#041427"/>
<path d="M17.3715 127.1C17.3715 127.1 16.8561 157.938 27.1132 168.577C37.3703 179.215 63.3637 175.918 63.3637 175.918" stroke="#005AAA" stroke-width="20" stroke-miterlimit="10"/>
<path d="M77.3047 171.397C77.3047 171.397 103.414 162.348 118.955 188.52C129.023 205.47 120.761 223.246 120.761 223.246" stroke="#005AAA" stroke-width="20" stroke-miterlimit="10"/>
<path d="M114.708 225.705C115.416 225.779 116.13 225.65 116.767 225.333C117.403 225.016 117.937 224.524 118.304 223.915C118.568 223.482 117.891 223.089 117.624 223.522C117.325 224.012 116.89 224.404 116.373 224.653C115.856 224.902 115.278 224.995 114.708 224.922C114.205 224.867 114.209 225.654 114.708 225.709V225.705Z" fill="#041427"/>
<path d="M57.3319 119.382L58.3627 122.715C58.5083 123.199 59.2716 122.99 59.1182 122.506L58.0913 119.174C57.9418 118.694 57.1824 118.898 57.3319 119.382Z" fill="#041427"/>
<path d="M69.3393 117.111C68.8171 118.796 68.4096 120.514 68.1196 122.253C68.0369 122.749 68.7963 122.962 68.8789 122.462C69.1689 120.722 69.5764 119.004 70.0986 117.32C70.2481 116.836 69.4888 116.627 69.3393 117.111Z" fill="#041427"/>
<path d="M67.6942 126.338C67.7986 126.338 67.8986 126.296 67.9724 126.222C68.0462 126.149 68.0877 126.049 68.0877 125.944C68.0877 125.84 68.0462 125.74 67.9724 125.666C67.8986 125.592 67.7986 125.551 67.6942 125.551C67.5899 125.551 67.4898 125.592 67.416 125.666C67.3422 125.74 67.3008 125.84 67.3008 125.944C67.3008 126.049 67.3422 126.149 67.416 126.222C67.4898 126.296 67.5899 126.338 67.6942 126.338Z" fill="#041427"/>
<path d="M80.9272 121.635C80.1808 122.703 79.3783 123.732 78.5233 124.715C78.1928 125.109 78.7475 125.656 79.082 125.27C79.9786 124.235 80.8217 123.154 81.6079 122.032C81.899 121.615 81.2145 121.222 80.9272 121.639V121.635Z" fill="#041427"/>
<path d="M76.6014 161.136L51.7396 165.625C50.2596 165.893 48.8499 166.46 47.5967 167.291C46.3436 168.123 45.2734 169.202 44.4517 170.462C43.6299 171.721 43.0739 173.135 42.8178 174.617C42.5616 176.099 42.6106 177.618 42.9618 179.081L48.7769 203.23C48.9972 204.144 49.5346 204.949 50.2933 205.503C51.052 206.057 51.9828 206.324 52.9199 206.256L93.1537 203.038C94.1666 202.957 95.11 202.491 95.7894 201.736C96.4688 200.98 96.8323 199.993 96.8049 198.977L96.199 177.07C96.1326 174.673 95.5493 172.318 94.4892 170.167C93.429 168.016 91.9169 166.119 90.0562 164.606C88.1955 163.093 86.0301 162 83.708 161.401C81.3859 160.802 78.9618 160.711 76.6014 161.136Z" fill="#005AAA"/>
</svg>
