<svg width="25" height="24" viewBox="0 0 25 24" fill="none" xmlns="http://www.w3.org/2000/svg">
<path d="M12.3262 14.25C13.5688 14.25 14.5762 13.2426 14.5762 12C14.5762 10.7574 13.5688 9.75 12.3262 9.75C11.0835 9.75 10.0762 10.7574 10.0762 12C10.0762 13.2426 11.0835 14.25 12.3262 14.25Z" stroke="#0358A8" stroke-width="1.5" stroke-miterlimit="10"/>
<path d="M12.3262 6.75C13.5688 6.75 14.5762 5.74264 14.5762 4.5C14.5762 3.25736 13.5688 2.25 12.3262 2.25C11.0835 2.25 10.0762 3.25736 10.0762 4.5C10.0762 5.74264 11.0835 6.75 12.3262 6.75Z" stroke="#0358A8" stroke-width="1.5" stroke-miterlimit="10"/>
<path d="M12.3262 21.75C13.5688 21.75 14.5762 20.7426 14.5762 19.5C14.5762 18.2574 13.5688 17.25 12.3262 17.25C11.0835 17.25 10.0762 18.2574 10.0762 19.5C10.0762 20.7426 11.0835 21.75 12.3262 21.75Z" stroke="#0358A8" stroke-width="1.5" stroke-miterlimit="10"/>
</svg>
