<svg width="25" height="24" viewBox="0 0 25 24" fill="none" xmlns="http://www.w3.org/2000/svg">
<path d="M20.4766 5.25H3.97656" stroke="#C52727" stroke-width="1.5" stroke-linecap="round" stroke-linejoin="round"/>
<path d="M9.97656 9.75V15.75" stroke="#C52727" stroke-width="1.5" stroke-linecap="round" stroke-linejoin="round"/>
<path d="M14.4766 9.75V15.75" stroke="#C52727" stroke-width="1.5" stroke-linecap="round" stroke-linejoin="round"/>
<path d="M18.9766 5.25V19.5C18.9766 19.6989 18.8975 19.8897 18.7569 20.0303C18.6162 20.171 18.4255 20.25 18.2266 20.25H6.22656C6.02765 20.25 5.83688 20.171 5.69623 20.0303C5.55558 19.8897 5.47656 19.6989 5.47656 19.5V5.25" stroke="#C52727" stroke-width="1.5" stroke-linecap="round" stroke-linejoin="round"/>
<path d="M15.9766 5.25V3.75C15.9766 3.35218 15.8185 2.97064 15.5372 2.68934C15.2559 2.40804 14.8744 2.25 14.4766 2.25H9.97656C9.57874 2.25 9.19721 2.40804 8.9159 2.68934C8.6346 2.97064 8.47656 3.35218 8.47656 3.75V5.25" stroke="#C52727" stroke-width="1.5" stroke-linecap="round" stroke-linejoin="round"/>
</svg>
