<svg width="25" height="25" viewBox="0 0 25 25" fill="none" xmlns="http://www.w3.org/2000/svg">
<path d="M12.707 17.375C14.7781 17.375 16.457 15.6961 16.457 13.625C16.457 11.5539 14.7781 9.875 12.707 9.875C10.636 9.875 8.95703 11.5539 8.95703 13.625C8.95703 15.6961 10.636 17.375 12.707 17.375Z" stroke="black" stroke-width="1.5" stroke-linecap="round" stroke-linejoin="round"/>
<path d="M19.082 11.375C19.9555 11.3735 20.8173 11.5762 21.5986 11.9669C22.3799 12.3575 23.0591 12.9253 23.582 13.625" stroke="black" stroke-width="1.5" stroke-linecap="round" stroke-linejoin="round"/>
<path d="M1.83203 13.625C2.35497 12.9253 3.03417 12.3575 3.81546 11.9669C4.59675 11.5762 5.45852 11.3735 6.33203 11.375" stroke="black" stroke-width="1.5" stroke-linecap="round" stroke-linejoin="round"/>
<path d="M7.30664 20.75C7.80054 19.7386 8.56859 18.8861 9.52331 18.2899C10.478 17.6936 11.581 17.3774 12.7066 17.3774C13.8323 17.3774 14.9353 17.6936 15.89 18.2899C16.8447 18.8861 17.6127 19.7386 18.1066 20.75" stroke="black" stroke-width="1.5" stroke-linecap="round" stroke-linejoin="round"/>
<path d="M6.33117 11.375C5.76177 11.3756 5.20397 11.2141 4.72293 10.9094C4.2419 10.6048 3.8575 10.1695 3.61466 9.65449C3.37181 9.13947 3.28055 8.56598 3.35153 8.00102C3.42251 7.43607 3.6528 6.90298 4.0155 6.46404C4.3782 6.02511 4.85832 5.69845 5.39977 5.52225C5.94122 5.34605 6.52164 5.32758 7.0732 5.46899C7.62475 5.61041 8.12468 5.90587 8.51455 6.32085C8.90443 6.73583 9.16816 7.2532 9.27492 7.8125" stroke="black" stroke-width="1.5" stroke-linecap="round" stroke-linejoin="round"/>
<path d="M16.1387 7.8125C16.2454 7.2532 16.5092 6.73583 16.899 6.32085C17.2889 5.90587 17.7888 5.61041 18.3404 5.46899C18.892 5.32758 19.4724 5.34605 20.0138 5.52225C20.5553 5.69845 21.0354 6.02511 21.3981 6.46404C21.7608 6.90298 21.9911 7.43607 22.0621 8.00102C22.133 8.56598 22.0418 9.13947 21.7989 9.65449C21.5561 10.1695 21.1717 10.6048 20.6907 10.9094C20.2096 11.2141 19.6518 11.3756 19.0824 11.375" stroke="black" stroke-width="1.5" stroke-linecap="round" stroke-linejoin="round"/>
</svg>
