<svg width="18" height="19" viewBox="0 0 18 19" fill="none" xmlns="http://www.w3.org/2000/svg">
<path d="M17.5153 7.72843L10.0153 0.65218C10.0116 0.648981 10.0082 0.645536 10.005 0.641867C9.72887 0.390742 9.36903 0.251587 8.99578 0.251587C8.62253 0.251587 8.2627 0.390742 7.98656 0.641867L7.97625 0.65218L0.484687 7.72843C0.331873 7.86895 0.209891 8.03966 0.126461 8.22976C0.0430305 8.41986 -3.15402e-05 8.62521 1.73323e-08 8.83281V17.5C1.73323e-08 17.8978 0.158035 18.2793 0.43934 18.5607C0.720644 18.842 1.10218 19 1.5 19H6C6.39782 19 6.77936 18.842 7.06066 18.5607C7.34196 18.2793 7.5 17.8978 7.5 17.5V13H10.5V17.5C10.5 17.8978 10.658 18.2793 10.9393 18.5607C11.2206 18.842 11.6022 19 12 19H16.5C16.8978 19 17.2794 18.842 17.5607 18.5607C17.842 18.2793 18 17.8978 18 17.5V8.83281C18 8.62521 17.957 8.41986 17.8735 8.22976C17.7901 8.03966 17.6681 7.86895 17.5153 7.72843ZM16.5 17.5H12V13C12 12.6022 11.842 12.2206 11.5607 11.9393C11.2794 11.658 10.8978 11.5 10.5 11.5H7.5C7.10218 11.5 6.72064 11.658 6.43934 11.9393C6.15804 12.2206 6 12.6022 6 13V17.5H1.5V8.83281L1.51031 8.82343L9 1.74999L16.4906 8.82156L16.5009 8.83093L16.5 17.5Z" fill="black"/>
</svg>
